#N canvas 749 30 955 918 10;
#X obj 535 329 samphold~;
#X obj 587 303 phasor~ 1000;
#X obj 114 205 hsl 128 15 500 50000 1 0 \$0-cutoff \$0-setcutoff empty
-2 -8 0 10 -99865 -228856 -1 7000 1;
#X obj 556 423 *~;
#X obj 571 404 vline~;
#X msg 571 383 \$1 20;
#X obj 114 244 hsl 128 15 0 1 0 0 \$0-resonance \$0-setresonance empty
-2 -8 0 10 -99865 -228856 -228856 0 1;
#X obj 587 279 - 500;
#X obj 534 653 *~;
#X obj 549 634 vline~;
#X msg 549 613 \$1 20;
#X obj 114 283 hsl 128 15 0 1 0 0 \$0-outputgain \$0-setoutputgain
empty -2 -8 0 10 -99865 -228856 -1 0 1;
#X obj 587 257 r \$0-cutoff;
#X obj 559 227 r~ \$0-feedbackL;
#X obj 556 444 send~ \$0-feedbackL;
#X obj 571 360 r \$0-resonance;
#X obj 549 588 r \$0-outputgain;
#X obj 810 328 samphold~;
#X obj 862 302 phasor~ 1000;
#X obj 830 422 *~;
#X obj 845 403 vline~;
#X msg 845 382 \$1 20;
#X obj 862 278 - 500;
#X obj 809 652 *~;
#X obj 824 633 vline~;
#X msg 824 612 \$1 20;
#X obj 862 256 r \$0-cutoff;
#X obj 845 359 r \$0-resonance;
#X obj 824 587 r \$0-outputgain;
#X obj 834 226 r~ \$0-feedbackR;
#X obj 830 443 send~ \$0-feedbackR;
#X obj 107 403 r \$0-cutoff;
#X obj 107 469 s \$0-cutofffreq;
#X obj 102 503 loadbang;
#X obj 1087 289 s \$0-setresonance;
#X obj 1103 334 s \$0-setoutputgain;
#X obj 107 426 - 500;
#X obj 107 449 / 2;
#X obj 535 565 lop~;
#X obj 556 468 r \$0-cutofffreq;
#X obj 556 538 spigot;
#X obj 589 491 r \$0-antialiasing;
#X obj 250 169 tgl 15 0 \$0-antialiasing \$0-setantialiasing empty
17 7 0 10 -99865 -228856 -228856 1 1;
#X obj 602 515 sel 1;
#X msg 629 538 30000;
#X obj 602 538 f;
#X obj 809 564 lop~;
#X obj 830 467 r \$0-cutofffreq;
#X obj 830 537 spigot;
#X obj 863 490 r \$0-antialiasing;
#X obj 876 514 sel 1;
#X msg 903 537 30000;
#X obj 876 537 f;
#X obj 535 202 lop~;
#X obj 556 105 r \$0-cutofffreq;
#X obj 556 175 spigot;
#X obj 589 128 r \$0-antialiasing;
#X obj 602 152 sel 1;
#X msg 629 175 30000;
#X obj 602 175 f;
#X obj 809 201 lop~;
#X obj 830 104 r \$0-cutofffreq;
#X obj 830 174 spigot;
#X obj 863 127 r \$0-antialiasing;
#X obj 876 151 sel 1;
#X msg 903 174 30000;
#X obj 876 174 f;
#X obj 535 51 adc~ 1;
#X obj 810 56 adc~ 2;
#X obj 533 867 dac~ 1;
#X obj 808 873 dac~ 2;
#X obj 1051 78 receive param;
#X obj 1051 134 change;
#X obj 1068 178 change;
#X obj 1087 267 change;
#X obj 1103 312 change;
#X obj 1051 156 s \$0-setantialiasing;
#X obj 1068 245 s \$0-setcutoff;
#X obj 1068 199 * 2;
#X obj 1068 222 + 500;
#X msg 1331 266 param change 1 \$1;
#X obj 1331 246 tgl 15 0 empty empty empty 17 7 0 10 -262144 -1 -1
0 1;
#X obj 1331 290 send camomile;
#X obj 1331 173 r \$0-antialiasing;
#X msg 1418 244 param set 1 \$1;
#X floatatom 1418 224 5 0 0 0 - - -;
#X obj 1331 198 t b f b;
#X obj 1522 129 r \$0-cutoff;
#X obj 1370 224 del 10;
#X obj 1522 244 tgl 15 0 empty empty empty 17 7 0 10 -262144 -1 -1
1 1;
#X obj 1522 288 send camomile;
#X floatatom 1609 222 5 0 0 0 - - -;
#X obj 1522 196 t b f b;
#X obj 1561 222 del 10;
#X msg 1522 264 param change 2 \$1;
#X msg 1609 242 param set 2 \$1;
#X obj 1715 244 tgl 15 0 empty empty empty 17 7 0 10 -262144 -1 -1
0 1;
#X obj 1715 288 send camomile;
#X floatatom 1802 222 5 0 0 0 - - -;
#X obj 1715 196 t b f b;
#X obj 1754 222 del 10;
#X obj 1908 241 tgl 15 0 empty empty empty 17 7 0 10 -262144 -1 -1
0 1;
#X obj 1908 285 send camomile;
#X floatatom 1995 219 5 0 0 0 - - -;
#X obj 1908 193 t b f b;
#X obj 1947 219 del 10;
#X obj 1715 172 r \$0-resonance;
#X msg 1802 242 param set 3 \$1;
#X msg 1715 264 param change 3 \$1;
#X msg 1995 239 param set 4 \$1;
#X msg 1908 261 param change 4 \$1;
#X obj 1908 169 r \$0-outputgain;
#X obj 1522 151 - 500;
#X obj 1522 174 / 2;
#X msg 102 526 0;
#X obj 102 549 s \$0-antialiasing;
#X obj 249 205 nbx 5 15 -1e+037 1e+037 0 0 empty \$0-cutofffreq empty
0 -8 0 10 -99865 -228856 -228856 0 256;
#X obj 249 244 nbx 5 15 -1e+037 1e+037 0 0 empty \$0-resonance empty
0 -8 0 10 -99865 -228856 -228856 0 256;
#X obj 248 283 nbx 5 15 -1e+037 1e+037 0 0 empty \$0-outputgain empty
0 -8 0 10 -99865 -228856 -228856 0 256;
#X obj 114 320 hsl 128 15 -1 1 0 0 \$0-wetdry \$0-setwetdry empty -2
-8 0 10 -99865 -228856 -1 0 1;
#X obj 248 320 nbx 5 15 -1e+037 1e+037 0 0 empty \$0-wetdry empty 0
-8 0 10 -99865 -228856 -228856 -1 256;
#X obj 1051 102 route 1 2 3 4 5;
#X obj 1120 357 change;
#X obj 2109 240 tgl 15 0 empty empty empty 17 7 0 10 -262144 -1 -1
1 1;
#X obj 2109 284 send camomile;
#X floatatom 2196 218 5 0 0 0 - - -;
#X obj 2109 192 t b f b;
#X obj 2148 218 del 10;
#X obj 2109 168 r \$0-wetdry;
#X msg 2196 238 param set 5 \$1;
#X msg 2109 260 param change 5 \$1;
#X obj 557 79 throw~ dryL;
#X obj 830 80 throw~ dryR;
#X obj 823 676 r \$0-wetdry;
#X obj 823 699 + 1;
#X obj 823 722 / 2;
#X msg 823 745 \$1 20;
#X obj 823 768 vline~;
#X obj 921 698 r \$0-wetdry;
#X obj 921 721 * -1;
#X obj 921 744 + 1;
#X obj 921 767 / 2;
#X msg 921 790 \$1 20;
#X obj 921 813 vline~;
#X obj 808 790 *~;
#X obj 907 838 *~;
#X obj 1120 379 s \$0-setwetdry;
#X obj 908 676 catch~ dryR;
#X obj 548 676 r \$0-wetdry;
#X obj 548 699 + 1;
#X obj 548 722 / 2;
#X msg 548 745 \$1 20;
#X obj 548 768 vline~;
#X obj 646 698 r \$0-wetdry;
#X obj 646 721 * -1;
#X obj 646 744 + 1;
#X obj 646 767 / 2;
#X msg 646 790 \$1 20;
#X obj 646 813 vline~;
#X obj 533 790 *~;
#X obj 632 838 *~;
#X obj 633 676 catch~ dryL;
#X connect 0 0 3 0;
#X connect 0 0 38 0;
#X connect 1 0 0 1;
#X connect 3 0 14 0;
#X connect 4 0 3 1;
#X connect 5 0 4 0;
#X connect 7 0 1 0;
#X connect 8 0 159 0;
#X connect 9 0 8 1;
#X connect 10 0 9 0;
#X connect 12 0 7 0;
#X connect 13 0 0 0;
#X connect 15 0 5 0;
#X connect 16 0 10 0;
#X connect 17 0 19 0;
#X connect 17 0 46 0;
#X connect 18 0 17 1;
#X connect 19 0 30 0;
#X connect 20 0 19 1;
#X connect 21 0 20 0;
#X connect 22 0 18 0;
#X connect 23 0 144 0;
#X connect 24 0 23 1;
#X connect 25 0 24 0;
#X connect 26 0 22 0;
#X connect 27 0 21 0;
#X connect 28 0 25 0;
#X connect 29 0 17 0;
#X connect 31 0 36 0;
#X connect 33 0 114 0;
#X connect 36 0 37 0;
#X connect 37 0 32 0;
#X connect 38 0 8 0;
#X connect 39 0 40 0;
#X connect 39 0 45 1;
#X connect 40 0 38 1;
#X connect 41 0 40 1;
#X connect 41 0 43 0;
#X connect 43 0 45 0;
#X connect 43 1 44 0;
#X connect 44 0 38 1;
#X connect 45 0 38 1;
#X connect 46 0 23 0;
#X connect 47 0 48 0;
#X connect 47 0 52 1;
#X connect 48 0 46 1;
#X connect 49 0 48 1;
#X connect 49 0 50 0;
#X connect 50 0 52 0;
#X connect 50 1 51 0;
#X connect 51 0 46 1;
#X connect 52 0 46 1;
#X connect 53 0 0 0;
#X connect 54 0 55 0;
#X connect 54 0 59 1;
#X connect 55 0 53 1;
#X connect 56 0 55 1;
#X connect 56 0 57 0;
#X connect 57 0 59 0;
#X connect 57 1 58 0;
#X connect 58 0 53 1;
#X connect 59 0 53 1;
#X connect 60 0 17 0;
#X connect 61 0 62 0;
#X connect 61 0 66 1;
#X connect 62 0 60 1;
#X connect 63 0 62 1;
#X connect 63 0 64 0;
#X connect 64 0 66 0;
#X connect 64 1 65 0;
#X connect 65 0 60 1;
#X connect 66 0 60 1;
#X connect 67 0 53 0;
#X connect 67 0 131 0;
#X connect 68 0 60 0;
#X connect 68 0 132 0;
#X connect 71 0 121 0;
#X connect 72 0 76 0;
#X connect 73 0 78 0;
#X connect 74 0 34 0;
#X connect 75 0 35 0;
#X connect 78 0 79 0;
#X connect 79 0 77 0;
#X connect 80 0 82 0;
#X connect 81 0 80 0;
#X connect 83 0 86 0;
#X connect 84 0 82 0;
#X connect 85 0 84 0;
#X connect 86 0 81 0;
#X connect 86 1 85 0;
#X connect 86 2 88 0;
#X connect 87 0 112 0;
#X connect 88 0 81 0;
#X connect 89 0 94 0;
#X connect 91 0 95 0;
#X connect 92 0 89 0;
#X connect 92 1 91 0;
#X connect 92 2 93 0;
#X connect 93 0 89 0;
#X connect 94 0 90 0;
#X connect 95 0 90 0;
#X connect 96 0 108 0;
#X connect 98 0 107 0;
#X connect 99 0 96 0;
#X connect 99 1 98 0;
#X connect 99 2 100 0;
#X connect 100 0 96 0;
#X connect 101 0 110 0;
#X connect 103 0 109 0;
#X connect 104 0 101 0;
#X connect 104 1 103 0;
#X connect 104 2 105 0;
#X connect 105 0 101 0;
#X connect 106 0 99 0;
#X connect 107 0 97 0;
#X connect 108 0 97 0;
#X connect 109 0 102 0;
#X connect 110 0 102 0;
#X connect 111 0 104 0;
#X connect 112 0 113 0;
#X connect 113 0 92 0;
#X connect 114 0 115 0;
#X connect 121 0 72 0;
#X connect 121 1 73 0;
#X connect 121 2 74 0;
#X connect 121 3 75 0;
#X connect 121 4 122 0;
#X connect 122 0 146 0;
#X connect 123 0 130 0;
#X connect 125 0 129 0;
#X connect 126 0 123 0;
#X connect 126 1 125 0;
#X connect 126 2 127 0;
#X connect 127 0 123 0;
#X connect 128 0 126 0;
#X connect 129 0 124 0;
#X connect 130 0 124 0;
#X connect 133 0 134 0;
#X connect 134 0 135 0;
#X connect 135 0 136 0;
#X connect 136 0 137 0;
#X connect 137 0 144 1;
#X connect 138 0 139 0;
#X connect 139 0 140 0;
#X connect 140 0 141 0;
#X connect 141 0 142 0;
#X connect 142 0 143 0;
#X connect 143 0 145 1;
#X connect 144 0 70 0;
#X connect 145 0 70 0;
#X connect 147 0 145 0;
#X connect 148 0 149 0;
#X connect 149 0 150 0;
#X connect 150 0 151 0;
#X connect 151 0 152 0;
#X connect 152 0 159 1;
#X connect 153 0 154 0;
#X connect 154 0 155 0;
#X connect 155 0 156 0;
#X connect 156 0 157 0;
#X connect 157 0 158 0;
#X connect 158 0 160 1;
#X connect 159 0 69 0;
#X connect 160 0 69 0;
#X connect 161 0 160 0;
#X coords 0 -1 1 1 215 270 1 100 100;
