#N canvas 508 42 1690 918 10;
#X obj 547 733 samphold~;
#X obj 599 707 phasor~ 1000;
#X obj 173 224 hsl 128 15 500 50000 1 0 \$0-cutoffslider-s \$0-cutoffslider-r
empty -2 -8 0 10 -95835 -228593 -1 0 1;
#X obj 568 827 *~;
#X obj 583 808 vline~;
#X msg 583 787 \$1 20;
#X obj 173 262 hsl 128 15 0 1 0 0 \$0-resonanceslider-s \$0-resonanceslider-r
empty -2 -8 0 10 -95835 -228593 -228856 0 1;
#X obj 614 659 - 500;
#X obj 546 1109 *~;
#X obj 561 1090 vline~;
#X msg 561 1069 \$1 20;
#X obj 173 300 hsl 128 15 0 1 0 0 \$0-outputgainslider-s \$0-outputgainslider-r
empty -2 -8 0 10 -95835 -228593 -1 0 1;
#X obj 614 637 r \$0-cutoff;
#X obj 591 591 r~ \$0-feedbackL;
#X obj 568 848 send~ \$0-feedbackL;
#X obj 583 764 r \$0-resonance;
#X obj 561 1044 r \$0-outputgain;
#X obj 822 731 samphold~;
#X obj 874 705 phasor~ 1000;
#X obj 842 825 *~;
#X obj 857 806 vline~;
#X msg 857 785 \$1 20;
#X obj 889 661 - 500;
#X obj 821 1107 *~;
#X obj 836 1088 vline~;
#X msg 836 1067 \$1 20;
#X obj 889 639 r \$0-cutoff;
#X obj 857 762 r \$0-resonance;
#X obj 836 1042 r \$0-outputgain;
#X obj 861 588 r~ \$0-feedbackR;
#X obj 842 846 send~ \$0-feedbackR;
#X obj 107 403 r \$0-cutoff;
#X obj 107 469 s \$0-cutofffreq;
#X obj 102 503 loadbang;
#X obj 107 426 - 500;
#X obj 107 449 / 2;
#X obj 547 1021 lop~;
#X obj 568 994 spigot;
#X obj 601 947 r \$0-antialiasing;
#X obj 170 186 tgl 15 0 \$0-antialiasingtoggle-s \$0-antialiasingtoggle-r
empty 17 7 0 10 -95835 -228593 -228856 0 1;
#X obj 614 971 sel 1;
#X msg 641 994 30000;
#X obj 614 994 f;
#X obj 821 1019 lop~;
#X obj 842 992 spigot;
#X obj 875 945 r \$0-antialiasing;
#X obj 888 969 sel 1;
#X msg 915 992 30000;
#X obj 888 992 f;
#X obj 547 589 lop~;
#X obj 583 469 r \$0-cutofffreq;
#X obj 568 562 spigot;
#X obj 601 515 r \$0-antialiasing;
#X obj 614 539 sel 1;
#X msg 641 562 30000;
#X obj 614 562 f;
#X obj 821 588 lop~;
#X obj 842 561 spigot;
#X obj 875 514 r \$0-antialiasing;
#X obj 888 538 sel 1;
#X msg 915 561 30000;
#X obj 888 561 f;
#X obj 547 391 adc~ 1;
#X obj 822 396 adc~ 2;
#X obj 545 1323 dac~ 1;
#X obj 820 1328 dac~ 2;
#X msg 102 526 0;
#X obj 102 549 s \$0-antialiasing;
#X obj 308 224 nbx 5 15 -1e+037 1e+037 0 0 empty \$0-cutofffreq empty
0 -8 0 10 -95835 -228593 -228856 0 256;
#X obj 308 262 nbx 5 15 -1e+037 1e+037 0 0 empty \$0-resonance empty
0 -8 0 10 -95835 -228593 -228856 0 256;
#X obj 308 300 nbx 5 15 -1e+037 1e+037 0 0 empty \$0-outputgain empty
0 -8 0 10 -95835 -228593 -228856 0 256;
#X obj 639 300 hsl 128 15 -1 1 0 0 \$0-wetdryslider-s \$0-wetdryslider-r
empty -2 -8 0 10 -112933 -62482 -1 0 1;
#X obj 774 300 nbx 5 15 -1e+037 1e+037 0 0 empty \$0-wetdry empty 0
-8 0 10 -112933 -62482 -228856 0 256;
#X obj 835 1131 r \$0-wetdry;
#X obj 835 1154 + 1;
#X obj 835 1177 / 2;
#X msg 835 1200 \$1 20;
#X obj 835 1223 vline~;
#X obj 933 1153 r \$0-wetdry;
#X obj 933 1176 * -1;
#X obj 933 1199 + 1;
#X obj 933 1222 / 2;
#X msg 933 1245 \$1 20;
#X obj 933 1268 vline~;
#X obj 820 1245 *~;
#X obj 919 1293 *~;
#X obj 560 1132 r \$0-wetdry;
#X obj 560 1155 + 1;
#X obj 560 1178 / 2;
#X msg 560 1201 \$1 20;
#X obj 560 1224 vline~;
#X obj 658 1154 r \$0-wetdry;
#X obj 658 1177 * -1;
#X obj 658 1200 + 1;
#X obj 658 1223 / 2;
#X msg 658 1246 \$1 20;
#X obj 658 1269 vline~;
#X obj 545 1246 *~;
#X obj 644 1294 *~;
#X obj 1180 91 r gui;
#X obj 1180 113 route mouse;
#X obj 1127 347 s camomile;
#X obj 1127 290 pack f f, f 22;
#X msg 1127 323 param change \$1 \$2;
#X obj 1226 207 t b f, f 8;
#X obj 1180 179 t b f, f 14;
#N canvas 3 116 156 140 one.time.1 0;
#X obj 15 62 spigot 1;
#X obj 15 84 t f b, f 8;
#X obj 78 84 f 0;
#X obj 15 19 inlet;
#X obj 68 19 inlet;
#X obj 15 106 outlet;
#X obj 68 41 f 1;
#X connect 0 0 1 0;
#X connect 1 0 5 0;
#X connect 1 1 2 0;
#X connect 2 0 0 1;
#X connect 3 0 0 0;
#X connect 4 0 6 0;
#X connect 6 0 0 1;
#X restore 1127 207 pd one.time.1;
#N canvas 3 116 156 140 one.time.0 0;
#X obj 89 69 f 0;
#X obj 15 19 inlet;
#X obj 68 19 inlet;
#X obj 15 106 outlet;
#X obj 68 41 f 1;
#X obj 15 62 spigot 0;
#X obj 15 84 t b b, f 8;
#X connect 0 0 5 1;
#X connect 1 0 5 0;
#X connect 2 0 4 0;
#X connect 4 0 5 1;
#X connect 5 0 6 0;
#X connect 6 0 3 0;
#X connect 6 1 0 0;
#X restore 1127 262 pd one.time.0;
#X obj 1127 231 t b f;
#X msg 1226 159 0;
#X obj 1127 66 r camo.param.change;
#X obj 1180 135 sel 1, f 7;
#X msg 1180 157 1;
#X obj 1137 480 param.set 1;
#X obj 1081 407 param.get 1;
#X obj 1081 433 t f f;
#X msg 1081 532 set \$1;
#X obj 1290 433 t f f;
#X msg 1290 532 set \$1;
#X obj 1290 364 param.get 2;
#X obj 1498 436 t f f;
#X msg 1498 535 set \$1;
#X obj 1080 631 t f f;
#X msg 1080 730 set \$1;
#X obj 1498 410 param.get 3;
#X obj 1347 502 param.set 2;
#X obj 1554 483 param.set 3;
#X obj 1080 605 param.get 4;
#X obj 1136 678 param.set 4;
#X obj 1296 628 t f f;
#X msg 1296 727 set \$1;
#X obj 1296 602 param.get 5;
#X obj 1352 675 param.set 5;
#X obj 1127 457 r \$0-antialiasingtoggle-s;
#X obj 1127 506 s \$0-antialiasing;
#X obj 1081 555 s \$0-antialiasingtoggle-r;
#X obj 1336 432 r \$0-cutoffslider-s;
#X obj 1336 527 s \$0-cutoff;
#X obj 1290 555 s \$0-cutoffslider-r;
#X obj 1544 460 r \$0-resonanceslider-s;
#X obj 1544 509 s \$0-resonance;
#X obj 1498 558 s \$0-resonanceslider-r;
#X obj 1126 655 r \$0-outputgainslider-s;
#X obj 1126 704 s \$0-outputgain;
#X obj 1080 753 s \$0-outputgainslider-r;
#X obj 1342 652 r \$0-wetdryslider-s;
#X obj 1342 701 s \$0-wetdry;
#X obj 1296 750 s \$0-wetdryslider-r;
#X obj 1290 387 * 2;
#X obj 1290 410 + 500;
#X obj 1347 457 - 500;
#X obj 1347 480 / 2;
#X obj 331 576 snapshot~;
#X obj 344 530 tgl 15 0 empty empty empty 17 7 0 10 -262144 -1 -1 1
1;
#X obj 344 550 metro 20;
#X floatatom 331 599 5 0 0 0 - - -;
#X floatatom 331 732 7 0 0 0 - - -;
#X obj 344 507 loadbang;
#X obj 599 684 +;
#X obj 331 646 *;
#X obj 874 682 +;
#X obj 330 484 osc~ 0.1;
#X obj 599 615 r \$0-lfo;
#X obj 874 616 r \$0-lfo;
#X obj 568 493 +;
#X obj 627 682 t b;
#X obj 901 683 t b;
#X obj 596 493 t b;
#X obj 857 468 r \$0-cutofffreq;
#X obj 842 492 +;
#X obj 870 492 t b;
#X obj 583 899 r \$0-cutofffreq;
#X obj 568 923 +;
#X obj 596 923 t b;
#X obj 857 898 r \$0-cutofffreq;
#X obj 842 922 +;
#X obj 870 922 t b;
#X obj 331 800 s \$0-lfo;
#X obj 342 776 s \$0-half-lfo;
#X obj 342 755 / 2;
#X obj 568 445 r \$0-half-lfo;
#X obj 842 444 r \$0-half-lfo;
#X obj 842 874 r \$0-half-lfo;
#X obj 568 875 r \$0-half-lfo;
#X obj 331 709 *;
#X obj 346 668 r \$0-lfoamount;
#X obj 406 224 hsl 128 15 0.04 4 1 0 \$0-lfoamount-s \$0-lfoamount-r
empty -2 -8 0 10 -95835 -228593 -1 0 1;
#X obj 541 224 nbx 5 15 -1e+037 1e+037 0 0 empty \$0-lfoamount empty
0 -8 0 10 -95835 -228593 -228856 0 256;
#X obj 1504 629 t f f;
#X msg 1504 728 set \$1;
#X obj 1504 603 param.get 6;
#X obj 1560 676 param.set 6;
#X obj 1550 653 r \$0-lfoamount-s;
#X obj 1550 702 s \$0-lfoamount;
#X obj 1504 751 s \$0-lfoamount-r;
#X obj 1078 821 t f f;
#X msg 1078 920 set \$1;
#X obj 1124 845 r \$0-lfospeed-s;
#X obj 1124 894 s \$0-lfospeed;
#X obj 1078 943 s \$0-lfospeed-r;
#X obj 406 262 hsl 128 15 0.001 50 1 0 \$0-lfospeed-s \$0-lfospeed-r
empty -2 -8 0 10 -95835 -228593 -1 0 1;
#X obj 541 262 nbx 5 15 -1e+037 1e+037 0 0 empty \$0-lfospeed empty
0 -8 0 10 -95835 -228593 -228856 0 256;
#X obj 330 461 r \$0-lfospeed;
#X obj 1078 795 param.get 7;
#X obj 1134 868 param.set 7;
#X obj 331 623 * 100;
#X obj 346 688 - 0.04;
#X obj 842 420 s~ \$0-dryR;
#X obj 569 419 s~ \$0-dryL;
#X obj 645 1132 r~ \$0-dryL;
#X obj 920 1131 r~ \$0-dryR;
#X obj 224 456 r~ \$0-dryL;
#X obj 394 886 r~ \$0-dryR;
#X obj 225 576 *;
#X floatatom 225 598 5 0 0 0 - - -;
#X obj 225 742 *;
#X obj 240 694 r \$0-envamount;
#X obj 279 766 +;
#X obj 1293 826 t f f;
#X msg 1293 925 set \$1;
#X obj 1293 800 param.get 8;
#X obj 1349 873 param.set 8;
#X obj 1339 850 r \$0-envamount-s;
#X obj 1339 899 s \$0-envamount;
#X obj 1293 948 s \$0-envamount-r;
#X obj 406 300 hsl 128 15 0 1 0 0 \$0-envamount-s \$0-envamount-r empty
-2 -8 0 10 -95835 -228593 -1 0 1;
#X obj 541 300 nbx 5 15 -1e+037 1e+037 0 0 empty \$0-envamount empty
0 -8 0 10 -95835 -228593 -228856 0 256;
#X obj 225 551 env~ 8192;
#X obj 225 648 line;
#X floatatom 225 671 5 0 0 0 - - -;
#X msg 226 623 \$1 100;
#X obj 243 501 r~ \$0-dryR;
#X obj 224 479 *~ 0.5;
#X obj 243 524 *~ 0.5;
#X connect 0 0 3 0;
#X connect 0 0 36 0;
#X connect 1 0 0 1;
#X connect 3 0 14 0;
#X connect 4 0 3 1;
#X connect 5 0 4 0;
#X connect 7 0 165 0;
#X connect 7 0 158 1;
#X connect 8 0 97 0;
#X connect 9 0 8 1;
#X connect 10 0 9 0;
#X connect 12 0 7 0;
#X connect 13 0 0 0;
#X connect 15 0 5 0;
#X connect 16 0 10 0;
#X connect 17 0 19 0;
#X connect 17 0 43 0;
#X connect 18 0 17 1;
#X connect 19 0 30 0;
#X connect 20 0 19 1;
#X connect 21 0 20 0;
#X connect 22 0 160 1;
#X connect 22 0 166 0;
#X connect 23 0 84 0;
#X connect 24 0 23 1;
#X connect 25 0 24 0;
#X connect 26 0 22 0;
#X connect 27 0 21 0;
#X connect 28 0 25 0;
#X connect 29 0 17 0;
#X connect 31 0 34 0;
#X connect 33 0 66 0;
#X connect 34 0 35 0;
#X connect 35 0 32 0;
#X connect 36 0 8 0;
#X connect 37 0 36 1;
#X connect 38 0 37 1;
#X connect 38 0 40 0;
#X connect 40 0 42 0;
#X connect 40 1 41 0;
#X connect 41 0 36 1;
#X connect 42 0 36 1;
#X connect 43 0 23 0;
#X connect 44 0 43 1;
#X connect 45 0 44 1;
#X connect 45 0 46 0;
#X connect 46 0 48 0;
#X connect 46 1 47 0;
#X connect 47 0 43 1;
#X connect 48 0 43 1;
#X connect 49 0 0 0;
#X connect 50 0 164 1;
#X connect 50 0 167 0;
#X connect 51 0 49 1;
#X connect 52 0 51 1;
#X connect 52 0 53 0;
#X connect 53 0 55 0;
#X connect 53 1 54 0;
#X connect 54 0 49 1;
#X connect 55 0 49 1;
#X connect 56 0 17 0;
#X connect 57 0 56 1;
#X connect 58 0 57 1;
#X connect 58 0 59 0;
#X connect 59 0 61 0;
#X connect 59 1 60 0;
#X connect 60 0 56 1;
#X connect 61 0 56 1;
#X connect 62 0 49 0;
#X connect 62 0 208 0;
#X connect 63 0 56 0;
#X connect 63 0 207 0;
#X connect 66 0 67 0;
#X connect 73 0 74 0;
#X connect 74 0 75 0;
#X connect 75 0 76 0;
#X connect 76 0 77 0;
#X connect 77 0 84 1;
#X connect 78 0 79 0;
#X connect 79 0 80 0;
#X connect 80 0 81 0;
#X connect 81 0 82 0;
#X connect 82 0 83 0;
#X connect 83 0 85 1;
#X connect 84 0 65 0;
#X connect 85 0 65 0;
#X connect 86 0 87 0;
#X connect 87 0 88 0;
#X connect 88 0 89 0;
#X connect 89 0 90 0;
#X connect 90 0 97 1;
#X connect 91 0 92 0;
#X connect 92 0 93 0;
#X connect 93 0 94 0;
#X connect 94 0 95 0;
#X connect 95 0 96 0;
#X connect 96 0 98 1;
#X connect 97 0 64 0;
#X connect 98 0 64 0;
#X connect 99 0 100 0;
#X connect 100 0 111 0;
#X connect 102 0 103 0;
#X connect 103 0 101 0;
#X connect 104 0 107 0;
#X connect 104 1 102 1;
#X connect 105 0 106 1;
#X connect 105 1 102 1;
#X connect 106 0 108 0;
#X connect 107 0 102 0;
#X connect 108 0 107 1;
#X connect 108 1 102 0;
#X connect 109 0 104 0;
#X connect 110 0 106 0;
#X connect 111 0 112 0;
#X connect 111 1 109 0;
#X connect 112 0 105 0;
#X connect 114 0 115 0;
#X connect 115 0 116 0;
#X connect 115 1 134 0;
#X connect 116 0 135 0;
#X connect 117 0 118 0;
#X connect 117 1 137 0;
#X connect 118 0 138 0;
#X connect 119 0 148 0;
#X connect 120 0 121 0;
#X connect 120 1 140 0;
#X connect 121 0 141 0;
#X connect 122 0 123 0;
#X connect 122 1 143 0;
#X connect 123 0 144 0;
#X connect 124 0 120 0;
#X connect 127 0 122 0;
#X connect 129 0 130 0;
#X connect 129 1 146 0;
#X connect 130 0 147 0;
#X connect 131 0 129 0;
#X connect 133 0 113 0;
#X connect 133 0 134 0;
#X connect 136 0 137 0;
#X connect 136 0 150 0;
#X connect 139 0 126 0;
#X connect 139 0 140 0;
#X connect 142 0 128 0;
#X connect 142 0 143 0;
#X connect 145 0 132 0;
#X connect 145 0 146 0;
#X connect 148 0 149 0;
#X connect 149 0 117 0;
#X connect 150 0 151 0;
#X connect 151 0 125 0;
#X connect 152 0 155 0;
#X connect 153 0 154 0;
#X connect 154 0 152 0;
#X connect 155 0 205 0;
#X connect 156 0 217 1;
#X connect 157 0 153 0;
#X connect 158 0 1 0;
#X connect 159 0 184 0;
#X connect 160 0 18 0;
#X connect 161 0 152 0;
#X connect 162 0 158 0;
#X connect 163 0 160 0;
#X connect 164 0 55 1;
#X connect 164 0 51 0;
#X connect 165 0 158 0;
#X connect 166 0 160 0;
#X connect 167 0 164 0;
#X connect 168 0 169 1;
#X connect 168 0 170 0;
#X connect 169 0 57 0;
#X connect 169 0 61 1;
#X connect 170 0 169 0;
#X connect 171 0 172 1;
#X connect 171 0 173 0;
#X connect 172 0 37 0;
#X connect 173 0 172 0;
#X connect 174 0 175 1;
#X connect 174 0 176 0;
#X connect 175 0 44 0;
#X connect 176 0 175 0;
#X connect 179 0 178 0;
#X connect 180 0 164 0;
#X connect 181 0 169 0;
#X connect 182 0 175 0;
#X connect 183 0 172 0;
#X connect 184 0 156 0;
#X connect 185 0 206 0;
#X connect 188 0 189 0;
#X connect 188 1 193 0;
#X connect 189 0 194 0;
#X connect 190 0 188 0;
#X connect 192 0 191 0;
#X connect 192 0 193 0;
#X connect 195 0 196 0;
#X connect 195 1 198 0;
#X connect 196 0 199 0;
#X connect 197 0 198 0;
#X connect 197 0 204 0;
#X connect 202 0 161 0;
#X connect 203 0 195 0;
#X connect 205 0 159 0;
#X connect 205 0 159 1;
#X connect 206 0 184 1;
#X connect 209 0 98 0;
#X connect 210 0 85 0;
#X connect 211 0 232 0;
#X connect 213 0 214 0;
#X connect 214 0 230 0;
#X connect 215 0 217 0;
#X connect 216 0 215 1;
#X connect 217 0 177 0;
#X connect 217 0 179 0;
#X connect 218 0 219 0;
#X connect 218 1 223 0;
#X connect 219 0 224 0;
#X connect 220 0 218 0;
#X connect 222 0 221 0;
#X connect 222 0 223 0;
#X connect 227 0 213 0;
#X connect 227 0 213 1;
#X connect 228 0 229 0;
#X connect 229 0 215 0;
#X connect 230 0 228 0;
#X connect 231 0 233 0;
#X connect 232 0 227 0;
#X connect 233 0 227 0;
#X coords 0 -1 1 1 800 240 1 100 100;
