#N canvas 21 28 1690 918 10;
#X obj 547 669 samphold~;
#X obj 599 643 phasor~ 1000;
#X obj 162 212 hsl 128 15 500 50000 1 0 \$0-cutoffslider-s \$0-cutoffslider-r
empty -2 -8 0 10 -99865 -228856 -1 0 1;
#X obj 568 763 *~;
#X obj 583 744 vline~;
#X msg 583 723 \$1 20;
#X obj 404 173 hsl 128 15 0 1 0 0 \$0-resonanceslider-s \$0-resonanceslider-r
empty -2 -8 0 10 -99865 -228856 -228856 0 1;
#X obj 599 619 - 500;
#X obj 546 993 *~;
#X obj 561 974 vline~;
#X msg 561 953 \$1 20;
#X obj 404 212 hsl 128 15 0 1 0 0 \$0-outputgainslider-s \$0-outputgainslider-r
empty -2 -8 0 10 -99865 -228856 -1 0 1;
#X obj 599 597 r \$0-cutoff;
#X obj 571 567 r~ \$0-feedbackL;
#X obj 568 784 send~ \$0-feedbackL;
#X obj 583 700 r \$0-resonance;
#X obj 561 928 r \$0-outputgain;
#X obj 822 668 samphold~;
#X obj 874 642 phasor~ 1000;
#X obj 842 762 *~;
#X obj 857 743 vline~;
#X msg 857 722 \$1 20;
#X obj 874 618 - 500;
#X obj 821 992 *~;
#X obj 836 973 vline~;
#X msg 836 952 \$1 20;
#X obj 874 596 r \$0-cutoff;
#X obj 857 699 r \$0-resonance;
#X obj 836 927 r \$0-outputgain;
#X obj 846 566 r~ \$0-feedbackR;
#X obj 842 783 send~ \$0-feedbackR;
#X obj 107 403 r \$0-cutoff;
#X obj 107 469 s \$0-cutofffreq;
#X obj 102 503 loadbang;
#X obj 107 426 - 500;
#X obj 107 449 / 2;
#X obj 547 905 lop~;
#X obj 568 808 r \$0-cutofffreq;
#X obj 568 878 spigot;
#X obj 601 831 r \$0-antialiasing;
#X obj 160 173 tgl 15 0 \$0-antialiasingtoggle-s \$0-antialiasingtoggle-r
empty 17 7 0 10 -99865 -228856 -228856 0 1;
#X obj 614 855 sel 1;
#X msg 641 878 30000;
#X obj 614 878 f;
#X obj 821 904 lop~;
#X obj 842 807 r \$0-cutofffreq;
#X obj 842 877 spigot;
#X obj 875 830 r \$0-antialiasing;
#X obj 888 854 sel 1;
#X msg 915 877 30000;
#X obj 888 877 f;
#X obj 547 542 lop~;
#X obj 568 445 r \$0-cutofffreq;
#X obj 568 515 spigot;
#X obj 601 468 r \$0-antialiasing;
#X obj 614 492 sel 1;
#X msg 641 515 30000;
#X obj 614 515 f;
#X obj 821 541 lop~;
#X obj 842 444 r \$0-cutofffreq;
#X obj 842 514 spigot;
#X obj 875 467 r \$0-antialiasing;
#X obj 888 491 sel 1;
#X msg 915 514 30000;
#X obj 888 514 f;
#X obj 547 391 adc~ 1;
#X obj 822 396 adc~ 2;
#X obj 545 1207 dac~ 1;
#X obj 820 1213 dac~ 2;
#X msg 102 526 0;
#X obj 102 549 s \$0-antialiasing;
#X obj 297 212 nbx 5 15 -1e+037 1e+037 0 0 empty \$0-cutofffreq empty
0 -8 0 10 -99865 -228856 -228856 0 256;
#X obj 539 173 nbx 5 15 -1e+037 1e+037 0 0 empty \$0-resonance empty
0 -8 0 10 -99865 -228856 -228856 0 256;
#X obj 538 212 nbx 5 15 -1e+037 1e+037 0 0 empty \$0-outputgain empty
0 -8 0 10 -99865 -228856 -228856 0 256;
#X obj 647 212 hsl 128 15 -1 1 0 0 \$0-wetdryslider-s \$0-wetdryslider-r
empty -2 -8 0 10 -99865 -228856 -1 0 1;
#X obj 781 212 nbx 5 15 -1e+037 1e+037 0 0 empty \$0-wetdry empty 0
-8 0 10 -99865 -228856 -228856 0 256;
#X obj 835 1016 r \$0-wetdry;
#X obj 835 1039 + 1;
#X obj 835 1062 / 2;
#X msg 835 1085 \$1 20;
#X obj 835 1108 vline~;
#X obj 933 1038 r \$0-wetdry;
#X obj 933 1061 * -1;
#X obj 933 1084 + 1;
#X obj 933 1107 / 2;
#X msg 933 1130 \$1 20;
#X obj 933 1153 vline~;
#X obj 820 1130 *~;
#X obj 919 1178 *~;
#X obj 560 1016 r \$0-wetdry;
#X obj 560 1039 + 1;
#X obj 560 1062 / 2;
#X msg 560 1085 \$1 20;
#X obj 560 1108 vline~;
#X obj 658 1038 r \$0-wetdry;
#X obj 658 1061 * -1;
#X obj 658 1084 + 1;
#X obj 658 1107 / 2;
#X msg 658 1130 \$1 20;
#X obj 658 1153 vline~;
#X obj 545 1130 *~;
#X obj 644 1178 *~;
#X obj 569 419 throw~ \$0-dryL;
#X obj 842 420 throw~ \$0-dryR;
#X obj 645 1016 catch~ \$0-dryL;
#X obj 920 1016 catch~ \$0-dryR;
#X obj 1180 91 r gui;
#X obj 1180 113 route mouse;
#X obj 1127 347 s camomile;
#X obj 1127 290 pack f f, f 22;
#X msg 1127 323 param change \$1 \$2;
#X obj 1226 207 t b f, f 8;
#X obj 1180 179 t b f, f 14;
#N canvas 3 116 156 140 one.time.1 0;
#X obj 15 62 spigot 1;
#X obj 15 84 t f b, f 8;
#X obj 78 84 f 0;
#X obj 15 19 inlet;
#X obj 68 19 inlet;
#X obj 15 106 outlet;
#X obj 68 41 f 1;
#X connect 0 0 1 0;
#X connect 1 0 5 0;
#X connect 1 1 2 0;
#X connect 2 0 0 1;
#X connect 3 0 0 0;
#X connect 4 0 6 0;
#X connect 6 0 0 1;
#X restore 1127 207 pd one.time.1;
#N canvas 3 116 156 140 one.time.0 0;
#X obj 89 69 f 0;
#X obj 15 19 inlet;
#X obj 68 19 inlet;
#X obj 15 106 outlet;
#X obj 68 41 f 1;
#X obj 15 62 spigot 0;
#X obj 15 84 t b b, f 8;
#X connect 0 0 5 1;
#X connect 1 0 5 0;
#X connect 2 0 4 0;
#X connect 4 0 5 1;
#X connect 5 0 6 0;
#X connect 6 0 3 0;
#X connect 6 1 0 0;
#X restore 1127 262 pd one.time.0;
#X obj 1127 231 t b f;
#X msg 1226 159 0;
#X obj 1127 66 r camo.param.change;
#X obj 1180 135 sel 1, f 7;
#X msg 1180 157 1;
#X obj 1137 480 param.set 1;
#X obj 1081 407 param.get 1;
#X obj 1081 433 t f f;
#X msg 1081 532 set \$1;
#X obj 1290 433 t f f;
#X msg 1290 532 set \$1;
#X obj 1290 364 param.get 2;
#X obj 1498 436 t f f;
#X msg 1498 535 set \$1;
#X obj 1080 631 t f f;
#X msg 1080 730 set \$1;
#X obj 1498 410 param.get 3;
#X obj 1347 502 param.set 2;
#X obj 1554 483 param.set 3;
#X obj 1080 605 param.get 4;
#X obj 1136 678 param.set 4;
#X obj 1296 628 t f f;
#X msg 1296 727 set \$1;
#X obj 1296 602 param.get 5;
#X obj 1352 675 param.set 5;
#X obj 1127 457 r \$0-antialiasingtoggle-s;
#X obj 1127 506 s \$0-antialiasing;
#X obj 1081 555 s \$0-antialiasingtoggle-r;
#X obj 1336 432 r \$0-cutoffslider-s;
#X obj 1336 527 s \$0-cutoff;
#X obj 1290 555 s \$0-cutoffslider-r;
#X obj 1544 460 r \$0-resonanceslider-s;
#X obj 1544 509 s \$0-resonance;
#X obj 1498 558 s \$0-resonanceslider-r;
#X obj 1126 655 r \$0-outputgainslider-s;
#X obj 1126 704 s \$0-outputgain;
#X obj 1080 753 s \$0-outputgainslider-r;
#X obj 1342 652 r \$0-wetdryslider-s;
#X obj 1342 701 s \$0-wetdry;
#X obj 1296 750 s \$0-wetdryslider-r;
#X obj 1290 387 * 2;
#X obj 1290 410 + 500;
#X obj 1347 457 - 500;
#X obj 1347 480 / 2;
#X connect 0 0 3 0;
#X connect 0 0 36 0;
#X connect 1 0 0 1;
#X connect 3 0 14 0;
#X connect 4 0 3 1;
#X connect 5 0 4 0;
#X connect 7 0 1 0;
#X connect 8 0 100 0;
#X connect 9 0 8 1;
#X connect 10 0 9 0;
#X connect 12 0 7 0;
#X connect 13 0 0 0;
#X connect 15 0 5 0;
#X connect 16 0 10 0;
#X connect 17 0 19 0;
#X connect 17 0 44 0;
#X connect 18 0 17 1;
#X connect 19 0 30 0;
#X connect 20 0 19 1;
#X connect 21 0 20 0;
#X connect 22 0 18 0;
#X connect 23 0 87 0;
#X connect 24 0 23 1;
#X connect 25 0 24 0;
#X connect 26 0 22 0;
#X connect 27 0 21 0;
#X connect 28 0 25 0;
#X connect 29 0 17 0;
#X connect 31 0 34 0;
#X connect 33 0 69 0;
#X connect 34 0 35 0;
#X connect 35 0 32 0;
#X connect 36 0 8 0;
#X connect 37 0 38 0;
#X connect 37 0 43 1;
#X connect 38 0 36 1;
#X connect 39 0 38 1;
#X connect 39 0 41 0;
#X connect 41 0 43 0;
#X connect 41 1 42 0;
#X connect 42 0 36 1;
#X connect 43 0 36 1;
#X connect 44 0 23 0;
#X connect 45 0 46 0;
#X connect 45 0 50 1;
#X connect 46 0 44 1;
#X connect 47 0 46 1;
#X connect 47 0 48 0;
#X connect 48 0 50 0;
#X connect 48 1 49 0;
#X connect 49 0 44 1;
#X connect 50 0 44 1;
#X connect 51 0 0 0;
#X connect 52 0 53 0;
#X connect 52 0 57 1;
#X connect 53 0 51 1;
#X connect 54 0 53 1;
#X connect 54 0 55 0;
#X connect 55 0 57 0;
#X connect 55 1 56 0;
#X connect 56 0 51 1;
#X connect 57 0 51 1;
#X connect 58 0 17 0;
#X connect 59 0 60 0;
#X connect 59 0 64 1;
#X connect 60 0 58 1;
#X connect 61 0 60 1;
#X connect 61 0 62 0;
#X connect 62 0 64 0;
#X connect 62 1 63 0;
#X connect 63 0 58 1;
#X connect 64 0 58 1;
#X connect 65 0 51 0;
#X connect 65 0 102 0;
#X connect 66 0 58 0;
#X connect 66 0 103 0;
#X connect 69 0 70 0;
#X connect 76 0 77 0;
#X connect 77 0 78 0;
#X connect 78 0 79 0;
#X connect 79 0 80 0;
#X connect 80 0 87 1;
#X connect 81 0 82 0;
#X connect 82 0 83 0;
#X connect 83 0 84 0;
#X connect 84 0 85 0;
#X connect 85 0 86 0;
#X connect 86 0 88 1;
#X connect 87 0 68 0;
#X connect 88 0 68 0;
#X connect 89 0 90 0;
#X connect 90 0 91 0;
#X connect 91 0 92 0;
#X connect 92 0 93 0;
#X connect 93 0 100 1;
#X connect 94 0 95 0;
#X connect 95 0 96 0;
#X connect 96 0 97 0;
#X connect 97 0 98 0;
#X connect 98 0 99 0;
#X connect 99 0 101 1;
#X connect 100 0 67 0;
#X connect 101 0 67 0;
#X connect 104 0 101 0;
#X connect 105 0 88 0;
#X connect 106 0 107 0;
#X connect 107 0 118 0;
#X connect 109 0 110 0;
#X connect 110 0 108 0;
#X connect 111 0 114 0;
#X connect 111 1 109 1;
#X connect 112 0 113 1;
#X connect 112 1 109 1;
#X connect 113 0 115 0;
#X connect 114 0 109 0;
#X connect 115 0 114 1;
#X connect 115 1 109 0;
#X connect 116 0 111 0;
#X connect 117 0 113 0;
#X connect 118 0 119 0;
#X connect 118 1 116 0;
#X connect 119 0 112 0;
#X connect 121 0 122 0;
#X connect 122 0 123 0;
#X connect 122 1 141 0;
#X connect 123 0 142 0;
#X connect 124 0 125 0;
#X connect 124 1 144 0;
#X connect 125 0 145 0;
#X connect 126 0 155 0;
#X connect 127 0 128 0;
#X connect 127 1 147 0;
#X connect 128 0 148 0;
#X connect 129 0 130 0;
#X connect 129 1 150 0;
#X connect 130 0 151 0;
#X connect 131 0 127 0;
#X connect 134 0 129 0;
#X connect 136 0 137 0;
#X connect 136 1 153 0;
#X connect 137 0 154 0;
#X connect 138 0 136 0;
#X connect 140 0 120 0;
#X connect 140 0 141 0;
#X connect 143 0 144 0;
#X connect 143 0 157 0;
#X connect 146 0 133 0;
#X connect 146 0 147 0;
#X connect 149 0 135 0;
#X connect 149 0 150 0;
#X connect 152 0 139 0;
#X connect 152 0 153 0;
#X connect 155 0 156 0;
#X connect 156 0 124 0;
#X connect 157 0 158 0;
#X connect 158 0 132 0;
#X coords 0 -1 1 1 800 240 1 100 100;
