#N canvas 193 28 2278 970 12;
#X obj 920 559 verbguts;
#X obj 440 196 hsl 128 15 3 31 0 0 \$0-blocksizeslider-s \$0-blocksizeslider-r
empty -2 -8 0 10 -33289 -162280 -1 0 1;
#X obj 437 235 hradio 15 1 0 5 \$0-overlapradio-s \$0-overlapradio-r
empty 0 -8 0 10 -33289 -162280 -258112 4;
#X obj 72 441 sel 1 2 3 4;
#X msg 146 568 1;
#X msg 72 467 2;
#X msg 90 492 4;
#X msg 109 518 8;
#X msg 127 544 16;
#X floatatom 70 589 5 0 0 0 - - -;
#X obj 44 686 i;
#X floatatom 44 710 5 0 0 0 - - -;
#X obj 437 273 hradio 15 1 0 5 \$0-downsampleradio-s \$0-downsampleradio-r
empty 0 -8 0 10 -33289 -162280 -1 0;
#X obj 256 475 sel 1 2 3 4;
#X msg 330 602 1;
#X floatatom 266 635 5 0 0 0 - - -;
#X msg 256 501 0.8;
#X msg 274 526 0.6;
#X msg 293 552 0.4;
#X msg 311 578 0.2;
#X obj 132 744 pack f f f;
#X obj 172 699 t b;
#X obj 420 695 loadbang;
#X msg 420 819 0;
#X obj 420 749 del 100;
#X obj 669 157 hsl 128 15 100 700 0 0 \$0-densityslider-s \$0-densityslider-r
empty -2 -8 0 10 -33289 -162280 -1 0 1;
#X obj 669 196 hsl 128 15 0 1 0 0 \$0-decayslider-s \$0-decayslider-r
empty -2 -8 0 10 -33289 -162280 -1 0 1;
#X msg 655 759 0.5;
#X obj 973 534 r \$0-decay;
#X obj 955 509 r \$0-density;
#X obj 937 483 r \$0-bend;
#X obj 132 770 s \$0-bend;
#X obj 565 677 s \$0-setdensity;
#X obj 655 785 s \$0-setdecay;
#X obj 436 845 s \$0-setoverlap;
#X obj 72 416 r \$0-overlap;
#X obj 420 870 s \$0-setdownsample;
#X obj 256 451 r \$0-downsample;
#X obj 44 660 r \$0-blocksize;
#X obj 473 815 s \$0-setblocksize;
#X obj 920 884 dac~ 1;
#X obj 1195 890 dac~ 2;
#X obj 669 273 hsl 128 15 -1 1 0 0 \$0-wetdryslider-s \$0-wetdryslider-r
empty -2 -8 0 10 -33289 -162280 -1 0 1;
#X obj 803 273 nbx 5 15 -1e+037 1e+037 0 0 empty \$0-wetdry empty 0
-8 0 10 -16645 -258112 -228856 0 256;
#X obj 1210 693 r \$0-wetdry;
#X obj 1210 716 + 1;
#X obj 1210 739 / 2;
#X msg 1210 762 \$1 20;
#X obj 1210 785 vline~;
#X obj 1308 715 r \$0-wetdry;
#X obj 1308 738 * -1;
#X obj 1308 761 + 1;
#X obj 1308 784 / 2;
#X msg 1308 807 \$1 20;
#X obj 1308 830 vline~;
#X obj 1195 807 *~;
#X obj 1294 855 *~;
#X obj 935 693 r \$0-wetdry;
#X obj 935 716 + 1;
#X obj 935 739 / 2;
#X msg 935 762 \$1 20;
#X obj 935 785 vline~;
#X obj 1033 715 r \$0-wetdry;
#X obj 1033 738 * -1;
#X obj 1033 761 + 1;
#X obj 1033 784 / 2;
#X msg 1033 807 \$1 20;
#X obj 1033 830 vline~;
#X obj 920 807 *~;
#X obj 1019 855 *~;
#X msg 657 834 1;
#X obj 657 860 s \$0-setwetdry;
#X obj 920 424 adc~ 1;
#X obj 1197 430 adc~ 2;
#X obj 935 453 throw~ \$0-dryL;
#X obj 1215 459 throw~ \$0-dryR;
#X obj 1197 561 verbguts;
#X obj 1250 536 r \$0-decay;
#X obj 1232 511 r \$0-density;
#X obj 1214 485 r \$0-bend;
#X obj 1020 693 catch~ \$0-dryL;
#X obj 1294 691 catch~ \$0-dryR;
#X obj 973 584 *~ 0.2;
#X obj 1196 592 *~ 0.2;
#X obj 44 735 moses 31;
#X floatatom 18 770 5 0 0 0 - - -;
#X floatatom 87 775 5 0 0 0 - - -;
#X obj 87 800 t b;
#X msg 87 826 64;
#X msg 473 789 31;
#X obj 516 273 nbx 5 15 -1e+037 1e+037 0 0 empty \$0-actualdownsample
empty 0 -8 0 10 -16645 -258112 -1 0 256;
#X obj 516 235 nbx 5 15 -1e+037 1e+037 0 0 empty \$0-actualoverlap
empty 0 -8 0 10 -16645 -258112 -1 0 256;
#X obj 575 196 nbx 5 15 -1e+037 1e+037 0 0 empty \$0-actualblocksize
empty 0 -8 0 10 -16645 -258112 -1 0 256;
#X obj 804 196 nbx 5 15 -1e+037 1e+037 0 0 empty \$0-decay empty 0
-8 0 10 -16645 -258112 -1 0 256;
#X obj 803 157 nbx 5 15 -1e+037 1e+037 0 0 empty \$0-density empty
0 -8 0 10 -16645 -258112 -1 0 256;
#X floatatom 50 879 5 0 0 0 - - -;
#X obj 50 904 s \$0-actualblocksize;
#X obj 70 614 s \$0-actualoverlap;
#X obj 266 660 s \$0-actualdownsample;
#X msg 565 651 180;
#X obj 920 666 lop~ 20000;
#X obj 987 642 r \$0-cutoff;
#X obj 1196 666 lop~ 20000;
#X obj 1263 642 r \$0-cutoff;
#X obj 669 235 hsl 128 15 15 20000 1 0 \$0-cutoffslider-s \$0-cutoffslider-r
empty -2 -8 0 10 -33289 -162280 -1 0 1;
#X obj 803 235 nbx 5 15 -1e+037 1e+037 0 0 empty \$0-cutoff empty 0
-8 0 10 -16645 -258112 -228856 0 256;
#X msg 787 756 20000;
#X obj 787 782 s \$0-setcutoff;
#X obj 1547 187 r gui;
#X obj 1547 209 route mouse;
#X obj 1494 443 s camomile;
#X obj 1494 386 pack f f, f 22;
#X msg 1494 419 param change \$1 \$2;
#X obj 1593 303 t b f, f 8;
#X obj 1547 275 t b f, f 14;
#N canvas 3 116 156 140 one.time.1 0;
#X obj 15 62 spigot 1;
#X obj 15 84 t f b, f 8;
#X obj 78 84 f 0;
#X obj 15 19 inlet;
#X obj 68 19 inlet;
#X obj 15 106 outlet;
#X obj 68 41 f 1;
#X connect 0 0 1 0;
#X connect 1 0 5 0;
#X connect 1 1 2 0;
#X connect 2 0 0 1;
#X connect 3 0 0 0;
#X connect 4 0 6 0;
#X connect 6 0 0 1;
#X restore 1494 303 pd one.time.1;
#N canvas 3 116 156 140 one.time.0 0;
#X obj 89 69 f 0;
#X obj 15 19 inlet;
#X obj 68 19 inlet;
#X obj 15 106 outlet;
#X obj 68 41 f 1;
#X obj 15 62 spigot 0;
#X obj 15 84 t b b, f 8;
#X connect 0 0 5 1;
#X connect 1 0 5 0;
#X connect 2 0 4 0;
#X connect 4 0 5 1;
#X connect 5 0 6 0;
#X connect 6 0 3 0;
#X connect 6 1 0 0;
#X restore 1494 358 pd one.time.0;
#X obj 1494 327 t b f;
#X msg 1593 255 0;
#X obj 1494 162 r camo.param.change;
#X obj 1547 231 sel 1, f 7;
#X msg 1547 253 1;
#X obj 1504 576 param.set 1;
#X obj 1448 503 param.get 1;
#X obj 1448 529 t f f;
#X msg 1448 628 set \$1;
#X obj 1448 651 s \$0-densityslider-r;
#X obj 1494 553 r \$0-densityslider-s;
#X obj 1494 602 s \$0-density;
#X obj 1657 529 t f f;
#X msg 1657 628 set \$1;
#X obj 1657 503 param.get 2;
#X obj 1703 553 r \$0-decayslider-s;
#X obj 1703 602 s \$0-decay;
#X obj 1657 651 s \$0-decayslider-r;
#X obj 1865 532 t f f;
#X msg 1865 631 set \$1;
#X obj 2074 532 t f f;
#X msg 2074 631 set \$1;
#X obj 1865 506 param.get 3;
#X obj 1713 576 param.set 2;
#X obj 1921 579 param.set 3;
#X obj 2074 506 param.get 4;
#X obj 2130 579 param.set 4;
#X obj 1911 556 r \$0-cutoffslider-s;
#X obj 1911 605 s \$0-cutoff;
#X obj 1865 654 s \$0-cutoffslider-r;
#X obj 2120 556 r \$0-wetdryslider-s;
#X obj 2120 605 s \$0-wetdry;
#X obj 2074 654 s \$0-wetdryslider-r;
#X obj 1446 723 t f f;
#X msg 1446 822 set \$1;
#X obj 1655 723 t f f;
#X msg 1655 822 set \$1;
#X obj 1863 726 t f f;
#X msg 1863 825 set \$1;
#X obj 1446 697 param.get 5;
#X obj 1502 770 param.set 5;
#X obj 1655 697 param.get 6;
#X obj 1711 770 param.set 6;
#X obj 1863 700 param.get 7;
#X obj 1919 773 param.set 7;
#X obj 1492 747 r \$0-blocksizeslider-s;
#X obj 1492 796 s \$0-blocksize;
#X obj 1446 845 s \$0-blocksizeslider-r;
#X obj 1701 747 r \$0-overlapradio-s;
#X obj 1701 796 s \$0-overlap;
#X obj 1655 845 s \$0-overlapradio-r;
#X obj 1909 750 r \$0-downsampleradio-s;
#X obj 1909 799 s \$0-downsample;
#X obj 1863 848 s \$0-downsampleradio-r;
#X connect 0 0 100 0;
#X connect 0 1 82 0;
#X connect 3 0 5 0;
#X connect 3 1 6 0;
#X connect 3 2 7 0;
#X connect 3 3 8 0;
#X connect 3 4 4 0;
#X connect 4 0 9 0;
#X connect 5 0 9 0;
#X connect 6 0 9 0;
#X connect 7 0 9 0;
#X connect 8 0 9 0;
#X connect 9 0 20 1;
#X connect 9 0 21 0;
#X connect 9 0 97 0;
#X connect 10 0 11 0;
#X connect 11 0 84 0;
#X connect 13 0 16 0;
#X connect 13 1 17 0;
#X connect 13 2 18 0;
#X connect 13 3 19 0;
#X connect 13 4 14 0;
#X connect 14 0 15 0;
#X connect 15 0 20 2;
#X connect 15 0 21 0;
#X connect 15 0 98 0;
#X connect 16 0 15 0;
#X connect 17 0 15 0;
#X connect 18 0 15 0;
#X connect 19 0 15 0;
#X connect 20 0 31 0;
#X connect 21 0 20 0;
#X connect 23 0 34 0;
#X connect 23 0 36 0;
#X connect 27 0 33 0;
#X connect 28 0 0 3;
#X connect 29 0 0 2;
#X connect 30 0 0 1;
#X connect 35 0 3 0;
#X connect 37 0 13 0;
#X connect 38 0 10 0;
#X connect 44 0 45 0;
#X connect 45 0 46 0;
#X connect 46 0 47 0;
#X connect 47 0 48 0;
#X connect 48 0 55 1;
#X connect 49 0 50 0;
#X connect 50 0 51 0;
#X connect 51 0 52 0;
#X connect 52 0 53 0;
#X connect 53 0 54 0;
#X connect 54 0 56 1;
#X connect 55 0 41 0;
#X connect 56 0 41 0;
#X connect 57 0 58 0;
#X connect 58 0 59 0;
#X connect 59 0 60 0;
#X connect 60 0 61 0;
#X connect 61 0 68 1;
#X connect 62 0 63 0;
#X connect 63 0 64 0;
#X connect 64 0 65 0;
#X connect 65 0 66 0;
#X connect 66 0 67 0;
#X connect 67 0 69 1;
#X connect 68 0 40 0;
#X connect 69 0 40 0;
#X connect 70 0 71 0;
#X connect 72 0 74 0;
#X connect 72 0 0 0;
#X connect 73 0 75 0;
#X connect 73 0 76 0;
#X connect 76 0 83 0;
#X connect 76 1 102 0;
#X connect 77 0 76 3;
#X connect 78 0 76 2;
#X connect 79 0 76 1;
#X connect 80 0 69 0;
#X connect 81 0 56 0;
#X connect 82 0 102 0;
#X connect 83 0 100 0;
#X connect 84 0 85 0;
#X connect 84 1 86 0;
#X connect 85 0 20 0;
#X connect 85 0 95 0;
#X connect 86 0 87 0;
#X connect 87 0 88 0;
#X connect 88 0 20 0;
#X connect 88 0 95 0;
#X connect 89 0 39 0;
#X connect 95 0 96 0;
#X connect 99 0 32 0;
#X connect 100 0 68 0;
#X connect 101 0 100 1;
#X connect 102 0 55 0;
#X connect 103 0 102 1;
#X connect 106 0 107 0;
#X connect 108 0 109 0;
#X connect 109 0 120 0;
#X connect 111 0 112 0;
#X connect 112 0 110 0;
#X connect 113 0 116 0;
#X connect 113 1 111 1;
#X connect 114 0 115 1;
#X connect 114 1 111 1;
#X connect 115 0 117 0;
#X connect 116 0 111 0;
#X connect 117 0 116 1;
#X connect 117 1 111 0;
#X connect 118 0 113 0;
#X connect 119 0 115 0;
#X connect 120 0 121 0;
#X connect 120 1 118 0;
#X connect 121 0 114 0;
#X connect 123 0 124 0;
#X connect 124 0 125 0;
#X connect 124 1 128 0;
#X connect 125 0 126 0;
#X connect 127 0 122 0;
#X connect 127 0 128 0;
#X connect 129 0 130 0;
#X connect 129 1 133 0;
#X connect 130 0 134 0;
#X connect 131 0 129 0;
#X connect 132 0 133 0;
#X connect 132 0 140 0;
#X connect 135 0 136 0;
#X connect 135 1 145 0;
#X connect 136 0 146 0;
#X connect 137 0 138 0;
#X connect 137 1 148 0;
#X connect 138 0 149 0;
#X connect 139 0 135 0;
#X connect 142 0 137 0;
#X connect 144 0 141 0;
#X connect 144 0 145 0;
#X connect 147 0 143 0;
#X connect 147 0 148 0;
#X connect 150 0 151 0;
#X connect 150 1 163 0;
#X connect 151 0 164 0;
#X connect 152 0 153 0;
#X connect 152 1 166 0;
#X connect 153 0 167 0;
#X connect 154 0 155 0;
#X connect 154 1 169 0;
#X connect 155 0 170 0;
#X connect 156 0 150 0;
#X connect 158 0 152 0;
#X connect 160 0 154 0;
#X connect 162 0 157 0;
#X connect 162 0 163 0;
#X connect 165 0 159 0;
#X connect 165 0 166 0;
#X connect 168 0 161 0;
#X connect 168 0 169 0;
#X coords 0 -1 1 1 800 232 1 100 100;
