#N canvas 972 108 1306 811 12;
#X obj 332 852 *~ 0.5;
#X obj 895 556 hsl 128 15 0 1 0 0 empty empty empty -2 -8 0 10 -262144
-1 -1 10600 1;
#X msg 892 576 \$1 20;
#X obj 892 602 vline~;
#X obj 201 698 *~;
#X obj 427 699 *~;
#X obj 647 700 *~;
#X obj 873 701 *~;
#X floatatom 1034 552 5 0 0 0 - - -;
#X obj 560 363 *~ 0.7;
#X obj 446 417 *~ 0.51;
#X obj 466 252 *~ 0.51;
#X obj 535 526 *~ 0.7;
#X obj 421 580 *~ 0.51;
#X obj 642 502 *~ -0.7;
#X obj 667 339 *~ -0.7;
#X obj 687 174 *~ -0.7;
#X obj 580 198 *~ 0.7;
#X obj 490 744 *~ -1;
#X obj 271 744 *~ -1;
#X obj 416 849 *~ 0.5;
#X obj 723 758 *~ -1;
#X obj 224 117 hsl 128 15 100 700 0 0 empty empty empty -2 -8 0 10
-262144 -1 -1 7000 1;
#X obj 221 137 / 3;
#X obj 221 163 / 3;
#X obj 44 632 *~ 1;
#X obj 533 305 *~ 1;
#X obj 500 462 *~ 1;
#X obj 475 625 *~ 1;
#X obj 573 45 inlet~;
#X obj 326 887 outlet~;
#X obj 414 889 outlet~;
#X obj 213 39 loadbang;
#X obj 70 250 switch~;
#X obj 69 129 tgl 15 0 empty empty empty 17 7 0 10 -262144 -1 -1 1
1;
#X msg 69 102 1;
#X msg 98 212 set \$1 \$2 \$3;
#X obj 740 44 inlet;
#X obj 812 46 inlet;
#X obj 889 50 inlet;
#X obj 414 174 delwrite~ \$0-allpass1 700;
#X obj 414 211 delread~ \$0-allpass1 347;
#X obj 394 339 delwrite~ \$0-allpass2 700;
#X obj 394 376 delread~ \$0-allpass2 113;
#X obj 369 502 delwrite~ \$0-allpass3 700;
#X obj 369 539 delread~ \$0-allpass3 37;
#X obj 44 676 delwrite~ \$0-comb1 200;
#X obj 45 715 delread~ \$0-comb1 30;
#X obj 270 677 delwrite~ \$0-comb2 200;
#X obj 271 715 delread~ \$0-comb2 33;
#X obj 491 679 delwrite~ \$0-comb3 200;
#X obj 491 715 delread~ \$0-comb3 36;
#X obj 716 679 delwrite~ \$0-comb4 200;
#X obj 718 718 delread~ \$0-comb4 40;
#X obj 571 111 *~ 0.5;
#X connect 0 0 30 0;
#X connect 1 0 2 0;
#X connect 1 0 8 0;
#X connect 2 0 3 0;
#X connect 3 0 4 1;
#X connect 3 0 5 1;
#X connect 3 0 6 1;
#X connect 3 0 7 1;
#X connect 4 0 46 0;
#X connect 5 0 48 0;
#X connect 6 0 50 0;
#X connect 7 0 52 0;
#X connect 9 0 42 0;
#X connect 10 0 27 0;
#X connect 11 0 26 0;
#X connect 12 0 44 0;
#X connect 13 0 28 0;
#X connect 14 0 28 0;
#X connect 15 0 27 0;
#X connect 16 0 26 0;
#X connect 17 0 40 0;
#X connect 18 0 0 0;
#X connect 19 0 0 0;
#X connect 19 0 20 0;
#X connect 20 0 31 0;
#X connect 21 0 20 0;
#X connect 22 0 23 0;
#X connect 22 0 41 0;
#X connect 23 0 24 0;
#X connect 23 0 43 0;
#X connect 24 0 45 0;
#X connect 25 0 46 0;
#X connect 25 0 48 0;
#X connect 25 0 50 0;
#X connect 25 0 52 0;
#X connect 26 0 15 0;
#X connect 26 0 42 0;
#X connect 27 0 14 0;
#X connect 27 0 44 0;
#X connect 28 0 25 0;
#X connect 29 0 54 0;
#X connect 32 0 35 0;
#X connect 34 0 33 0;
#X connect 35 0 34 0;
#X connect 36 0 33 0;
#X connect 37 0 36 0;
#X connect 38 0 22 0;
#X connect 39 0 1 0;
#X connect 41 0 11 0;
#X connect 41 0 17 0;
#X connect 43 0 9 0;
#X connect 43 0 10 0;
#X connect 45 0 12 0;
#X connect 45 0 13 0;
#X connect 47 0 4 0;
#X connect 47 0 0 0;
#X connect 47 0 20 0;
#X connect 49 0 5 0;
#X connect 49 0 19 0;
#X connect 51 0 6 0;
#X connect 51 0 18 0;
#X connect 51 0 20 0;
#X connect 53 0 7 0;
#X connect 53 0 0 0;
#X connect 53 0 21 0;
#X connect 54 0 16 0;
#X connect 54 0 40 0;
