#N canvas 399 23 1649 923 12;
#X obj 2432 894 clip~ -1 1;
#X obj 2432 815 *~;
#X obj 315 203 hsl 128 15 0 40 0 0 \$0-clip-inputgain-s \$0-clip-inputgain-r
empty -2 -8 0 10 -260974 -261689 -1 8000 1;
#X msg 2441 369 -1;
#X msg 2481 369 1;
#X floatatom 2441 398 5 0 0 0 - - -;
#X obj 2441 342 threshold~ -0.1;
#X obj 2452 263 threshold~ 0.1;
#X obj 511 275 hsl 128 15 0 1 0 0 \$0-1bit-threshold-s \$0-1bit-threshold-r
empty -2 -8 0 10 -175348 -261689 -1 2900 1;
#X obj 2441 212 *~;
#X obj 511 239 hsl 128 15 0 5 0 0 \$0-1bit-inputgain-s \$0-1bit-inputgain-r
empty -2 -8 0 10 -175348 -261689 -1 5000 1;
#X msg 2459 160 \$1 20;
#X obj 2459 186 vline~;
#X obj 2441 552 *~;
#X obj 646 239 nbx 4 15 -1e+037 1e+037 0 0 empty \$0-1bit-inputgain
empty 0 -8 0 10 -175348 -84001 -1 1.9685 256;
#X obj 646 275 nbx 4 15 -1e+037 1e+037 0 0 empty \$0-1bit-threshold
empty 0 -8 0 10 -175348 -84001 -1 0.228346 256;
#X obj 2543 316 * -1;
#X msg 2459 500 \$1 20;
#X obj 2459 526 vline~;
#X msg 2696 365 -1;
#X msg 2736 365 1;
#X floatatom 2696 394 5 0 0 0 - - -;
#X obj 2696 338 threshold~ -0.1;
#X obj 2707 259 threshold~ 0.1;
#X obj 2696 208 *~;
#X msg 2714 156 \$1 20;
#X obj 2714 182 vline~;
#X obj 2696 545 *~;
#X obj 2798 312 * -1;
#X msg 2714 493 \$1 20;
#X obj 2714 519 vline~;
#X obj 511 311 hsl 128 15 0 1 0 0 \$0-1bit-outputgain-s \$0-1bit-outputgain-r
empty -2 -8 0 10 -175348 -261689 -1 0 1;
#X obj 646 311 nbx 4 15 -1e+037 1e+037 0 0 empty \$0-1bit-outputgain
empty 0 -8 0 10 -175348 -84001 -1 0 256;
#X obj 973 273 lop~ 200;
#X obj 972 378 *~;
#X msg 990 326 \$1 20;
#X obj 990 352 vline~;
#X obj 119 167 hsl 128 15 0 200 0 0 \$0-mb-lpfgain-s \$0-mb-lpfgain-r
empty -2 -8 0 10 -175348 -261689 -1 5400 1;
#X obj 254 167 nbx 4 15 -1e+037 1e+037 0 0 empty \$0-mb-lpfgain empty
0 -8 0 10 -175348 -84001 -1 85.0394 256;
#X obj 1145 376 *~;
#X msg 1163 324 \$1 20;
#X obj 1163 350 vline~;
#X obj 1146 271 lop~ 900;
#X obj 1147 245 hip~ 200;
#X obj 1163 298 r \$0-mb-b1gain;
#X obj 990 300 r \$0-mb-lpfgain;
#X obj 119 203 hsl 128 15 0 200 0 0 \$0-mb-b1gain-s \$0-mb-b1gain-r
empty -2 -8 0 10 -175348 -261689 -1 3900 1;
#X obj 254 203 nbx 4 15 -1e+037 1e+037 0 0 empty \$0-mb-b1gain empty
0 -8 0 10 -175348 -84001 -1 61.4173 256;
#X obj 1300 375 *~;
#X msg 1318 323 \$1 20;
#X obj 1318 349 vline~;
#X obj 1302 244 hip~ 900;
#X obj 1301 270 lop~ 4000;
#X obj 1318 297 r \$0-mb-b2gain;
#X obj 119 239 hsl 128 15 0 200 0 0 \$0-mb-b2gain-s \$0-mb-b2gain-r
empty -2 -8 0 10 -175348 -261689 -1 11200 1;
#X obj 254 239 nbx 4 15 -1e+037 1e+037 0 0 empty \$0-mb-b2gain empty
0 -8 0 10 -175348 -84001 -1 176.378 256;
#X obj 119 275 hsl 128 15 0 200 0 0 \$0-mb-hpfgain-s \$0-mb-hpfgain-r
empty -2 -8 0 10 -175348 -261689 -1 5100 1;
#X obj 254 275 nbx 4 15 -1e+037 1e+037 0 0 empty \$0-mb-hpfgain empty
0 -8 0 10 -175348 -84001 -1 80.315 256;
#X obj 1451 378 *~;
#X msg 1469 326 \$1 20;
#X obj 1469 352 vline~;
#X obj 1453 273 hip~ 4000;
#X obj 1469 300 r \$0-mb-hpfgain;
#X obj 1044 651 *~;
#X obj 1044 676 +~ 7;
#X obj 1025 598 *~;
#X obj 1026 701 /~;
#X obj 1026 728 +~ 5;
#X obj 1008 544 *~;
#X obj 1007 755 /~;
#X obj 1007 782 +~ 3;
#X obj 989 489 *~;
#X obj 990 807 /~;
#X obj 990 834 +~ 1;
#X obj 971 860 /~;
#X obj 971 403 s~ \$0-lpf-L;
#X obj 1043 625 r~ \$0-lpf-L;
#X obj 1026 570 r~ \$0-lpf-L;
#X obj 1008 514 r~ \$0-lpf-L;
#X obj 989 458 r~ \$0-lpf-L;
#X obj 971 431 r~ \$0-lpf-L;
#X obj 1220 649 *~;
#X obj 1220 674 +~ 7;
#X obj 1201 596 *~;
#X obj 1202 699 /~;
#X obj 1202 726 +~ 5;
#X obj 1184 542 *~;
#X obj 1183 753 /~;
#X obj 1183 780 +~ 3;
#X obj 1165 487 *~;
#X obj 1166 805 /~;
#X obj 1166 832 +~ 1;
#X obj 1147 858 /~;
#X obj 1147 429 r~ \$0-b1-L;
#X obj 1165 456 r~ \$0-b1-L;
#X obj 1184 512 r~ \$0-b1-L;
#X obj 1202 568 r~ \$0-b1-L;
#X obj 1219 623 r~ \$0-b1-L;
#X obj 1145 402 s~ \$0-b1-L;
#X obj 1527 652 *~;
#X obj 1527 677 +~ 7;
#X obj 1508 599 *~;
#X obj 1509 702 /~;
#X obj 1509 729 +~ 5;
#X obj 1491 545 *~;
#X obj 1490 756 /~;
#X obj 1490 783 +~ 3;
#X obj 1472 490 *~;
#X obj 1473 808 /~;
#X obj 1473 835 +~ 1;
#X obj 1454 861 /~;
#X obj 1372 650 *~;
#X obj 1372 675 +~ 7;
#X obj 1353 597 *~;
#X obj 1354 700 /~;
#X obj 1354 727 +~ 5;
#X obj 1336 543 *~;
#X obj 1335 754 /~;
#X obj 1335 781 +~ 3;
#X obj 1317 488 *~;
#X obj 1318 806 /~;
#X obj 1318 833 +~ 1;
#X obj 1299 859 /~;
#X obj 1300 401 s~ \$0-b2-L;
#X obj 1451 404 s~ \$0-hpf-L;
#X obj 1299 430 r~ \$0-b2-L;
#X obj 1317 457 r~ \$0-b2-L;
#X obj 1336 513 r~ \$0-b2-L;
#X obj 1354 569 r~ \$0-b2-L;
#X obj 1371 624 r~ \$0-b2-L;
#X obj 1454 432 r~ \$0-hpf-L;
#X obj 1472 459 r~ \$0-hpf-L;
#X obj 1491 515 r~ \$0-hpf-L;
#X obj 1509 571 r~ \$0-hpf-L;
#X obj 1526 626 r~ \$0-hpf-L;
#X obj 119 311 hsl 128 15 0 1 0 0 \$0-mb-outputgain-s \$0-mb-outputgain-r
empty -2 -8 0 10 -175348 -261689 -1 0 1;
#X obj 254 311 nbx 4 15 -1e+037 1e+037 0 0 empty \$0-mb-outputgain
empty 0 -8 0 10 -175348 -84001 -1 0 256;
#X obj 1455 976 *~;
#X msg 1473 924 \$1 20;
#X obj 1473 950 vline~;
#X obj 1454 1032 s~ \$0-mb-out-L;
#X obj 1473 900 r \$0-mb-outputgain;
#X obj 2440 603 s~ \$0-1bit-out-L;
#X obj 2695 596 s~ \$0-1bit-out-R;
#X obj 2695 107 catch~ \$0-1bit-in-R;
#X obj 2440 111 catch~ \$0-1bit-in-L;
#X obj 2459 136 r \$0-1bit-inputgain;
#X obj 2547 237 r \$0-1bit-threshold;
#X obj 2543 291 r \$0-1bit-threshold;
#X obj 2459 476 r \$0-1bit-outputgain;
#X obj 2714 469 r \$0-1bit-outputgain;
#X obj 2802 233 r \$0-1bit-threshold;
#X obj 2798 287 r \$0-1bit-threshold;
#X obj 974 177 catch~ \$0-mb-in-L;
#X obj 1633 265 lop~ 200;
#X obj 1632 370 *~;
#X msg 1650 318 \$1 20;
#X obj 1650 344 vline~;
#X obj 1805 368 *~;
#X msg 1823 316 \$1 20;
#X obj 1823 342 vline~;
#X obj 1806 263 lop~ 900;
#X obj 1807 237 hip~ 200;
#X obj 1823 290 r \$0-mb-b1gain;
#X obj 1650 292 r \$0-mb-lpfgain;
#X obj 1960 367 *~;
#X msg 1978 315 \$1 20;
#X obj 1978 341 vline~;
#X obj 1962 236 hip~ 900;
#X obj 1961 262 lop~ 4000;
#X obj 1978 289 r \$0-mb-b2gain;
#X obj 2111 370 *~;
#X msg 2129 318 \$1 20;
#X obj 2129 344 vline~;
#X obj 2113 265 hip~ 4000;
#X obj 2129 292 r \$0-mb-hpfgain;
#X obj 1704 643 *~;
#X obj 1704 668 +~ 7;
#X obj 1685 590 *~;
#X obj 1686 693 /~;
#X obj 1686 720 +~ 5;
#X obj 1668 536 *~;
#X obj 1667 747 /~;
#X obj 1667 774 +~ 3;
#X obj 1649 481 *~;
#X obj 1650 799 /~;
#X obj 1650 826 +~ 1;
#X obj 1631 852 /~;
#X obj 1880 641 *~;
#X obj 1880 666 +~ 7;
#X obj 1861 588 *~;
#X obj 1862 691 /~;
#X obj 1862 718 +~ 5;
#X obj 1844 534 *~;
#X obj 1843 745 /~;
#X obj 1843 772 +~ 3;
#X obj 1825 479 *~;
#X obj 1826 797 /~;
#X obj 1826 824 +~ 1;
#X obj 1807 850 /~;
#X obj 2187 644 *~;
#X obj 2187 669 +~ 7;
#X obj 2168 591 *~;
#X obj 2169 694 /~;
#X obj 2169 721 +~ 5;
#X obj 2151 537 *~;
#X obj 2150 748 /~;
#X obj 2150 775 +~ 3;
#X obj 2132 482 *~;
#X obj 2133 800 /~;
#X obj 2133 827 +~ 1;
#X obj 2114 853 /~;
#X obj 2032 642 *~;
#X obj 2032 667 +~ 7;
#X obj 2013 589 *~;
#X obj 2014 692 /~;
#X obj 2014 719 +~ 5;
#X obj 1996 535 *~;
#X obj 1995 746 /~;
#X obj 1995 773 +~ 3;
#X obj 1977 480 *~;
#X obj 1978 798 /~;
#X obj 1978 825 +~ 1;
#X obj 1959 851 /~;
#X obj 2115 968 *~;
#X msg 2133 916 \$1 20;
#X obj 2133 942 vline~;
#X obj 2133 892 r \$0-mb-outputgain;
#X obj 1634 169 catch~ \$0-mb-in-R;
#X obj 1631 395 s~ \$0-lpf-R;
#X obj 1805 394 s~ \$0-b1-R;
#X obj 1960 393 s~ \$0-b2-R;
#X obj 2111 396 s~ \$0-hpf-R;
#X obj 1631 423 r~ \$0-lpf-R;
#X obj 1649 450 r~ \$0-lpf-R;
#X obj 1668 506 r~ \$0-lpf-R;
#X obj 1686 562 r~ \$0-lpf-R;
#X obj 1703 617 r~ \$0-lpf-R;
#X obj 1807 421 r~ \$0-b1-R;
#X obj 1825 448 r~ \$0-b1-R;
#X obj 1844 504 r~ \$0-b1-R;
#X obj 1862 560 r~ \$0-b1-R;
#X obj 1879 615 r~ \$0-b1-R;
#X obj 1959 422 r~ \$0-b2-R;
#X obj 1977 449 r~ \$0-b2-R;
#X obj 1996 505 r~ \$0-b2-R;
#X obj 2014 561 r~ \$0-b2-R;
#X obj 2031 616 r~ \$0-b2-R;
#X obj 2114 424 r~ \$0-hpf-R;
#X obj 2132 451 r~ \$0-hpf-R;
#X obj 2151 507 r~ \$0-hpf-R;
#X obj 2169 563 r~ \$0-hpf-R;
#X obj 2186 618 r~ \$0-hpf-R;
#X obj 2114 1026 s~ \$0-mb-out-R;
#X obj 256 604 r~ \$0-mb-out-L;
#X obj 533 603 r~ \$0-mb-out-R;
#X obj 283 463 throw~ \$0-mb-in-L;
#X obj 544 458 throw~ \$0-mb-in-R;
#X obj 265 522 throw~ \$0-1bit-in-L;
#X obj 521 512 throw~ \$0-1bit-in-R;
#X obj 545 630 r~ \$0-1bit-out-R;
#X obj 268 631 r~ \$0-1bit-out-L;
#X obj 2714 132 r \$0-1bit-inputgain;
#X text 975 152 Multiband Tanh Distortion;
#X text 2446 73 1 Bit ADC;
#X msg 2450 767 \$1 20;
#X obj 2450 791 vline~;
#X obj 2431 714 catch~ \$0-clip-in-L;
#X obj 2450 741 r \$0-clip-inputgain;
#X obj 2465 838 r \$0-clip-negative;
#X obj 2499 866 r \$0-clip-positive;
#X obj 2432 1023 s~ \$0-clip-out-L;
#X obj 2651 891 clip~ -1 1;
#X obj 2651 812 *~;
#X msg 2669 764 \$1 20;
#X obj 2669 788 vline~;
#X obj 2669 738 r \$0-clip-inputgain;
#X obj 2684 835 r \$0-clip-negative;
#X obj 2718 863 r \$0-clip-positive;
#X obj 2650 711 catch~ \$0-clip-in-R;
#X obj 2650 1020 s~ \$0-clip-out-R;
#X text 2425 677 asym-clip;
#X obj 2432 996 *~;
#X msg 2450 944 \$1 20;
#X obj 2450 970 vline~;
#X obj 2450 920 r \$0-clip-outputgain;
#X obj 2650 994 *~;
#X msg 2668 942 \$1 20;
#X obj 2668 968 vline~;
#X obj 2668 918 r \$0-clip-outputgain;
#X obj 315 311 hsl 128 15 0 1 0 0 \$0-clip-outputgain-s \$0-clip-outputgain-r
empty -2 -8 0 10 -260974 -261689 -1 0 1;
#X obj 315 239 hsl 128 15 -1 0 0 0 \$0-clip-negative-s \$0-clip-negative-r
empty -2 -8 0 10 -260974 -261689 -1 7900 1;
#X obj 315 275 hsl 128 15 0 1 0 0 \$0-clip-positive-s \$0-clip-positive-r
empty -2 -8 0 10 -260974 -261689 -1 1600 1;
#X obj 450 311 nbx 4 15 -1e+037 1e+037 0 0 empty \$0-clip-outputgain
empty 0 -8 0 10 -260974 -261689 -1 0 256;
#X obj 450 275 nbx 4 15 -1e+037 1e+037 0 0 empty \$0-clip-positive
empty 0 -8 0 10 -260974 -261689 -1 0.125984 256;
#X obj 450 239 nbx 4 15 -1e+037 1e+037 0 0 empty \$0-clip-negative
empty 0 -8 0 10 -260974 -261689 -1 -0.377953 256;
#X obj 450 203 nbx 4 15 -1e+037 1e+037 0 0 empty \$0-clip-inputgain
empty 0 -8 0 10 -260974 -261689 -1 25.1968 256;
#X obj 274 494 throw~ \$0-clip-in-L;
#X obj 538 485 throw~ \$0-clip-in-R;
#X obj 554 656 r~ \$0-clip-out-L;
#X obj 279 658 r~ \$0-clip-out-R;
#X obj 255 686 *~ 0.8;
#X obj 532 686 *~ 0.8;
#X obj 256 904 dac~ 1;
#X obj 531 910 dac~ 2;
#X obj 707 311 hsl 128 15 -1 1 0 0 \$0-wetdry-s \$0-wetdry-r empty
-2 -8 0 10 -84001 -175348 -1 12700 1;
#X obj 842 311 nbx 4 15 -1e+037 1e+037 0 0 empty \$0-wetdry empty 0
-8 0 10 -84001 -175348 -228856 1 256;
#X obj 546 713 r \$0-wetdry;
#X obj 546 736 + 1;
#X obj 546 759 / 2;
#X msg 546 782 \$1 20;
#X obj 546 805 vline~;
#X obj 648 735 r \$0-wetdry;
#X obj 648 758 * -1;
#X obj 648 781 + 1;
#X obj 648 804 / 2;
#X msg 648 827 \$1 20;
#X obj 648 850 vline~;
#X obj 531 827 *~;
#X obj 630 875 *~;
#X obj 271 713 r \$0-wetdry;
#X obj 271 736 + 1;
#X obj 271 759 / 2;
#X msg 271 782 \$1 20;
#X obj 271 805 vline~;
#X obj 372 736 r \$0-wetdry;
#X obj 372 759 * -1;
#X obj 372 782 + 1;
#X obj 372 805 / 2;
#X msg 372 828 \$1 20;
#X obj 372 851 vline~;
#X obj 256 827 *~;
#X obj 355 875 *~;
#X obj 294 436 throw~ \$0-dryL;
#X obj 548 432 throw~ \$0-dryR;
#X obj 356 713 catch~ \$0-dryL;
#X obj 631 713 catch~ \$0-dryR;
#X obj 264 409 adc~ 1;
#X obj 520 402 adc~ 2;
#X text 1195 152 x/(1+x^2/(3+x^2/(5+x^2/(7+x^2))));
#X obj 1455 1002 *~ 0.1;
#X obj 2115 994 *~ 0.1;
#X obj 2440 578 *~ 0.6;
#X obj 2695 571 *~ 0.6;
#N canvas 1347 136 1115 786 dawcontrol 0;
#X obj 990 70 r gui;
#X obj 990 92 route mouse;
#X obj 937 326 s camomile;
#X obj 937 269 pack f f, f 22;
#X msg 937 302 param change \$1 \$2;
#X obj 1036 186 t b f, f 8;
#X obj 990 158 t b f, f 14;
#N canvas 3 116 156 140 one.time.1 0;
#X obj 15 62 spigot 1;
#X obj 15 84 t f b, f 8;
#X obj 78 84 f 0;
#X obj 15 19 inlet;
#X obj 68 19 inlet;
#X obj 15 106 outlet;
#X obj 68 41 f 1;
#X connect 0 0 1 0;
#X connect 1 0 5 0;
#X connect 1 1 2 0;
#X connect 2 0 0 1;
#X connect 3 0 0 0;
#X connect 4 0 6 0;
#X connect 6 0 0 1;
#X restore 937 186 pd one.time.1;
#N canvas 3 116 156 140 one.time.0 0;
#X obj 89 69 f 0;
#X obj 15 19 inlet;
#X obj 68 19 inlet;
#X obj 15 106 outlet;
#X obj 68 41 f 1;
#X obj 15 62 spigot 0;
#X obj 15 84 t b b, f 8;
#X connect 0 0 5 1;
#X connect 1 0 5 0;
#X connect 2 0 4 0;
#X connect 4 0 5 1;
#X connect 5 0 6 0;
#X connect 6 0 3 0;
#X connect 6 1 0 0;
#X restore 937 241 pd one.time.0;
#X obj 937 210 t b f;
#X msg 1036 138 0;
#X obj 937 45 r camo.param.change;
#X obj 990 114 sel 1, f 7;
#X msg 990 136 1;
#X obj 111 89 param.set 1;
#X obj 55 16 param.get 1;
#X obj 55 42 t f f;
#X msg 55 141 set \$1;
#X obj 264 42 t f f;
#X msg 264 141 set \$1;
#X obj 264 16 param.get 2;
#X obj 472 45 t f f;
#X msg 472 144 set \$1;
#X obj 695 45 t f f;
#X msg 695 144 set \$1;
#X obj 472 19 param.get 3;
#X obj 320 89 param.set 2;
#X obj 520 95 param.set 3;
#X obj 695 19 param.get 4;
#X obj 751 92 param.set 4;
#X obj 53 236 t f f;
#X msg 53 335 set \$1;
#X obj 262 236 t f f;
#X msg 262 335 set \$1;
#X obj 470 239 t f f;
#X msg 470 338 set \$1;
#X obj 53 210 param.get 5;
#X obj 109 283 param.set 5;
#X obj 262 210 param.get 6;
#X obj 318 283 param.set 6;
#X obj 470 213 param.get 7;
#X obj 526 286 param.set 7;
#X obj 684 236 t f f;
#X msg 684 335 set \$1;
#X obj 54 420 t f f;
#X msg 54 519 set \$1;
#X obj 263 420 t f f;
#X msg 263 519 set \$1;
#X obj 471 423 t f f;
#X msg 471 522 set \$1;
#X obj 685 420 t f f;
#X msg 685 519 set \$1;
#X obj 684 210 param.get 8;
#X obj 740 283 param.set 8;
#X obj 54 394 param.get 9;
#X obj 110 467 param.set 9;
#X obj 263 394 param.get 10;
#X obj 319 467 param.set 10;
#X obj 471 397 param.get 11;
#X obj 527 470 param.set 11;
#X obj 685 394 param.get 12;
#X obj 741 467 param.set 12;
#X obj 52 600 t f f;
#X msg 52 699 set \$1;
#X obj 52 574 param.get 13;
#X obj 108 647 param.set 13;
#X obj 101 66 r \$0-mb-lpfgain-s;
#X obj 101 115 s \$0-mb-lpfgain;
#X obj 55 164 s \$0-mb-lpfgain-r;
#X obj 310 65 r \$0-mb-b1gain-s;
#X obj 310 115 s \$0-mb-b1gain;
#X obj 264 164 s \$0-mb-b1gain-r;
#X obj 510 72 r \$0-mb-b2gain-s;
#X obj 510 121 s \$0-mb-b2gain;
#X obj 473 167 s \$0-mb-b2gain-r;
#X obj 743 69 r \$0-mb-hpfgain-s;
#X obj 741 118 s \$0-mb-hpfgain;
#X obj 695 167 s \$0-mb-hpfgain-r;
#X obj 99 309 s \$0-mb-outputgain;
#X obj 99 260 r \$0-mb-outputgain-s;
#X obj 53 358 s \$0-mb-outputgain-r;
#X obj 308 260 r \$0-clip-inputgain-s;
#X obj 308 309 s \$0-clip-inputgain;
#X obj 262 358 s \$0-clip-inputgain-r;
#X obj 516 263 r \$0-clip-negative-s;
#X obj 516 312 s \$0-clip-negative;
#X obj 471 361 s \$0-clip-negative-r;
#X obj 730 260 r \$0-clip-positive-s;
#X obj 730 309 s \$0-clip-positive;
#X obj 684 358 s \$0-clip-positive-r;
#X obj 100 444 r \$0-clip-outputgain-s;
#X obj 100 493 s \$0-clip-outputgain;
#X obj 54 542 s \$0-clip-outputgain-r;
#X obj 309 444 r \$0-1bit-inputgain-s;
#X obj 309 493 s \$0-1bit-inputgain;
#X obj 263 543 s \$0-1bit-inputgain-r;
#X obj 517 447 r \$0-1bit-threshold-s;
#X obj 517 496 s \$0-1bit-threshold;
#X obj 471 545 s \$0-1bit-threshold-r;
#X obj 731 444 r \$0-1bit-outputgain-s;
#X obj 731 493 s \$0-1bit-outputgain;
#X obj 685 542 s \$0-1bit-outputgain-r;
#X obj 98 624 r \$0-wetdry-s;
#X obj 98 673 s \$0-wetdry;
#X obj 52 722 s \$0-wetdry-r;
#X connect 0 0 1 0;
#X connect 1 0 12 0;
#X connect 3 0 4 0;
#X connect 4 0 2 0;
#X connect 5 0 8 0;
#X connect 5 1 3 1;
#X connect 6 0 7 1;
#X connect 6 1 3 1;
#X connect 7 0 9 0;
#X connect 8 0 3 0;
#X connect 9 0 8 1;
#X connect 9 1 3 0;
#X connect 10 0 5 0;
#X connect 11 0 7 0;
#X connect 12 0 13 0;
#X connect 12 1 10 0;
#X connect 13 0 6 0;
#X connect 15 0 16 0;
#X connect 16 0 17 0;
#X connect 16 1 67 0;
#X connect 17 0 68 0;
#X connect 18 0 19 0;
#X connect 18 1 70 0;
#X connect 19 0 71 0;
#X connect 20 0 18 0;
#X connect 21 0 22 0;
#X connect 21 1 73 0;
#X connect 22 0 74 0;
#X connect 23 0 24 0;
#X connect 23 1 76 0;
#X connect 24 0 77 0;
#X connect 25 0 21 0;
#X connect 28 0 23 0;
#X connect 30 0 31 0;
#X connect 30 1 78 0;
#X connect 31 0 80 0;
#X connect 32 0 33 0;
#X connect 32 1 82 0;
#X connect 33 0 83 0;
#X connect 34 0 35 0;
#X connect 34 1 85 0;
#X connect 35 0 86 0;
#X connect 36 0 30 0;
#X connect 38 0 32 0;
#X connect 40 0 34 0;
#X connect 42 0 43 0;
#X connect 42 1 88 0;
#X connect 43 0 89 0;
#X connect 44 0 45 0;
#X connect 44 1 91 0;
#X connect 45 0 92 0;
#X connect 46 0 47 0;
#X connect 46 1 94 0;
#X connect 47 0 95 0;
#X connect 48 0 49 0;
#X connect 48 1 97 0;
#X connect 49 0 98 0;
#X connect 50 0 51 0;
#X connect 50 1 100 0;
#X connect 51 0 101 0;
#X connect 52 0 42 0;
#X connect 54 0 44 0;
#X connect 56 0 46 0;
#X connect 58 0 48 0;
#X connect 60 0 50 0;
#X connect 62 0 63 0;
#X connect 62 1 103 0;
#X connect 63 0 104 0;
#X connect 64 0 62 0;
#X connect 66 0 14 0;
#X connect 66 0 67 0;
#X connect 69 0 26 0;
#X connect 69 0 70 0;
#X connect 72 0 27 0;
#X connect 72 0 73 0;
#X connect 75 0 29 0;
#X connect 75 0 76 0;
#X connect 79 0 37 0;
#X connect 79 0 78 0;
#X connect 81 0 39 0;
#X connect 81 0 82 0;
#X connect 84 0 41 0;
#X connect 84 0 85 0;
#X connect 87 0 53 0;
#X connect 87 0 88 0;
#X connect 90 0 55 0;
#X connect 90 0 91 0;
#X connect 93 0 57 0;
#X connect 93 0 94 0;
#X connect 96 0 59 0;
#X connect 96 0 97 0;
#X connect 99 0 61 0;
#X connect 99 0 100 0;
#X connect 102 0 65 0;
#X connect 102 0 103 0;
#X restore 115 413 pd dawcontrol;
#X obj 2441 423 *~ 1;
#X obj 2441 448 hip~ 1;
#X obj 2696 418 *~ 1;
#X obj 2696 443 hip~ 1;
#X connect 0 0 282 0;
#X connect 1 0 0 0;
#X connect 3 0 5 0;
#X connect 4 0 5 0;
#X connect 5 0 345 0;
#X connect 6 0 3 0;
#X connect 7 0 4 0;
#X connect 9 0 6 0;
#X connect 9 0 7 0;
#X connect 11 0 12 0;
#X connect 12 0 9 1;
#X connect 13 0 342 0;
#X connect 16 0 6 1;
#X connect 17 0 18 0;
#X connect 18 0 13 1;
#X connect 19 0 21 0;
#X connect 20 0 21 0;
#X connect 21 0 347 0;
#X connect 22 0 19 0;
#X connect 23 0 20 0;
#X connect 24 0 22 0;
#X connect 24 0 23 0;
#X connect 25 0 26 0;
#X connect 26 0 24 1;
#X connect 27 0 343 0;
#X connect 28 0 22 1;
#X connect 29 0 30 0;
#X connect 30 0 27 1;
#X connect 33 0 34 0;
#X connect 34 0 75 0;
#X connect 35 0 36 0;
#X connect 36 0 34 1;
#X connect 39 0 98 0;
#X connect 40 0 41 0;
#X connect 41 0 39 1;
#X connect 42 0 39 0;
#X connect 43 0 42 0;
#X connect 44 0 40 0;
#X connect 45 0 35 0;
#X connect 48 0 123 0;
#X connect 49 0 50 0;
#X connect 50 0 48 1;
#X connect 51 0 52 0;
#X connect 52 0 48 0;
#X connect 53 0 49 0;
#X connect 58 0 124 0;
#X connect 59 0 60 0;
#X connect 60 0 58 1;
#X connect 61 0 58 0;
#X connect 62 0 59 0;
#X connect 63 0 64 0;
#X connect 64 0 66 1;
#X connect 65 0 66 0;
#X connect 66 0 67 0;
#X connect 67 0 69 1;
#X connect 68 0 69 0;
#X connect 69 0 70 0;
#X connect 70 0 72 1;
#X connect 71 0 72 0;
#X connect 72 0 73 0;
#X connect 73 0 74 1;
#X connect 74 0 137 0;
#X connect 76 0 63 0;
#X connect 76 0 63 1;
#X connect 77 0 65 0;
#X connect 77 0 65 1;
#X connect 78 0 68 0;
#X connect 78 0 68 1;
#X connect 79 0 71 0;
#X connect 79 0 71 1;
#X connect 80 0 74 0;
#X connect 81 0 82 0;
#X connect 82 0 84 1;
#X connect 83 0 84 0;
#X connect 84 0 85 0;
#X connect 85 0 87 1;
#X connect 86 0 87 0;
#X connect 87 0 88 0;
#X connect 88 0 90 1;
#X connect 89 0 90 0;
#X connect 90 0 91 0;
#X connect 91 0 92 1;
#X connect 92 0 137 0;
#X connect 93 0 92 0;
#X connect 94 0 89 0;
#X connect 94 0 89 1;
#X connect 95 0 86 0;
#X connect 95 0 86 1;
#X connect 96 0 83 0;
#X connect 96 0 83 1;
#X connect 97 0 81 0;
#X connect 97 0 81 1;
#X connect 99 0 100 0;
#X connect 100 0 102 1;
#X connect 101 0 102 0;
#X connect 102 0 103 0;
#X connect 103 0 105 1;
#X connect 104 0 105 0;
#X connect 105 0 106 0;
#X connect 106 0 108 1;
#X connect 107 0 108 0;
#X connect 108 0 109 0;
#X connect 109 0 110 1;
#X connect 110 0 137 0;
#X connect 111 0 112 0;
#X connect 112 0 114 1;
#X connect 113 0 114 0;
#X connect 114 0 115 0;
#X connect 115 0 117 1;
#X connect 116 0 117 0;
#X connect 117 0 118 0;
#X connect 118 0 120 1;
#X connect 119 0 120 0;
#X connect 120 0 121 0;
#X connect 121 0 122 1;
#X connect 122 0 137 0;
#X connect 125 0 122 0;
#X connect 126 0 119 0;
#X connect 126 0 119 1;
#X connect 127 0 116 0;
#X connect 127 0 116 1;
#X connect 128 0 113 0;
#X connect 128 0 113 1;
#X connect 129 0 111 0;
#X connect 129 0 111 1;
#X connect 130 0 110 0;
#X connect 131 0 107 0;
#X connect 131 0 107 1;
#X connect 132 0 104 0;
#X connect 132 0 104 1;
#X connect 133 0 101 0;
#X connect 133 0 101 1;
#X connect 134 0 99 0;
#X connect 134 0 99 1;
#X connect 137 0 340 0;
#X connect 138 0 139 0;
#X connect 139 0 137 1;
#X connect 141 0 138 0;
#X connect 144 0 24 0;
#X connect 145 0 9 0;
#X connect 146 0 11 0;
#X connect 147 0 7 1;
#X connect 148 0 16 0;
#X connect 149 0 17 0;
#X connect 150 0 29 0;
#X connect 151 0 23 1;
#X connect 152 0 28 0;
#X connect 153 0 33 0;
#X connect 153 0 43 0;
#X connect 153 0 51 0;
#X connect 153 0 61 0;
#X connect 154 0 155 0;
#X connect 155 0 229 0;
#X connect 156 0 157 0;
#X connect 157 0 155 1;
#X connect 158 0 230 0;
#X connect 159 0 160 0;
#X connect 160 0 158 1;
#X connect 161 0 158 0;
#X connect 162 0 161 0;
#X connect 163 0 159 0;
#X connect 164 0 156 0;
#X connect 165 0 231 0;
#X connect 166 0 167 0;
#X connect 167 0 165 1;
#X connect 168 0 169 0;
#X connect 169 0 165 0;
#X connect 170 0 166 0;
#X connect 171 0 232 0;
#X connect 172 0 173 0;
#X connect 173 0 171 1;
#X connect 174 0 171 0;
#X connect 175 0 172 0;
#X connect 176 0 177 0;
#X connect 177 0 179 1;
#X connect 178 0 179 0;
#X connect 179 0 180 0;
#X connect 180 0 182 1;
#X connect 181 0 182 0;
#X connect 182 0 183 0;
#X connect 183 0 185 1;
#X connect 184 0 185 0;
#X connect 185 0 186 0;
#X connect 186 0 187 1;
#X connect 187 0 224 0;
#X connect 188 0 189 0;
#X connect 189 0 191 1;
#X connect 190 0 191 0;
#X connect 191 0 192 0;
#X connect 192 0 194 1;
#X connect 193 0 194 0;
#X connect 194 0 195 0;
#X connect 195 0 197 1;
#X connect 196 0 197 0;
#X connect 197 0 198 0;
#X connect 198 0 199 1;
#X connect 199 0 224 0;
#X connect 200 0 201 0;
#X connect 201 0 203 1;
#X connect 202 0 203 0;
#X connect 203 0 204 0;
#X connect 204 0 206 1;
#X connect 205 0 206 0;
#X connect 206 0 207 0;
#X connect 207 0 209 1;
#X connect 208 0 209 0;
#X connect 209 0 210 0;
#X connect 210 0 211 1;
#X connect 211 0 224 0;
#X connect 212 0 213 0;
#X connect 213 0 215 1;
#X connect 214 0 215 0;
#X connect 215 0 216 0;
#X connect 216 0 218 1;
#X connect 217 0 218 0;
#X connect 218 0 219 0;
#X connect 219 0 221 1;
#X connect 220 0 221 0;
#X connect 221 0 222 0;
#X connect 222 0 223 1;
#X connect 223 0 224 0;
#X connect 224 0 341 0;
#X connect 225 0 226 0;
#X connect 226 0 224 1;
#X connect 227 0 225 0;
#X connect 228 0 154 0;
#X connect 228 0 162 0;
#X connect 228 0 168 0;
#X connect 228 0 174 0;
#X connect 233 0 187 0;
#X connect 234 0 184 0;
#X connect 234 0 184 1;
#X connect 235 0 181 0;
#X connect 235 0 181 1;
#X connect 236 0 178 0;
#X connect 236 0 178 1;
#X connect 237 0 176 0;
#X connect 237 0 176 1;
#X connect 238 0 199 0;
#X connect 239 0 196 0;
#X connect 239 0 196 1;
#X connect 240 0 193 0;
#X connect 240 0 193 1;
#X connect 241 0 190 0;
#X connect 241 0 190 1;
#X connect 242 0 188 0;
#X connect 242 0 188 1;
#X connect 243 0 223 0;
#X connect 244 0 220 0;
#X connect 244 0 220 1;
#X connect 245 0 217 0;
#X connect 245 0 217 1;
#X connect 246 0 214 0;
#X connect 246 0 214 1;
#X connect 247 0 212 0;
#X connect 247 0 212 1;
#X connect 248 0 211 0;
#X connect 249 0 208 0;
#X connect 249 0 208 1;
#X connect 250 0 205 0;
#X connect 250 0 205 1;
#X connect 251 0 202 0;
#X connect 251 0 202 1;
#X connect 252 0 200 0;
#X connect 252 0 200 1;
#X connect 254 0 301 0;
#X connect 255 0 302 0;
#X connect 260 0 302 0;
#X connect 261 0 301 0;
#X connect 262 0 25 0;
#X connect 265 0 266 0;
#X connect 266 0 1 1;
#X connect 267 0 1 0;
#X connect 268 0 265 0;
#X connect 269 0 0 1;
#X connect 270 0 0 2;
#X connect 272 0 286 0;
#X connect 273 0 272 0;
#X connect 274 0 275 0;
#X connect 275 0 273 1;
#X connect 276 0 274 0;
#X connect 277 0 272 1;
#X connect 278 0 272 2;
#X connect 279 0 273 0;
#X connect 282 0 271 0;
#X connect 283 0 284 0;
#X connect 284 0 282 1;
#X connect 285 0 283 0;
#X connect 286 0 280 0;
#X connect 287 0 288 0;
#X connect 288 0 286 1;
#X connect 289 0 287 0;
#X connect 299 0 302 0;
#X connect 300 0 301 0;
#X connect 301 0 331 0;
#X connect 302 0 318 0;
#X connect 307 0 308 0;
#X connect 308 0 309 0;
#X connect 309 0 310 0;
#X connect 310 0 311 0;
#X connect 311 0 318 1;
#X connect 312 0 313 0;
#X connect 313 0 314 0;
#X connect 314 0 315 0;
#X connect 315 0 316 0;
#X connect 316 0 317 0;
#X connect 317 0 319 1;
#X connect 318 0 304 0;
#X connect 319 0 304 0;
#X connect 320 0 321 0;
#X connect 321 0 322 0;
#X connect 322 0 323 0;
#X connect 323 0 324 0;
#X connect 324 0 331 1;
#X connect 325 0 326 0;
#X connect 326 0 327 0;
#X connect 327 0 328 0;
#X connect 328 0 329 0;
#X connect 329 0 330 0;
#X connect 330 0 332 1;
#X connect 331 0 303 0;
#X connect 332 0 303 0;
#X connect 335 0 332 0;
#X connect 336 0 319 0;
#X connect 337 0 333 0;
#X connect 337 0 256 0;
#X connect 337 0 297 0;
#X connect 337 0 258 0;
#X connect 338 0 334 0;
#X connect 338 0 257 0;
#X connect 338 0 259 0;
#X connect 338 0 298 0;
#X connect 340 0 140 0;
#X connect 341 0 253 0;
#X connect 342 0 142 0;
#X connect 343 0 143 0;
#X connect 345 0 346 0;
#X connect 346 0 13 0;
#X connect 347 0 348 0;
#X connect 348 0 27 0;
#X coords 0 -1 1 1 800 240 1 100 100;
