#N canvas -8 -8 2560 997 12;
#X obj 443 1003 delwrite~ \$0-left 260;
#X obj 39 1182 metro 1500;
#X obj 39 1210 random 73;
#X obj 39 1268 vline~;
#X msg 39 1240 \$1 750 \, 0 750 750;
#X obj 38 1296 +~ 47;
#X obj 38 2067 dac~;
#X obj 84 452 s~ \$0-dryleft;
#X obj 36 1733 r~ \$0-dryleft;
#X obj 37 1911 *~;
#X obj 55 1883 vline~;
#X msg 55 1855 \$1 20;
#X obj 39 1155 loadbang;
#X obj 193 1183 metro 1500;
#X obj 193 1269 vline~;
#X msg 193 1241 \$1 750 \, 0 750 750;
#X obj 193 1156 loadbang;
#X obj 193 1211 random 14;
#X obj 192 1297 +~ 120;
#X obj 347 1270 vline~;
#X obj 347 1157 loadbang;
#X obj 347 1184 metro 1600;
#X obj 347 1212 random 12;
#X msg 347 1242 \$1 800 \, 0 800 800;
#X obj 346 1298 +~ 134;
#X obj 497 1270 vline~;
#X obj 497 1157 loadbang;
#X obj 497 1184 metro 1600;
#X obj 497 1212 random 12;
#X msg 497 1242 \$1 800 \, 0 800 800;
#X obj 496 1298 +~ 146;
#X obj 644 1270 vline~;
#X obj 644 1157 loadbang;
#X obj 644 1184 metro 1800;
#X obj 644 1212 random 11;
#X msg 644 1242 \$1 900 \, 0 900 900;
#X obj 643 1298 +~ 158;
#X obj 793 1268 vline~;
#X obj 793 1155 loadbang;
#X obj 793 1182 metro 1800;
#X obj 793 1210 random 11;
#X msg 793 1240 \$1 900 \, 0 900 900;
#X obj 792 1296 +~ 169;
#X obj 942 1265 vline~;
#X obj 942 1152 loadbang;
#X obj 942 1179 metro 2100;
#X obj 942 1207 random 10;
#X msg 942 1237 \$1 1050 \, 0 1050 1050;
#X obj 941 1293 +~ 180;
#X obj 1106 1265 vline~;
#X obj 1106 1152 loadbang;
#X obj 1106 1179 metro 2100;
#X obj 1106 1207 random 10;
#X msg 1106 1237 \$1 1050 \, 0 1050 1050;
#X obj 1105 1293 +~ 190;
#X obj 38 1537 vline~;
#X obj 37 1565 +~ 47;
#X obj 38 1424 loadbang;
#X obj 192 1538 vline~;
#X obj 192 1425 loadbang;
#X obj 191 1566 +~ 120;
#X obj 346 1539 vline~;
#X obj 346 1426 loadbang;
#X obj 345 1567 +~ 134;
#X obj 496 1539 vline~;
#X obj 496 1426 loadbang;
#X obj 495 1567 +~ 146;
#X obj 643 1539 vline~;
#X obj 643 1426 loadbang;
#X obj 642 1567 +~ 158;
#X obj 800 1539 vline~;
#X obj 800 1426 loadbang;
#X obj 799 1567 +~ 169;
#X obj 954 1538 vline~;
#X obj 954 1425 loadbang;
#X obj 953 1566 +~ 180;
#X obj 1118 1538 vline~;
#X obj 1118 1425 loadbang;
#X obj 1117 1566 +~ 190;
#X obj 38 1451 metro 2300;
#X obj 192 1452 metro 2300;
#X obj 346 1453 metro 3300;
#X obj 496 1453 metro 3300;
#X obj 643 1453 metro 5500;
#X obj 800 1453 metro 5500;
#X obj 954 1452 metro 8200;
#X obj 1118 1452 metro 8200;
#X obj 38 1479 random 9;
#X obj 192 1480 random 9;
#X obj 346 1481 random 8;
#X obj 496 1481 random 8;
#X obj 643 1481 random 7;
#X obj 800 1481 random 7;
#X obj 954 1480 random 4;
#X obj 1118 1480 random 3;
#X msg 38 1509 \$1 1150 \, 0 1150 1150;
#X msg 192 1510 \$1 1150 \, 0 1150 1150;
#X msg 346 1511 \$1 1650 \, 0 1650 1650;
#X msg 496 1511 \$1 1650 \, 0 1650 1650;
#X msg 643 1511 \$1 2750 \, 0 2750 2750;
#X msg 800 1511 \$1 2750 \, 0 2750 2750;
#X msg 954 1510 \$1 4100 \, 0 4100 4100;
#X msg 1118 1510 \$1 4100 \, 0 4100 4100;
#X obj 37 1655 throw~ \$0-feedbackL;
#X obj 191 1654 throw~ \$0-feedbackL;
#X obj 345 1654 throw~ \$0-feedbackL;
#X obj 495 1654 throw~ \$0-feedbackL;
#X obj 642 1655 throw~ \$0-feedbackL;
#X obj 799 1652 throw~ \$0-feedbackL;
#X obj 953 1651 throw~ \$0-feedbackL;
#X obj 1117 1651 throw~ \$0-feedbackL;
#X obj 290 1833 *~;
#X obj 308 1805 vline~;
#X msg 308 1777 \$1 20;
#X obj 462 794 *~;
#X obj 480 766 vline~;
#X msg 480 738 \$1 20;
#X obj 38 1385 throw~ \$0-feedbackL;
#X obj 192 1384 throw~ \$0-feedbackL;
#X obj 346 1384 throw~ \$0-feedbackL;
#X obj 496 1384 throw~ \$0-feedbackL;
#X obj 643 1385 throw~ \$0-feedbackL;
#X obj 792 1382 throw~ \$0-feedbackL;
#X obj 940 1380 throw~ \$0-feedbackL;
#X obj 1104 1380 throw~ \$0-feedbackL;
#X obj 462 687 catch~ \$0-feedbackL;
#X obj 38 1356 *~ 0.2;
#X obj 192 1355 *~ 0.2;
#X obj 346 1354 *~ 0.2;
#X obj 496 1355 *~ 0.2;
#X obj 643 1355 *~ 0.2;
#X obj 792 1353 *~ 0.2;
#X obj 940 1351 *~ 0.2;
#X obj 1104 1351 *~ 0.2;
#X obj 37 1626 *~ 0.2;
#X obj 191 1626 *~ 0.2;
#X obj 345 1625 *~ 0.2;
#X obj 495 1625 *~ 0.2;
#X obj 641 1625 *~ 0.2;
#X obj 799 1623 *~ 0.2;
#X obj 953 1621 *~ 0.2;
#X obj 1117 1622 *~ 0.2;
#X obj 292 1728 delread~ \$0-left 60;
#X obj 467 1833 *~;
#X obj 485 1805 vline~;
#X msg 485 1777 \$1 20;
#X obj 630 1831 *~;
#X obj 648 1803 vline~;
#X msg 648 1775 \$1 20;
#X obj 798 1829 *~;
#X obj 816 1801 vline~;
#X msg 816 1773 \$1 20;
#X obj 963 1826 *~;
#X obj 981 1798 vline~;
#X msg 981 1770 \$1 20;
#X obj 1131 1824 *~;
#X obj 1149 1796 vline~;
#X msg 1149 1768 \$1 20;
#X obj 1293 1821 *~;
#X obj 1311 1793 vline~;
#X msg 1311 1765 \$1 20;
#X obj 1461 1819 *~;
#X obj 1479 1791 vline~;
#X msg 1479 1763 \$1 20;
#X obj 468 1728 delread~ \$0-left 77;
#X obj 631 1726 delread~ \$0-left 137;
#X obj 799 1724 delread~ \$0-left 112;
#X obj 964 1721 delread~ \$0-left 175;
#X obj 1132 1719 delread~ \$0-left 160;
#X obj 1294 1716 delread~ \$0-left 190;
#X obj 1462 1714 delread~ \$0-left 212;
#X obj 462 920 lop~ 8000;
#X obj 463 966 hip~ 20;
#X obj 696 233 hsl 128 15 20 20000 1 0 \$0-fblop-s \$0-fblop-r empty
-2 -8 1 10 -62548 -188423 -1 0 1;
#X obj 290 1866 *~ 0.5;
#X obj 442 649 hip~ 20;
#X obj 442 599 lop~ 20000;
#X obj 1413 1173 metro 1500;
#X obj 1413 1201 random 73;
#X obj 1413 1259 vline~;
#X msg 1413 1231 \$1 750 \, 0 750 750;
#X obj 1412 1287 +~ 47;
#X obj 1413 1146 loadbang;
#X obj 1567 1174 metro 1500;
#X obj 1567 1260 vline~;
#X msg 1567 1232 \$1 750 \, 0 750 750;
#X obj 1567 1147 loadbang;
#X obj 1567 1202 random 14;
#X obj 1566 1288 +~ 120;
#X obj 1721 1261 vline~;
#X obj 1721 1148 loadbang;
#X obj 1721 1175 metro 1600;
#X obj 1721 1203 random 12;
#X msg 1721 1233 \$1 800 \, 0 800 800;
#X obj 1720 1289 +~ 134;
#X obj 1871 1261 vline~;
#X obj 1871 1148 loadbang;
#X obj 1871 1175 metro 1600;
#X obj 1871 1203 random 12;
#X msg 1871 1233 \$1 800 \, 0 800 800;
#X obj 1870 1289 +~ 146;
#X obj 2018 1261 vline~;
#X obj 2018 1148 loadbang;
#X obj 2018 1175 metro 1800;
#X obj 2018 1203 random 11;
#X msg 2018 1233 \$1 900 \, 0 900 900;
#X obj 2017 1289 +~ 158;
#X obj 2167 1259 vline~;
#X obj 2167 1146 loadbang;
#X obj 2167 1173 metro 1800;
#X obj 2167 1201 random 11;
#X msg 2167 1231 \$1 900 \, 0 900 900;
#X obj 2166 1287 +~ 169;
#X obj 2316 1256 vline~;
#X obj 2316 1143 loadbang;
#X obj 2316 1170 metro 2100;
#X obj 2316 1198 random 10;
#X msg 2316 1228 \$1 1050 \, 0 1050 1050;
#X obj 2315 1284 +~ 180;
#X obj 2480 1256 vline~;
#X obj 2480 1143 loadbang;
#X obj 2480 1170 metro 2100;
#X obj 2480 1198 random 10;
#X msg 2480 1228 \$1 1050 \, 0 1050 1050;
#X obj 2479 1284 +~ 190;
#X obj 1412 1528 vline~;
#X obj 1411 1556 +~ 47;
#X obj 1412 1415 loadbang;
#X obj 1566 1529 vline~;
#X obj 1566 1416 loadbang;
#X obj 1565 1557 +~ 120;
#X obj 1720 1530 vline~;
#X obj 1720 1417 loadbang;
#X obj 1719 1558 +~ 134;
#X obj 1870 1530 vline~;
#X obj 1870 1417 loadbang;
#X obj 1869 1558 +~ 146;
#X obj 2017 1530 vline~;
#X obj 2017 1417 loadbang;
#X obj 2016 1558 +~ 158;
#X obj 2174 1530 vline~;
#X obj 2174 1417 loadbang;
#X obj 2173 1558 +~ 169;
#X obj 2328 1529 vline~;
#X obj 2328 1416 loadbang;
#X obj 2327 1557 +~ 180;
#X obj 2492 1529 vline~;
#X obj 2492 1416 loadbang;
#X obj 2491 1557 +~ 190;
#X obj 1412 1442 metro 2300;
#X obj 1566 1443 metro 2300;
#X obj 1720 1444 metro 3300;
#X obj 1870 1444 metro 3300;
#X obj 2017 1444 metro 5500;
#X obj 2174 1444 metro 5500;
#X obj 2328 1443 metro 8200;
#X obj 2492 1443 metro 8200;
#X obj 1412 1470 random 9;
#X obj 1566 1471 random 9;
#X obj 1720 1472 random 8;
#X obj 1870 1472 random 8;
#X obj 2017 1472 random 7;
#X obj 2174 1472 random 7;
#X obj 2328 1471 random 4;
#X obj 2492 1471 random 3;
#X msg 1412 1500 \$1 1150 \, 0 1150 1150;
#X msg 1566 1501 \$1 1150 \, 0 1150 1150;
#X msg 1720 1502 \$1 1650 \, 0 1650 1650;
#X msg 1870 1502 \$1 1650 \, 0 1650 1650;
#X msg 2017 1502 \$1 2750 \, 0 2750 2750;
#X msg 2174 1502 \$1 2750 \, 0 2750 2750;
#X msg 2328 1501 \$1 4100 \, 0 4100 4100;
#X msg 2492 1501 \$1 4100 \, 0 4100 4100;
#X obj 1412 1347 *~ 0.2;
#X obj 1566 1346 *~ 0.2;
#X obj 1720 1345 *~ 0.2;
#X obj 1870 1346 *~ 0.2;
#X obj 2017 1346 *~ 0.2;
#X obj 2166 1344 *~ 0.2;
#X obj 2314 1342 *~ 0.2;
#X obj 2478 1342 *~ 0.2;
#X obj 1411 1617 *~ 0.2;
#X obj 1565 1617 *~ 0.2;
#X obj 1719 1616 *~ 0.2;
#X obj 1869 1616 *~ 0.2;
#X obj 2015 1616 *~ 0.2;
#X obj 2173 1614 *~ 0.2;
#X obj 2327 1612 *~ 0.2;
#X obj 2491 1613 *~ 0.2;
#X obj 38 1325 vd~ \$0-left;
#X obj 192 1325 vd~ \$0-left;
#X obj 346 1326 vd~ \$0-left;
#X obj 496 1328 vd~ \$0-left;
#X obj 643 1326 vd~ \$0-left;
#X obj 792 1324 vd~ \$0-left;
#X obj 940 1321 vd~ \$0-left;
#X obj 1105 1321 vd~ \$0-left;
#X obj 1117 1594 vd~ \$0-left;
#X obj 953 1594 vd~ \$0-left;
#X obj 799 1595 vd~ \$0-left;
#X obj 642 1597 vd~ \$0-left;
#X obj 495 1595 vd~ \$0-left;
#X obj 345 1595 vd~ \$0-left;
#X obj 191 1594 vd~ \$0-left;
#X obj 37 1593 vd~ \$0-left;
#X obj 1412 1315 vd~ \$0-right;
#X obj 1566 1316 vd~ \$0-right;
#X obj 1720 1317 vd~ \$0-right;
#X obj 1870 1317 vd~ \$0-right;
#X obj 2017 1317 vd~ \$0-right;
#X obj 2166 1315 vd~ \$0-right;
#X obj 2315 1312 vd~ \$0-right;
#X obj 2479 1312 vd~ \$0-right;
#X obj 2491 1585 vd~ \$0-right;
#X obj 2327 1585 vd~ \$0-right;
#X obj 2173 1586 vd~ \$0-right;
#X obj 2016 1585 vd~ \$0-right;
#X obj 1869 1586 vd~ \$0-right;
#X obj 1719 1586 vd~ \$0-right;
#X obj 1565 1585 vd~ \$0-right;
#X obj 1411 1583 vd~ \$0-right;
#X obj 1412 1376 throw~ \$0-feedbackR;
#X obj 1566 1375 throw~ \$0-feedbackR;
#X obj 1720 1375 throw~ \$0-feedbackR;
#X obj 1870 1376 throw~ \$0-feedbackR;
#X obj 2017 1376 throw~ \$0-feedbackR;
#X obj 2166 1373 throw~ \$0-feedbackR;
#X obj 2314 1371 throw~ \$0-feedbackR;
#X obj 2478 1371 throw~ \$0-feedbackR;
#X obj 2491 1642 throw~ \$0-feedbackR;
#X obj 2327 1642 throw~ \$0-feedbackR;
#X obj 2173 1643 throw~ \$0-feedbackR;
#X obj 2016 1646 throw~ \$0-feedbackR;
#X obj 1869 1645 throw~ \$0-feedbackR;
#X obj 1719 1645 throw~ \$0-feedbackR;
#X obj 1565 1647 throw~ \$0-feedbackR;
#X obj 1411 1646 throw~ \$0-feedbackR;
#X obj 730 1001 delwrite~ \$0-right 260;
#X obj 728 648 hip~ 20;
#X obj 728 597 lop~ 20000;
#X obj 755 792 *~;
#X obj 755 918 lop~ 8000;
#X obj 756 964 hip~ 20;
#X obj 755 685 catch~ \$0-feedbackR;
#X obj 314 198 hsl 128 15 0 1 0 0 \$0-tap1-s \$0-tap1-r empty -2 -8
1 10 -62548 -188423 -1 0 1;
#X obj 308 1752 r \$0-tap1;
#X obj 484 1752 r \$0-tap2;
#X obj 648 1751 r \$0-tap3;
#X obj 815 1747 r \$0-tap4;
#X obj 980 1745 r \$0-tap5;
#X obj 1148 1740 r \$0-tap6;
#X obj 1310 1737 r \$0-tap7;
#X obj 1478 1738 r \$0-tap8;
#X obj 314 233 hsl 128 15 0 1 0 0 \$0-tap2-s \$0-tap2-r empty -2 -8
1 10 -62548 -188423 -1 0 1;
#X obj 314 268 hsl 128 15 0 1 0 0 \$0-tap3-s \$0-tap3-r empty -2 -8
1 10 -62548 -188423 -1 0 1;
#X obj 314 303 hsl 128 15 0 1 0 0 \$0-tap4-s \$0-tap4-r empty -2 -8
1 10 -62548 -188423 -1 0 1;
#X obj 505 198 hsl 128 15 0 1 0 0 \$0-tap5-s \$0-tap5-r empty -2 -8
1 10 -62548 -188423 -1 0 1;
#X obj 505 233 hsl 128 15 0 1 0 0 \$0-tap6-s \$0-tap6-r empty -2 -8
1 10 -62548 -188423 -1 0 1;
#X obj 505 268 hsl 128 15 0 1 0 0 \$0-tap7-s \$0-tap7-r empty -2 -8
1 10 -62548 -188423 -1 0 1;
#X obj 505 303 hsl 128 15 0 1 0 0 \$0-tap8-s \$0-tap8-r empty -2 -8
1 10 -62548 -188423 -1 0 1;
#X obj 696 268 hsl 128 15 20 20000 1 0 \$0-fbhip-s \$0-fbhip-r empty
-2 -8 1 10 -62548 -188423 -1 0 1;
#X obj 523 891 r \$0-fblop;
#X obj 815 891 r \$0-fblop;
#X obj 508 943 r \$0-fbhip;
#X obj 800 940 r \$0-fbhip;
#X obj 123 268 hsl 128 15 20 20000 1 0 \$0-inlop-s \$0-inlop-r empty
-2 -8 1 10 -62548 -188423 -1 0 1;
#X obj 123 303 hsl 128 15 20 20000 1 0 \$0-inhip-s \$0-inhip-r empty
-2 -8 1 10 -62548 -188423 -1 0 1;
#X obj 509 574 r \$0-inlop;
#X obj 488 623 r \$0-inhip;
#X obj 795 571 r \$0-inlop;
#X obj 774 623 r \$0-inhip;
#X obj 773 764 vline~;
#X msg 773 736 \$1 20;
#X obj 442 401 r~ \$0-dryleft;
#X obj 137 426 s~ \$0-dryright;
#X obj 696 165 hsl 128 15 0 2 0 0 \$0-decaytime-s \$0-decaytime-r empty
-2 -8 1 10 -62548 -188423 -1 0 1;
#X obj 772 710 r \$0-decaytime;
#X obj 479 711 r \$0-decaytime;
#X obj 1693 1816 *~;
#X obj 1711 1788 vline~;
#X msg 1711 1760 \$1 20;
#X obj 1870 1816 *~;
#X obj 1888 1788 vline~;
#X msg 1888 1760 \$1 20;
#X obj 2033 1814 *~;
#X obj 2051 1786 vline~;
#X msg 2051 1758 \$1 20;
#X obj 2201 1812 *~;
#X obj 2219 1784 vline~;
#X msg 2219 1756 \$1 20;
#X obj 2366 1809 *~;
#X obj 2384 1781 vline~;
#X msg 2384 1753 \$1 20;
#X obj 2534 1807 *~;
#X obj 2552 1779 vline~;
#X msg 2552 1751 \$1 20;
#X obj 2696 1804 *~;
#X obj 2714 1776 vline~;
#X msg 2714 1748 \$1 20;
#X obj 2864 1802 *~;
#X obj 2882 1774 vline~;
#X msg 2882 1746 \$1 20;
#X obj 1693 1849 *~ 0.5;
#X obj 1711 1735 r \$0-tap1;
#X obj 1887 1735 r \$0-tap2;
#X obj 2051 1734 r \$0-tap3;
#X obj 2218 1730 r \$0-tap4;
#X obj 2383 1728 r \$0-tap5;
#X obj 2551 1723 r \$0-tap6;
#X obj 2713 1720 r \$0-tap7;
#X obj 2881 1721 r \$0-tap8;
#X obj 1695 1711 delread~ \$0-right 60;
#X obj 1871 1711 delread~ \$0-right 77;
#X obj 2034 1709 delread~ \$0-right 137;
#X obj 2202 1707 delread~ \$0-right 112;
#X obj 2367 1704 delread~ \$0-right 175;
#X obj 2535 1702 delread~ \$0-right 160;
#X obj 2697 1699 delread~ \$0-right 190;
#X obj 2865 1696 delread~ \$0-right 212;
#X obj 291 2029 *~;
#X obj 309 2001 vline~;
#X msg 309 1973 \$1 20;
#X obj 1693 2015 *~;
#X obj 1711 1987 vline~;
#X msg 1711 1959 \$1 20;
#X obj 696 303 hsl 128 15 -1 1 0 0 \$0-wetdry-s \$0-wetdry-r empty
-2 -8 1 10 -62548 -188423 -1 0 1;
#X obj 145 1913 *~;
#X obj 163 1885 vline~;
#X msg 163 1857 \$1 20;
#X obj 39 2014 catch~ \$0-dacL;
#X obj 38 1941 throw~ \$0-dacL;
#X obj 145 1941 throw~ \$0-dacR;
#X obj 63 2040 catch~ \$0-dacR;
#X obj 291 2058 throw~ \$0-dacL;
#X obj 1693 2044 throw~ \$0-dacR;
#X obj 308 1892 r \$0-wetdry;
#X obj 1711 1878 r \$0-wetdry;
#X obj 55 1757 r \$0-wetdry;
#X obj 163 1759 r \$0-wetdry;
#X obj 451 430 r~ \$0-dryright;
#X obj 452 457 *~ 0.1;
#X obj 473 824 *~ 0.25;
#X obj 85 398 adc~ 1 2;
#X obj 144 1735 r~ \$0-dryright;
#X obj 123 233 hsl 128 15 0 1.5 0 0 \$0-inputgain-s \$0-inputgain-r
empty -2 -8 1 10 -62548 -188423 -1 6800 1;
#X obj 257 234 nbx 4 14 -1e+037 1e+037 0 0 empty \$0-inputgain empty
0 -8 0 10 -62548 -257983 -188423 0 256;
#X obj 257 269 nbx 4 14 -1e+037 1e+037 0 0 empty \$0-inlop empty 0
-8 0 10 -62548 -257983 -1 0 256;
#X obj 257 304 nbx 4 14 -1e+037 1e+037 0 0 empty \$0-inhip empty 0
-8 0 10 -62548 -257983 -1 0 256;
#X obj 830 234 nbx 4 14 -1e+037 1e+037 0 0 empty \$0-fblop empty 0
-8 0 10 -62548 -257983 -1 0 256;
#X obj 830 269 nbx 4 14 -1e+037 1e+037 0 0 empty \$0-fbhip empty 0
-8 0 10 -62548 -257983 -1 0 256;
#X obj 308 1918 + 1;
#X obj 308 1941 / 2;
#X obj 163 1785 * -1;
#X obj 163 1808 + 1;
#X obj 163 1831 / 2;
#X obj 55 1783 * -1;
#X obj 55 1806 + 1;
#X obj 55 1829 / 2;
#X obj 1711 1905 + 1;
#X obj 1711 1928 / 2;
#X obj 830 304 nbx 4 14 -1e+037 1e+037 0 0 empty \$0-wetdry empty 0
-8 0 10 -62548 -257983 -1 0 256;
#X obj 830 166 nbx 4 14 -1e+037 1e+037 0 0 empty \$0-decaytime empty
0 -8 0 10 -62548 -257983 -1 -1 256;
#X obj 448 199 nbx 4 14 -1e+037 1e+037 0 0 empty \$0-tap1 empty 0 -8
0 10 -62548 -257983 -1 0 256;
#X obj 448 234 nbx 4 14 -1e+037 1e+037 0 0 empty \$0-tap2 empty 0 -8
0 10 -62548 -257983 -1 0 256;
#X obj 448 269 nbx 4 14 -1e+037 1e+037 0 0 empty \$0-tap3 empty 0 -8
0 10 -62548 -257983 -1 0 256;
#X obj 448 304 nbx 4 14 -1e+037 1e+037 0 0 empty \$0-tap4 empty 0 -8
0 10 -62548 -257983 -1 0 256;
#X obj 639 199 nbx 4 14 -1e+037 1e+037 0 0 empty \$0-tap5 empty 0 -8
0 10 -62548 -257983 -1 0 256;
#X obj 639 234 nbx 4 14 -1e+037 1e+037 0 0 empty \$0-tap6 empty 0 -8
0 10 -62548 -257983 -1 0 256;
#X obj 639 269 nbx 4 14 -1e+037 1e+037 0 0 empty \$0-tap7 empty 0 -8
0 10 -62548 -257983 -1 0 256;
#X obj 639 304 nbx 4 14 -1e+037 1e+037 0 0 empty \$0-tap8 empty 0 -8
0 10 -62548 -257983 -1 0 256;
#X obj 1034 150 param.get 1;
#X msg 1055 189 set \$1;
#X obj 1034 260 s \$0-inputgain;
#X obj 1025 89 param.change;
#X obj 1034 292 param.set 1 \$0-inputgain-s;
#X msg 1051 364 set \$1;
#X obj 1030 325 param.get 2;
#X obj 1030 435 s \$0-inlop;
#X obj 1029 469 param.set 2 \$0-inlop-s;
#X msg 1045 552 set \$1;
#X msg 1392 187 set \$1;
#X obj 1024 513 param.get 3;
#X obj 1024 623 s \$0-inhip;
#X obj 1024 655 param.set 3 \$0-inhip-s;
#X obj 1371 148 param.get 4;
#X obj 1371 258 s \$0-tap1;
#X obj 1370 292 param.set 4 \$0-tap1-s;
#X msg 1386 372 set \$1;
#X msg 1389 550 set \$1;
#X msg 1384 727 set \$1;
#X msg 1658 190 set \$1;
#X msg 1652 375 set \$1;
#X msg 1655 553 set \$1;
#X msg 1650 730 set \$1;
#X obj 1365 333 param.get 5;
#X obj 1366 443 s \$0-tap2;
#X obj 1364 477 param.set 5 \$0-tap2-s;
#X obj 1368 511 param.get 6;
#X obj 1368 621 s \$0-tap3;
#X obj 1367 655 param.set 6 \$0-tap3-s;
#X obj 1363 688 param.get 7;
#X obj 1363 798 s \$0-tap4;
#X obj 1362 832 param.set 7 \$0-tap4-s;
#X obj 1637 151 param.get 8;
#X obj 1637 261 s \$0-tap5;
#X obj 1636 295 param.set 8 \$0-tap5-s;
#X obj 1631 336 param.get 9;
#X obj 1634 514 param.get 10;
#X obj 1631 446 s \$0-tap6;
#X obj 1630 480 param.set 9 \$0-tap6-s;
#X obj 1636 624 s \$0-tap7;
#X obj 1633 658 param.set 10 \$0-tap7-s;
#X obj 1629 801 s \$0-tap8;
#X msg 1945 172 set \$1;
#X msg 1943 540 set \$1;
#X msg 1946 718 set \$1;
#X obj 1055 216 s \$0-inputgain-r;
#X obj 1051 391 s \$0-inlop-r;
#X obj 1045 579 s \$0-inhip-r;
#X obj 1392 214 s \$0-tap1-r;
#X obj 1386 399 s \$0-tap2-r;
#X obj 1389 577 s \$0-tap3-r;
#X obj 1384 754 s \$0-tap4-r;
#X obj 1658 217 s \$0-tap5-r;
#X obj 1652 402 s \$0-tap6-r;
#X obj 1655 580 s \$0-tap7-r;
#X obj 1650 757 s \$0-tap8-r;
#X obj 1945 199 s \$0-decaytime-r;
#X obj 1924 242 s \$0-decaytime;
#X obj 1943 567 s \$0-fblop-r;
#X obj 1922 611 s \$0-fblop;
#X obj 1946 745 s \$0-fbhip-r;
#X obj 1927 789 s \$0-fbhip;
#X obj 1628 691 param.get 11;
#X obj 1924 133 param.get 12;
#X obj 1628 835 param.set 11 \$0-tap8-s;
#X obj 1923 277 param.set 12 \$0-decaytime-s;
#X obj 443 569 *~;
#X obj 461 541 vline~;
#X msg 461 513 \$1 20;
#X obj 460 488 r \$0-inputgain;
#X obj 737 457 *~ 0.1;
#X obj 728 569 *~;
#X obj 746 541 vline~;
#X msg 746 513 \$1 20;
#X obj 745 488 r \$0-inputgain;
#X obj 727 401 r~ \$0-dryright;
#X obj 736 430 r~ \$0-dryleft;
#X obj 95 662 env~;
#X floatatom 95 689 5 0 0 0 - - -;
#X obj 696 199 hsl 128 15 0 100 0 0 \$0-fbthresh-s \$0-fbthresh-r empty
-2 -8 1 10 -62548 -188423 -1 0 1;
#X floatatom 138 682 5 0 0 0 - - -;
#X floatatom 95 750 5 0 0 0 - - -;
#X obj 95 721 -;
#X obj 95 777 moses 0;
#X obj 141 805 / 100;
#X obj 141 832 * -1;
#X obj 141 860 + 1;
#X floatatom 141 887 5 0 0 0 - - -;
#X obj 141 938 vline~;
#X msg 141 913 \$1 20;
#X obj 95 807 t b;
#X msg 95 833 1 500;
#X obj 140 964 s~ \$0-feedbackcomp;
#X obj 461 884 *~;
#X obj 480 856 r~ \$0-feedbackcomp;
#X obj 767 823 *~ 0.25;
#X obj 755 883 *~;
#X obj 774 855 r~ \$0-feedbackcomp;
#X obj 634 711 *~ 0.5;
#X obj 138 654 r \$0-fbthresh;
#X obj 634 736 s~ \$0-compsc;
#X obj 830 200 nbx 4 14 -1e+037 1e+037 0 0 empty \$0-fbthresh empty
0 -8 0 10 -62548 -257983 -1 0 256;
#X obj 96 624 r~ \$0-compsc;
#X text 88 368 input;
#X text 443 366 send to delay line;
#X text 608 658 feedback;
#X text 89 595 feecback supression compressor side chain;
#X text 1041 47 vst DAW interfacing;
#X text 40 1116 feedback modulated taps L;
#X text 1406 1105 feedback modulated taps R;
#X text 298 1696 early reflections (direct monitored taps) L;
#X text 1696 1680 early reflections (direct monitored taps) R;
#X text 37 1700 Dry pass through;
#X text 37 1987 output;
#X msg 1945 898 set \$1;
#X obj 1945 925 s \$0-wetdry-r;
#X obj 1924 969 s \$0-wetdry;
#X obj 1923 859 param.get 16;
#X obj 1924 1003 param.set 16 \$0-wetdry-s;
#X msg 1944 354 set \$1;
#X obj 1923 315 param.get 13;
#X obj 1922 501 param.get 14;
#X obj 1921 645 param.set 14 \$0-fblop-s;
#X obj 1926 679 param.get 15;
#X obj 1924 823 param.set 15 \$0-fbhip-s;
#X obj 1944 381 s \$0-fbthresh-r;
#X obj 1922 459 param.set 13 \$0-fbthresh-s;
#X obj 1923 425 s \$0-fbthresh;
#X connect 1 0 2 0;
#X connect 2 0 4 0;
#X connect 3 0 5 0;
#X connect 4 0 3 0;
#X connect 5 0 289 0;
#X connect 8 0 9 0;
#X connect 9 0 430 0;
#X connect 10 0 9 1;
#X connect 11 0 10 0;
#X connect 12 0 1 0;
#X connect 13 0 17 0;
#X connect 14 0 18 0;
#X connect 15 0 14 0;
#X connect 16 0 13 0;
#X connect 17 0 15 0;
#X connect 18 0 290 0;
#X connect 19 0 24 0;
#X connect 20 0 21 0;
#X connect 21 0 22 0;
#X connect 22 0 23 0;
#X connect 23 0 19 0;
#X connect 24 0 291 0;
#X connect 25 0 30 0;
#X connect 26 0 27 0;
#X connect 27 0 28 0;
#X connect 28 0 29 0;
#X connect 29 0 25 0;
#X connect 30 0 292 0;
#X connect 31 0 36 0;
#X connect 32 0 33 0;
#X connect 33 0 34 0;
#X connect 34 0 35 0;
#X connect 35 0 31 0;
#X connect 36 0 293 0;
#X connect 37 0 42 0;
#X connect 38 0 39 0;
#X connect 39 0 40 0;
#X connect 40 0 41 0;
#X connect 41 0 37 0;
#X connect 42 0 294 0;
#X connect 43 0 48 0;
#X connect 44 0 45 0;
#X connect 45 0 46 0;
#X connect 46 0 47 0;
#X connect 47 0 43 0;
#X connect 48 0 295 0;
#X connect 49 0 54 0;
#X connect 50 0 51 0;
#X connect 51 0 52 0;
#X connect 52 0 53 0;
#X connect 53 0 49 0;
#X connect 54 0 296 0;
#X connect 55 0 56 0;
#X connect 56 0 304 0;
#X connect 57 0 79 0;
#X connect 58 0 60 0;
#X connect 59 0 80 0;
#X connect 60 0 303 0;
#X connect 61 0 63 0;
#X connect 62 0 81 0;
#X connect 63 0 302 0;
#X connect 64 0 66 0;
#X connect 65 0 82 0;
#X connect 66 0 301 0;
#X connect 67 0 69 0;
#X connect 68 0 83 0;
#X connect 69 0 300 0;
#X connect 70 0 72 0;
#X connect 71 0 84 0;
#X connect 72 0 299 0;
#X connect 73 0 75 0;
#X connect 74 0 85 0;
#X connect 75 0 298 0;
#X connect 76 0 78 0;
#X connect 77 0 86 0;
#X connect 78 0 297 0;
#X connect 79 0 87 0;
#X connect 80 0 88 0;
#X connect 81 0 89 0;
#X connect 82 0 90 0;
#X connect 83 0 91 0;
#X connect 84 0 92 0;
#X connect 85 0 93 0;
#X connect 86 0 94 0;
#X connect 87 0 95 0;
#X connect 88 0 96 0;
#X connect 89 0 97 0;
#X connect 90 0 98 0;
#X connect 91 0 99 0;
#X connect 92 0 100 0;
#X connect 93 0 101 0;
#X connect 94 0 102 0;
#X connect 95 0 55 0;
#X connect 96 0 58 0;
#X connect 97 0 61 0;
#X connect 98 0 64 0;
#X connect 99 0 67 0;
#X connect 100 0 70 0;
#X connect 101 0 73 0;
#X connect 102 0 76 0;
#X connect 111 0 174 0;
#X connect 112 0 111 1;
#X connect 113 0 112 0;
#X connect 114 0 564 0;
#X connect 114 0 566 0;
#X connect 115 0 114 1;
#X connect 116 0 115 0;
#X connect 125 0 114 0;
#X connect 125 0 569 0;
#X connect 126 0 117 0;
#X connect 127 0 118 0;
#X connect 128 0 119 0;
#X connect 129 0 120 0;
#X connect 130 0 121 0;
#X connect 131 0 122 0;
#X connect 132 0 123 0;
#X connect 133 0 124 0;
#X connect 134 0 103 0;
#X connect 135 0 104 0;
#X connect 136 0 105 0;
#X connect 137 0 106 0;
#X connect 138 0 107 0;
#X connect 139 0 108 0;
#X connect 140 0 109 0;
#X connect 141 0 110 0;
#X connect 142 0 111 0;
#X connect 143 0 174 0;
#X connect 144 0 143 1;
#X connect 145 0 144 0;
#X connect 146 0 174 0;
#X connect 147 0 146 1;
#X connect 148 0 147 0;
#X connect 149 0 174 0;
#X connect 150 0 149 1;
#X connect 151 0 150 0;
#X connect 152 0 174 0;
#X connect 153 0 152 1;
#X connect 154 0 153 0;
#X connect 155 0 174 0;
#X connect 156 0 155 1;
#X connect 157 0 156 0;
#X connect 158 0 174 0;
#X connect 159 0 158 1;
#X connect 160 0 159 0;
#X connect 161 0 174 0;
#X connect 162 0 161 1;
#X connect 163 0 162 0;
#X connect 164 0 143 0;
#X connect 165 0 146 0;
#X connect 166 0 149 0;
#X connect 167 0 152 0;
#X connect 168 0 155 0;
#X connect 169 0 158 0;
#X connect 170 0 161 0;
#X connect 171 0 172 0;
#X connect 172 0 0 0;
#X connect 174 0 419 0;
#X connect 175 0 0 0;
#X connect 176 0 175 0;
#X connect 177 0 178 0;
#X connect 178 0 180 0;
#X connect 179 0 181 0;
#X connect 180 0 179 0;
#X connect 181 0 305 0;
#X connect 182 0 177 0;
#X connect 183 0 187 0;
#X connect 184 0 188 0;
#X connect 185 0 184 0;
#X connect 186 0 183 0;
#X connect 187 0 185 0;
#X connect 188 0 306 0;
#X connect 189 0 194 0;
#X connect 190 0 191 0;
#X connect 191 0 192 0;
#X connect 192 0 193 0;
#X connect 193 0 189 0;
#X connect 194 0 307 0;
#X connect 195 0 200 0;
#X connect 196 0 197 0;
#X connect 197 0 198 0;
#X connect 198 0 199 0;
#X connect 199 0 195 0;
#X connect 200 0 308 0;
#X connect 201 0 206 0;
#X connect 202 0 203 0;
#X connect 203 0 204 0;
#X connect 204 0 205 0;
#X connect 205 0 201 0;
#X connect 206 0 309 0;
#X connect 207 0 212 0;
#X connect 208 0 209 0;
#X connect 209 0 210 0;
#X connect 210 0 211 0;
#X connect 211 0 207 0;
#X connect 212 0 310 0;
#X connect 213 0 218 0;
#X connect 214 0 215 0;
#X connect 215 0 216 0;
#X connect 216 0 217 0;
#X connect 217 0 213 0;
#X connect 218 0 311 0;
#X connect 219 0 224 0;
#X connect 220 0 221 0;
#X connect 221 0 222 0;
#X connect 222 0 223 0;
#X connect 223 0 219 0;
#X connect 224 0 312 0;
#X connect 225 0 226 0;
#X connect 226 0 320 0;
#X connect 227 0 249 0;
#X connect 228 0 230 0;
#X connect 229 0 250 0;
#X connect 230 0 319 0;
#X connect 231 0 233 0;
#X connect 232 0 251 0;
#X connect 233 0 318 0;
#X connect 234 0 236 0;
#X connect 235 0 252 0;
#X connect 236 0 317 0;
#X connect 237 0 239 0;
#X connect 238 0 253 0;
#X connect 239 0 316 0;
#X connect 240 0 242 0;
#X connect 241 0 254 0;
#X connect 242 0 315 0;
#X connect 243 0 245 0;
#X connect 244 0 255 0;
#X connect 245 0 314 0;
#X connect 246 0 248 0;
#X connect 247 0 256 0;
#X connect 248 0 313 0;
#X connect 249 0 257 0;
#X connect 250 0 258 0;
#X connect 251 0 259 0;
#X connect 252 0 260 0;
#X connect 253 0 261 0;
#X connect 254 0 262 0;
#X connect 255 0 263 0;
#X connect 256 0 264 0;
#X connect 257 0 265 0;
#X connect 258 0 266 0;
#X connect 259 0 267 0;
#X connect 260 0 268 0;
#X connect 261 0 269 0;
#X connect 262 0 270 0;
#X connect 263 0 271 0;
#X connect 264 0 272 0;
#X connect 265 0 225 0;
#X connect 266 0 228 0;
#X connect 267 0 231 0;
#X connect 268 0 234 0;
#X connect 269 0 237 0;
#X connect 270 0 240 0;
#X connect 271 0 243 0;
#X connect 272 0 246 0;
#X connect 273 0 321 0;
#X connect 274 0 322 0;
#X connect 275 0 323 0;
#X connect 276 0 324 0;
#X connect 277 0 325 0;
#X connect 278 0 326 0;
#X connect 279 0 327 0;
#X connect 280 0 328 0;
#X connect 281 0 336 0;
#X connect 282 0 335 0;
#X connect 283 0 334 0;
#X connect 284 0 333 0;
#X connect 285 0 332 0;
#X connect 286 0 331 0;
#X connect 287 0 330 0;
#X connect 288 0 329 0;
#X connect 289 0 126 0;
#X connect 290 0 127 0;
#X connect 291 0 128 0;
#X connect 292 0 129 0;
#X connect 293 0 130 0;
#X connect 294 0 131 0;
#X connect 295 0 132 0;
#X connect 296 0 133 0;
#X connect 297 0 141 0;
#X connect 298 0 140 0;
#X connect 299 0 139 0;
#X connect 300 0 138 0;
#X connect 301 0 137 0;
#X connect 302 0 136 0;
#X connect 303 0 135 0;
#X connect 304 0 134 0;
#X connect 305 0 273 0;
#X connect 306 0 274 0;
#X connect 307 0 275 0;
#X connect 308 0 276 0;
#X connect 309 0 277 0;
#X connect 310 0 278 0;
#X connect 311 0 279 0;
#X connect 312 0 280 0;
#X connect 313 0 288 0;
#X connect 314 0 287 0;
#X connect 315 0 286 0;
#X connect 316 0 285 0;
#X connect 317 0 284 0;
#X connect 318 0 283 0;
#X connect 319 0 282 0;
#X connect 320 0 281 0;
#X connect 338 0 337 0;
#X connect 339 0 338 0;
#X connect 340 0 441 0;
#X connect 340 0 567 0;
#X connect 341 0 342 0;
#X connect 342 0 337 0;
#X connect 343 0 340 0;
#X connect 343 0 569 0;
#X connect 345 0 113 0;
#X connect 346 0 145 0;
#X connect 347 0 148 0;
#X connect 348 0 151 0;
#X connect 349 0 154 0;
#X connect 350 0 157 0;
#X connect 351 0 160 0;
#X connect 352 0 163 0;
#X connect 361 0 171 1;
#X connect 362 0 341 1;
#X connect 363 0 172 1;
#X connect 364 0 342 1;
#X connect 367 0 176 1;
#X connect 368 0 175 1;
#X connect 369 0 339 1;
#X connect 370 0 338 1;
#X connect 371 0 340 1;
#X connect 372 0 371 0;
#X connect 373 0 537 0;
#X connect 376 0 372 0;
#X connect 377 0 116 0;
#X connect 378 0 402 0;
#X connect 379 0 378 1;
#X connect 380 0 379 0;
#X connect 381 0 402 0;
#X connect 382 0 381 1;
#X connect 383 0 382 0;
#X connect 384 0 402 0;
#X connect 385 0 384 1;
#X connect 386 0 385 0;
#X connect 387 0 402 0;
#X connect 388 0 387 1;
#X connect 389 0 388 0;
#X connect 390 0 402 0;
#X connect 391 0 390 1;
#X connect 392 0 391 0;
#X connect 393 0 402 0;
#X connect 394 0 393 1;
#X connect 395 0 394 0;
#X connect 396 0 402 0;
#X connect 397 0 396 1;
#X connect 398 0 397 0;
#X connect 399 0 402 0;
#X connect 400 0 399 1;
#X connect 401 0 400 0;
#X connect 402 0 422 0;
#X connect 403 0 380 0;
#X connect 404 0 383 0;
#X connect 405 0 386 0;
#X connect 406 0 389 0;
#X connect 407 0 392 0;
#X connect 408 0 395 0;
#X connect 409 0 398 0;
#X connect 410 0 401 0;
#X connect 411 0 378 0;
#X connect 412 0 381 0;
#X connect 413 0 384 0;
#X connect 414 0 387 0;
#X connect 415 0 390 0;
#X connect 416 0 393 0;
#X connect 417 0 396 0;
#X connect 418 0 399 0;
#X connect 419 0 433 0;
#X connect 420 0 419 1;
#X connect 421 0 420 0;
#X connect 422 0 434 0;
#X connect 423 0 422 1;
#X connect 424 0 423 0;
#X connect 426 0 431 0;
#X connect 427 0 426 1;
#X connect 428 0 427 0;
#X connect 429 0 6 0;
#X connect 432 0 6 1;
#X connect 435 0 450 0;
#X connect 436 0 458 0;
#X connect 437 0 455 0;
#X connect 438 0 452 0;
#X connect 439 0 440 0;
#X connect 440 0 537 0;
#X connect 441 0 564 0;
#X connect 442 0 7 0;
#X connect 442 1 374 0;
#X connect 443 0 426 0;
#X connect 450 0 451 0;
#X connect 451 0 421 0;
#X connect 452 0 453 0;
#X connect 453 0 454 0;
#X connect 454 0 428 0;
#X connect 455 0 456 0;
#X connect 456 0 457 0;
#X connect 457 0 11 0;
#X connect 458 0 459 0;
#X connect 459 0 424 0;
#X connect 470 0 471 0;
#X connect 470 0 472 0;
#X connect 471 0 516 0;
#X connect 475 0 517 0;
#X connect 476 0 475 0;
#X connect 476 0 477 0;
#X connect 479 0 518 0;
#X connect 480 0 519 0;
#X connect 481 0 479 0;
#X connect 481 0 482 0;
#X connect 484 0 480 0;
#X connect 484 0 485 0;
#X connect 487 0 520 0;
#X connect 488 0 521 0;
#X connect 489 0 522 0;
#X connect 490 0 523 0;
#X connect 491 0 524 0;
#X connect 492 0 525 0;
#X connect 493 0 526 0;
#X connect 494 0 487 0;
#X connect 494 0 495 0;
#X connect 497 0 488 0;
#X connect 497 0 498 0;
#X connect 500 0 489 0;
#X connect 500 0 501 0;
#X connect 503 0 490 0;
#X connect 503 0 504 0;
#X connect 506 0 491 0;
#X connect 506 0 508 0;
#X connect 507 0 492 0;
#X connect 507 0 510 0;
#X connect 513 0 527 0;
#X connect 514 0 529 0;
#X connect 515 0 531 0;
#X connect 533 0 493 0;
#X connect 533 0 512 0;
#X connect 534 0 513 0;
#X connect 534 0 528 0;
#X connect 537 0 176 0;
#X connect 538 0 537 1;
#X connect 539 0 538 0;
#X connect 540 0 539 0;
#X connect 541 0 542 0;
#X connect 542 0 339 0;
#X connect 543 0 542 1;
#X connect 544 0 543 0;
#X connect 545 0 544 0;
#X connect 546 0 542 0;
#X connect 547 0 541 0;
#X connect 548 0 549 0;
#X connect 549 0 553 0;
#X connect 551 0 553 1;
#X connect 552 0 554 0;
#X connect 553 0 552 0;
#X connect 554 0 561 0;
#X connect 554 1 555 0;
#X connect 555 0 556 0;
#X connect 556 0 557 0;
#X connect 557 0 558 0;
#X connect 558 0 560 0;
#X connect 559 0 563 0;
#X connect 560 0 559 0;
#X connect 561 0 562 0;
#X connect 562 0 559 0;
#X connect 564 0 171 0;
#X connect 565 0 564 1;
#X connect 566 0 567 0;
#X connect 567 0 341 0;
#X connect 568 0 567 1;
#X connect 569 0 571 0;
#X connect 570 0 551 0;
#X connect 573 0 548 0;
#X connect 585 0 586 0;
#X connect 588 0 585 0;
#X connect 588 0 587 0;
#X connect 590 0 596 0;
#X connect 591 0 590 0;
#X connect 591 0 598 0;
#X connect 592 0 514 0;
#X connect 592 0 530 0;
#X connect 594 0 515 0;
#X connect 594 0 532 0;
#X coords 0 -1 1 1 800 240 1 100 100;
