#N canvas 596 43 1864 923 12;
#X obj 63 482 vcf~;
#X obj 125 212 hsl 128 15 20 20000 1 0 \$0-f1-freq empty F1_Freq -2
-8 0 10 -262144 -1 -1 5800 1;
#X obj 125 254 hsl 128 15 2 500 1 0 \$0-f1-q empty F1_Q -2 -8 0 10
-262144 -1 -1 12700 1;
#X floatatom 106 458 5 0 0 0 - - -;
#X obj 106 509 + 1;
#X msg 106 535 \$1 20;
#X obj 106 561 vline~;
#X obj 63 589 *~;
#X obj 88 430 r \$0-f1-q;
#X obj 260 254 nbx 4 15 -1e+037 1e+037 0 0 empty \$0-f1-q empty 0 -8
0 10 -262144 -1 -1 500 256;
#X obj 75 404 r \$0-f1-freq;
#X obj 260 212 nbx 4 15 -1e+037 1e+037 0 0 empty \$0-f1-freq empty
0 -8 0 10 -262144 -1 -1 468.931 256;
#X obj 126 290 hsl 128 15 0 1 0 0 \$0-f1-gain empty F1_Gain -2 -8 0
10 -262144 -1 -1 8400 1;
#X obj 261 290 nbx 4 15 -1e+037 1e+037 0 0 empty \$0-f1-gain empty
0 -8 0 10 -262144 -1 -1 0.661417 256;
#X obj 63 693 vcf~;
#X floatatom 106 669 5 0 0 0 - - -;
#X obj 106 720 + 1;
#X msg 106 746 \$1 20;
#X obj 106 772 vline~;
#X obj 63 800 *~;
#X obj 88 641 r \$0-f1-q;
#X obj 75 615 r \$0-f1-freq;
#X obj 63 905 *~;
#X msg 82 854 \$1 20;
#X obj 82 880 vline~;
#X obj 82 828 r \$0-f1-gain;
#X obj 182 481 vcf~;
#X floatatom 225 457 5 0 0 0 - - -;
#X obj 225 508 + 1;
#X msg 225 534 \$1 20;
#X obj 225 560 vline~;
#X obj 182 588 *~;
#X obj 207 429 r \$0-f1-q;
#X obj 194 403 r \$0-f1-freq;
#X obj 182 692 vcf~;
#X floatatom 225 668 5 0 0 0 - - -;
#X obj 225 719 + 1;
#X msg 225 745 \$1 20;
#X obj 225 771 vline~;
#X obj 182 799 *~;
#X obj 207 640 r \$0-f1-q;
#X obj 194 614 r \$0-f1-freq;
#X obj 182 904 *~;
#X msg 201 853 \$1 20;
#X obj 201 879 vline~;
#X obj 201 827 r \$0-f1-gain;
#X obj 225 482 / 100;
#X obj 106 483 / 100;
#X obj 63 932 throw~ \$0-dacL;
#X obj 1457 336 dac~;
#X obj 1413 207 catch~ \$0-dacL;
#X obj 1538 205 catch~ \$0-dacR;
#X obj 182 932 throw~ \$0-dacR;
#X obj 225 693 / 100;
#X obj 106 694 / 100;
#X obj 315 212 hsl 128 15 20 20000 1 0 \$0-f2-freq empty F2_Freq -2
-8 0 10 -262144 -1 -1 8600 1;
#X obj 315 254 hsl 128 15 2 500 1 0 \$0-f2-q empty F2_Q -2 -8 0 10
-262144 -1 -1 900 1;
#X obj 450 254 nbx 4 15 -1e+037 1e+037 0 0 empty \$0-f2-q empty 0 -8
0 10 -262144 -1 -1 2.95776 256;
#X obj 450 212 nbx 4 15 -1e+037 1e+037 0 0 empty \$0-f2-freq empty
0 -8 0 10 -262144 -1 -1 2150.43 256;
#X obj 316 290 hsl 128 15 0 1 0 0 \$0-f2-gain empty F2_Gain -2 -8 0
10 -262144 -1 -1 7500 1;
#X obj 451 290 nbx 4 15 -1e+037 1e+037 0 0 empty \$0-f2-gain empty
0 -8 0 10 -262144 -1 -1 0.590551 256;
#X obj 507 213 hsl 128 15 20 20000 1 0 \$0-f3-freq empty F3_Freq -2
-8 0 10 -262144 -1 -1 8500 1;
#X obj 507 255 hsl 128 15 2 500 1 0 \$0-f3-q empty F3_Q -2 -8 0 10
-262144 -1 -1 100 1;
#X obj 642 255 nbx 4 15 -1e+037 1e+037 0 0 empty \$0-f3-q empty 0 -8
0 10 -262144 -1 -1 2.08887 256;
#X obj 642 213 nbx 4 15 -1e+037 1e+037 0 0 empty \$0-f3-freq empty
0 -8 0 10 -262144 -1 -1 2036.59 256;
#X obj 508 291 hsl 128 15 0 1 0 0 \$0-f3-gain empty F3_Gain -2 -8 0
10 -262144 -1 -1 7300 1;
#X obj 643 291 nbx 4 15 -1e+037 1e+037 0 0 empty \$0-f3-gain empty
0 -8 0 10 -262144 -1 -1 0.574803 256;
#X obj 701 215 hsl 128 15 20 20000 1 0 \$0-f4-freq empty F4_Freq -2
-8 0 10 -262144 -1 -1 3300 1;
#X obj 701 257 hsl 128 15 2 500 1 0 \$0-f4-q empty F4_Q -2 -8 0 10
-262144 -1 -1 1400 1;
#X obj 836 257 nbx 4 15 -1e+037 1e+037 0 0 empty \$0-f4-q empty 0 -8
0 10 -262144 -1 -1 3.67595 256;
#X obj 836 215 nbx 4 15 -1e+037 1e+037 0 0 empty \$0-f4-freq empty
0 -8 0 10 -262144 -1 -1 120.381 256;
#X obj 702 293 hsl 128 15 0 1 0 0 \$0-f4-gain empty F4_Gain -2 -8 0
10 -262144 -1 -1 7600 1;
#X obj 837 293 nbx 4 15 -1e+037 1e+037 0 0 empty \$0-f4-gain empty
0 -8 0 10 -262144 -1 -1 0.598425 256;
#X obj 62 376 r~ \$0-adcL;
#X obj 182 373 r~ \$0-adcR;
#X obj 398 485 vcf~;
#X floatatom 441 461 5 0 0 0 - - -;
#X obj 441 512 + 1;
#X msg 441 538 \$1 20;
#X obj 441 564 vline~;
#X obj 398 592 *~;
#X obj 398 696 vcf~;
#X floatatom 441 672 5 0 0 0 - - -;
#X obj 441 723 + 1;
#X msg 441 749 \$1 20;
#X obj 441 775 vline~;
#X obj 398 803 *~;
#X obj 398 908 *~;
#X msg 417 857 \$1 20;
#X obj 417 883 vline~;
#X obj 517 484 vcf~;
#X floatatom 560 460 5 0 0 0 - - -;
#X obj 560 511 + 1;
#X msg 560 537 \$1 20;
#X obj 560 563 vline~;
#X obj 517 591 *~;
#X obj 517 695 vcf~;
#X floatatom 560 671 5 0 0 0 - - -;
#X obj 560 722 + 1;
#X msg 560 748 \$1 20;
#X obj 560 774 vline~;
#X obj 517 802 *~;
#X obj 517 907 *~;
#X msg 536 856 \$1 20;
#X obj 536 882 vline~;
#X obj 560 485 / 100;
#X obj 441 486 / 100;
#X obj 398 935 throw~ \$0-dacL;
#X obj 517 935 throw~ \$0-dacR;
#X obj 560 696 / 100;
#X obj 441 697 / 100;
#X obj 397 379 r~ \$0-adcL;
#X obj 517 376 r~ \$0-adcR;
#X obj 701 481 vcf~;
#X floatatom 744 457 5 0 0 0 - - -;
#X obj 744 508 + 1;
#X msg 744 534 \$1 20;
#X obj 744 560 vline~;
#X obj 701 588 *~;
#X obj 701 692 vcf~;
#X floatatom 744 668 5 0 0 0 - - -;
#X obj 744 719 + 1;
#X msg 744 745 \$1 20;
#X obj 744 771 vline~;
#X obj 701 799 *~;
#X obj 701 904 *~;
#X msg 720 853 \$1 20;
#X obj 720 879 vline~;
#X obj 820 480 vcf~;
#X floatatom 863 456 5 0 0 0 - - -;
#X obj 863 507 + 1;
#X msg 863 533 \$1 20;
#X obj 863 559 vline~;
#X obj 820 587 *~;
#X obj 820 691 vcf~;
#X floatatom 863 667 5 0 0 0 - - -;
#X obj 863 718 + 1;
#X msg 863 744 \$1 20;
#X obj 863 770 vline~;
#X obj 820 798 *~;
#X obj 820 903 *~;
#X msg 839 852 \$1 20;
#X obj 839 878 vline~;
#X obj 863 481 / 100;
#X obj 744 482 / 100;
#X obj 701 931 throw~ \$0-dacL;
#X obj 820 931 throw~ \$0-dacR;
#X obj 863 692 / 100;
#X obj 744 693 / 100;
#X obj 700 375 r~ \$0-adcL;
#X obj 820 372 r~ \$0-adcR;
#X obj 994 476 vcf~;
#X floatatom 1037 452 5 0 0 0 - - -;
#X obj 1037 503 + 1;
#X msg 1037 529 \$1 20;
#X obj 1037 555 vline~;
#X obj 994 583 *~;
#X obj 994 687 vcf~;
#X floatatom 1037 663 5 0 0 0 - - -;
#X obj 1037 714 + 1;
#X msg 1037 740 \$1 20;
#X obj 1037 766 vline~;
#X obj 994 794 *~;
#X obj 994 899 *~;
#X msg 1013 848 \$1 20;
#X obj 1013 874 vline~;
#X obj 1113 475 vcf~;
#X floatatom 1156 451 5 0 0 0 - - -;
#X obj 1156 502 + 1;
#X msg 1156 528 \$1 20;
#X obj 1156 554 vline~;
#X obj 1113 582 *~;
#X obj 1113 686 vcf~;
#X floatatom 1156 662 5 0 0 0 - - -;
#X obj 1156 713 + 1;
#X msg 1156 739 \$1 20;
#X obj 1156 765 vline~;
#X obj 1113 793 *~;
#X obj 1113 898 *~;
#X msg 1132 847 \$1 20;
#X obj 1132 873 vline~;
#X obj 1156 476 / 100;
#X obj 1037 477 / 100;
#X obj 994 926 throw~ \$0-dacL;
#X obj 1113 926 throw~ \$0-dacR;
#X obj 1156 687 / 100;
#X obj 1037 688 / 100;
#X obj 993 370 r~ \$0-adcL;
#X obj 1113 367 r~ \$0-adcR;
#X obj 410 407 r \$0-f2-freq;
#X obj 423 433 r \$0-f2-q;
#X obj 410 618 r \$0-f2-freq;
#X obj 423 644 r \$0-f2-q;
#X obj 417 831 r \$0-f2-gain;
#X obj 529 406 r \$0-f2-freq;
#X obj 542 432 r \$0-f2-q;
#X obj 529 617 r \$0-f2-freq;
#X obj 542 643 r \$0-f2-q;
#X obj 536 830 r \$0-f2-gain;
#X obj 720 827 r \$0-f3-gain;
#X obj 726 640 r \$0-f3-q;
#X obj 713 614 r \$0-f3-freq;
#X obj 726 429 r \$0-f3-q;
#X obj 713 403 r \$0-f3-freq;
#X obj 832 402 r \$0-f3-freq;
#X obj 845 428 r \$0-f3-q;
#X obj 832 613 r \$0-f3-freq;
#X obj 845 639 r \$0-f3-q;
#X obj 839 826 r \$0-f3-gain;
#X obj 1006 398 r \$0-f4-freq;
#X obj 1019 424 r \$0-f4-q;
#X obj 1006 609 r \$0-f4-freq;
#X obj 1019 635 r \$0-f4-q;
#X obj 1013 822 r \$0-f4-gain;
#X obj 1132 821 r \$0-f4-gain;
#X obj 1138 634 r \$0-f4-q;
#X obj 1125 608 r \$0-f4-freq;
#X obj 1138 423 r \$0-f4-q;
#X obj 1125 397 r \$0-f4-freq;
#X obj 1415 148 s~ \$0-adcL;
#X obj 1542 150 s~ \$0-adcR;
#X obj 1645 178 *~;
#X obj 1691 179 *~;
#X msg 1710 122 \$1 20;
#X obj 1710 148 vline~;
#X obj 702 175 hsl 128 15 0 1 0 0 \$0-feedback empty Feedback -2 -8
0 10 -262144 -1 -1 7200 1;
#X obj 836 175 nbx 4 15 -1e+037 1e+037 0 0 empty \$0-feedback empty
0 -8 0 10 -262144 -1 -1 0.566929 256;
#X obj 1382 440 r \$0-f1-q;
#X obj 1457 440 r \$0-f2-q;
#X obj 1534 440 r \$0-f3-q;
#X obj 1609 440 r \$0-f4-q;
#X obj 1425 540 max;
#X floatatom 1390 499 5 0 0 0 - - -;
#X obj 1579 538 max;
#X floatatom 1544 497 5 0 0 0 - - -;
#X obj 1510 661 max;
#X floatatom 1510 687 5 0 0 0 - - -;
#X floatatom 1475 620 5 0 0 0 - - -;
#X floatatom 1555 625 5 0 0 0 - - -;
#X obj 1507 572 t b;
#X floatatom 1615 493 5 0 0 0 - - -;
#X obj 1621 525 t b;
#X floatatom 1450 496 5 0 0 0 - - -;
#X obj 1464 521 t b;
#X floatatom 1510 766 5 0 0 0 - - -;
#X obj 1404 737 r \$0-feedback;
#X floatatom 1404 763 5 0 0 0 - - -;
#X obj 1527 794 t b;
#X obj 1455 820 /;
#X obj 1455 876 s \$0-feedback-adjusted;
#X obj 1710 90 r \$0-feedback-adjusted;
#X floatatom 1372 865 5 0 0 0 - - -;
#X obj 1416 116 adc~ 1;
#X obj 1542 119 adc~ 2;
#X obj 1415 283 clip~ -1.5 1.5;
#X obj 1538 281 clip~ -1.5 1.5;
#X obj 1510 738 moses 1;
#X obj 859 139 tgl 15 0 \$0-protec-bypass empty empty 17 7 0 10 -262144
-1 -1 0 1;
#X obj 1534 841 spigot;
#X obj 1573 790 r \$0-protec-bypass;
#X obj 1573 816 -1;
#X obj 1276 846 spigot;
#X obj 1315 795 r \$0-protec-bypass;
#X obj 1510 712 / 70;
#X connect 0 0 7 0;
#X connect 3 0 47 0;
#X connect 4 0 5 0;
#X connect 5 0 6 0;
#X connect 6 0 7 1;
#X connect 7 0 14 0;
#X connect 8 0 3 0;
#X connect 8 0 0 2;
#X connect 10 0 0 1;
#X connect 14 0 19 0;
#X connect 15 0 54 0;
#X connect 16 0 17 0;
#X connect 17 0 18 0;
#X connect 18 0 19 1;
#X connect 19 0 22 0;
#X connect 20 0 15 0;
#X connect 20 0 14 2;
#X connect 21 0 14 1;
#X connect 22 0 48 0;
#X connect 23 0 24 0;
#X connect 24 0 22 1;
#X connect 25 0 23 0;
#X connect 26 0 31 0;
#X connect 27 0 46 0;
#X connect 28 0 29 0;
#X connect 29 0 30 0;
#X connect 30 0 31 1;
#X connect 31 0 34 0;
#X connect 32 0 27 0;
#X connect 32 0 26 2;
#X connect 33 0 26 1;
#X connect 34 0 39 0;
#X connect 35 0 53 0;
#X connect 36 0 37 0;
#X connect 37 0 38 0;
#X connect 38 0 39 1;
#X connect 39 0 42 0;
#X connect 40 0 35 0;
#X connect 40 0 34 2;
#X connect 41 0 34 1;
#X connect 42 0 52 0;
#X connect 43 0 44 0;
#X connect 44 0 42 1;
#X connect 45 0 43 0;
#X connect 46 0 28 0;
#X connect 47 0 4 0;
#X connect 50 0 221 0;
#X connect 50 0 254 0;
#X connect 51 0 222 0;
#X connect 51 0 255 0;
#X connect 53 0 36 0;
#X connect 54 0 16 0;
#X connect 73 0 0 0;
#X connect 74 0 26 0;
#X connect 75 0 80 0;
#X connect 76 0 106 0;
#X connect 77 0 78 0;
#X connect 78 0 79 0;
#X connect 79 0 80 1;
#X connect 80 0 81 0;
#X connect 81 0 86 0;
#X connect 82 0 110 0;
#X connect 83 0 84 0;
#X connect 84 0 85 0;
#X connect 85 0 86 1;
#X connect 86 0 87 0;
#X connect 87 0 107 0;
#X connect 88 0 89 0;
#X connect 89 0 87 1;
#X connect 90 0 95 0;
#X connect 91 0 105 0;
#X connect 92 0 93 0;
#X connect 93 0 94 0;
#X connect 94 0 95 1;
#X connect 95 0 96 0;
#X connect 96 0 101 0;
#X connect 97 0 109 0;
#X connect 98 0 99 0;
#X connect 99 0 100 0;
#X connect 100 0 101 1;
#X connect 101 0 102 0;
#X connect 102 0 108 0;
#X connect 103 0 104 0;
#X connect 104 0 102 1;
#X connect 105 0 92 0;
#X connect 106 0 77 0;
#X connect 109 0 98 0;
#X connect 110 0 83 0;
#X connect 111 0 75 0;
#X connect 112 0 90 0;
#X connect 113 0 118 0;
#X connect 114 0 144 0;
#X connect 115 0 116 0;
#X connect 116 0 117 0;
#X connect 117 0 118 1;
#X connect 118 0 119 0;
#X connect 119 0 124 0;
#X connect 120 0 148 0;
#X connect 121 0 122 0;
#X connect 122 0 123 0;
#X connect 123 0 124 1;
#X connect 124 0 125 0;
#X connect 125 0 145 0;
#X connect 126 0 127 0;
#X connect 127 0 125 1;
#X connect 128 0 133 0;
#X connect 129 0 143 0;
#X connect 130 0 131 0;
#X connect 131 0 132 0;
#X connect 132 0 133 1;
#X connect 133 0 134 0;
#X connect 134 0 139 0;
#X connect 135 0 147 0;
#X connect 136 0 137 0;
#X connect 137 0 138 0;
#X connect 138 0 139 1;
#X connect 139 0 140 0;
#X connect 140 0 146 0;
#X connect 141 0 142 0;
#X connect 142 0 140 1;
#X connect 143 0 130 0;
#X connect 144 0 115 0;
#X connect 147 0 136 0;
#X connect 148 0 121 0;
#X connect 149 0 113 0;
#X connect 150 0 128 0;
#X connect 151 0 156 0;
#X connect 152 0 182 0;
#X connect 153 0 154 0;
#X connect 154 0 155 0;
#X connect 155 0 156 1;
#X connect 156 0 157 0;
#X connect 157 0 162 0;
#X connect 158 0 186 0;
#X connect 159 0 160 0;
#X connect 160 0 161 0;
#X connect 161 0 162 1;
#X connect 162 0 163 0;
#X connect 163 0 183 0;
#X connect 164 0 165 0;
#X connect 165 0 163 1;
#X connect 166 0 171 0;
#X connect 167 0 181 0;
#X connect 168 0 169 0;
#X connect 169 0 170 0;
#X connect 170 0 171 1;
#X connect 171 0 172 0;
#X connect 172 0 177 0;
#X connect 173 0 185 0;
#X connect 174 0 175 0;
#X connect 175 0 176 0;
#X connect 176 0 177 1;
#X connect 177 0 178 0;
#X connect 178 0 184 0;
#X connect 179 0 180 0;
#X connect 180 0 178 1;
#X connect 181 0 168 0;
#X connect 182 0 153 0;
#X connect 185 0 174 0;
#X connect 186 0 159 0;
#X connect 187 0 151 0;
#X connect 188 0 166 0;
#X connect 189 0 75 1;
#X connect 190 0 76 0;
#X connect 190 0 75 2;
#X connect 191 0 81 1;
#X connect 192 0 82 0;
#X connect 192 0 81 2;
#X connect 193 0 88 0;
#X connect 194 0 90 1;
#X connect 195 0 91 0;
#X connect 195 0 90 2;
#X connect 196 0 96 1;
#X connect 197 0 97 0;
#X connect 197 0 96 2;
#X connect 198 0 103 0;
#X connect 199 0 126 0;
#X connect 200 0 120 0;
#X connect 200 0 119 2;
#X connect 201 0 119 1;
#X connect 202 0 114 0;
#X connect 202 0 113 2;
#X connect 203 0 113 1;
#X connect 204 0 128 1;
#X connect 205 0 129 0;
#X connect 205 0 128 2;
#X connect 206 0 134 1;
#X connect 207 0 135 0;
#X connect 207 0 134 2;
#X connect 208 0 141 0;
#X connect 209 0 151 1;
#X connect 210 0 152 0;
#X connect 210 0 151 2;
#X connect 211 0 157 1;
#X connect 212 0 158 0;
#X connect 212 0 157 2;
#X connect 213 0 164 0;
#X connect 214 0 179 0;
#X connect 215 0 173 0;
#X connect 215 0 172 2;
#X connect 216 0 172 1;
#X connect 217 0 167 0;
#X connect 217 0 166 2;
#X connect 218 0 166 1;
#X connect 221 0 219 0;
#X connect 222 0 220 0;
#X connect 223 0 224 0;
#X connect 224 0 222 1;
#X connect 224 0 221 1;
#X connect 227 0 232 0;
#X connect 228 0 242 0;
#X connect 229 0 234 0;
#X connect 230 0 240 0;
#X connect 231 0 237 0;
#X connect 232 0 231 0;
#X connect 233 0 238 0;
#X connect 234 0 233 0;
#X connect 235 0 236 0;
#X connect 236 0 263 0;
#X connect 237 0 235 0;
#X connect 238 0 235 1;
#X connect 238 0 239 0;
#X connect 239 0 237 0;
#X connect 240 0 233 1;
#X connect 240 0 241 0;
#X connect 241 0 234 0;
#X connect 242 0 231 1;
#X connect 242 0 243 0;
#X connect 243 0 232 0;
#X connect 244 0 247 0;
#X connect 244 0 248 1;
#X connect 245 0 246 0;
#X connect 246 0 248 0;
#X connect 246 0 261 0;
#X connect 247 0 246 0;
#X connect 248 0 251 0;
#X connect 248 0 258 0;
#X connect 250 0 223 0;
#X connect 252 0 219 0;
#X connect 253 0 220 0;
#X connect 254 0 49 0;
#X connect 255 0 49 1;
#X connect 256 1 244 0;
#X connect 258 0 249 0;
#X connect 259 0 260 0;
#X connect 260 0 258 1;
#X connect 261 0 249 0;
#X connect 262 0 261 1;
#X connect 263 0 256 0;
#X coords 0 -1 1 1 800 240 1 100 100;
