#N canvas 447 17 1657 960 12;
#X obj 115 212 hsl 128 15 20 20000 1 0 \$0-f1-tune-s \$0-f1-tune-r
empty -2 -8 0 10 -208502 -33813 -1 0 1;
#X obj 311 212 hsl 128 15 2 500 1 0 \$0-f1-q-s \$0-f1-q-r empty -2
-8 0 10 -208502 -33813 -1 0 1;
#X obj 446 212 nbx 4 15 -1e+037 1e+037 0 0 empty \$0-f1-q empty 0 -8
0 10 -208502 -33813 -1 0 256;
#X obj 250 212 nbx 4 15 -1e+037 1e+037 0 0 empty \$0-f1-tune empty
0 -8 0 10 -208502 -33813 -1 0 256;
#X obj 507 212 hsl 128 15 0 1 0 0 \$0-f1-offset-s \$0-f1-offset-r empty
-2 -8 0 10 -208502 -33813 -1 0 1;
#X obj 642 212 nbx 4 15 -1e+037 1e+037 0 0 empty \$0-f1-offset empty
0 -8 0 10 -208502 -33813 -1 0 256;
#X obj 1413 207 catch~ \$0-dacL;
#X obj 1660 203 catch~ \$0-dacR;
#X obj 115 245 hsl 128 15 20 20000 1 0 \$0-f2-tune-s \$0-f2-tune-r
empty -2 -8 0 10 -137900 -59039 -1 0 1;
#X obj 311 245 hsl 128 15 2 500 1 0 \$0-f2-q-s \$0-f2-q-r empty -2
-8 0 10 -137900 -59039 -1 0 1;
#X obj 446 245 nbx 4 15 -1e+037 1e+037 0 0 empty \$0-f2-q empty 0 -8
0 10 -137900 -33813 -1 0 256;
#X obj 250 245 nbx 4 15 -1e+037 1e+037 0 0 empty \$0-f2-tune empty
0 -8 0 10 -137900 -33813 -1 0 256;
#X obj 507 245 hsl 128 15 0 1 0 0 \$0-f2-offset-s \$0-f2-offset-r empty
-2 -8 0 10 -137900 -59039 -1 0 1;
#X obj 642 246 nbx 4 15 -1e+037 1e+037 0 0 empty \$0-f2-offset empty
0 -8 0 10 -137900 -33813 -1 0 256;
#X obj 115 279 hsl 128 15 20 20000 1 0 \$0-f3-tune-s \$0-f3-tune-r
empty -2 -8 0 10 -59039 -137900 -1 0 1;
#X obj 311 279 hsl 128 15 2 500 1 0 \$0-f3-q-s \$0-f3-q-r empty -2
-8 0 10 -59039 -137900 -1 0 1;
#X obj 446 279 nbx 4 15 -1e+037 1e+037 0 0 empty \$0-f3-q empty 0 -8
0 10 -59039 -208502 -1 0 256;
#X obj 250 279 nbx 4 15 -1e+037 1e+037 0 0 empty \$0-f3-tune empty
0 -8 0 10 -59039 -208502 -1 0 256;
#X obj 507 279 hsl 128 15 0 1 0 0 \$0-f3-offset-s \$0-f3-offset-r empty
-2 -8 0 10 -59039 -137900 -1 0 1;
#X obj 642 279 nbx 4 15 -1e+037 1e+037 0 0 empty \$0-f3-offset empty
0 -8 0 10 -59039 -208502 -1 0 256;
#X obj 115 312 hsl 128 15 20 20000 1 0 \$0-f4-tune-s \$0-f4-tune-r
empty -2 -8 0 10 -33813 -208502 -1 0 1;
#X obj 311 312 hsl 128 15 2 500 1 0 \$0-f4-q-s \$0-f4-q-r empty -2
-8 0 10 -33813 -208502 -1 0 1;
#X obj 446 312 nbx 4 15 -1e+037 1e+037 0 0 empty \$0-f4-q empty 0 -8
0 10 -33813 -208502 -1 0 256;
#X obj 250 312 nbx 4 15 -1e+037 1e+037 0 0 empty \$0-f4-tune empty
0 -8 0 10 -33813 -208502 -1 0 256;
#X obj 507 312 hsl 128 15 0 1 0 0 \$0-f4-offset-s \$0-f4-offset-r empty
-2 -8 0 10 -33813 -208502 -1 0 1;
#X obj 642 312 nbx 4 15 -1e+037 1e+037 0 0 empty \$0-f4-offset empty
0 -8 0 10 -33813 -208502 -1 0 256;
#X obj 398 485 vcf~;
#X floatatom 441 461 5 0 0 0 - - -;
#X obj 441 512 + 1;
#X msg 441 538 \$1 20;
#X obj 441 564 vline~;
#X obj 398 592 *~;
#X obj 398 696 vcf~;
#X floatatom 441 672 5 0 0 0 - - -;
#X obj 441 723 + 1;
#X msg 441 749 \$1 20;
#X obj 441 775 vline~;
#X obj 398 803 *~;
#X obj 398 908 *~;
#X obj 417 883 vline~;
#X obj 517 484 vcf~;
#X floatatom 560 460 5 0 0 0 - - -;
#X obj 560 511 + 1;
#X msg 560 537 \$1 20;
#X obj 560 563 vline~;
#X obj 517 591 *~;
#X obj 517 695 vcf~;
#X floatatom 560 671 5 0 0 0 - - -;
#X obj 560 722 + 1;
#X msg 560 748 \$1 20;
#X obj 560 774 vline~;
#X obj 517 802 *~;
#X obj 517 907 *~;
#X obj 536 882 vline~;
#X obj 560 485 / 100;
#X obj 441 486 / 100;
#X obj 398 935 throw~ \$0-dacL;
#X obj 517 935 throw~ \$0-dacR;
#X obj 560 696 / 100;
#X obj 441 697 / 100;
#X obj 397 379 r~ \$0-adcL;
#X obj 517 376 r~ \$0-adcR;
#X obj 701 481 vcf~;
#X floatatom 744 457 5 0 0 0 - - -;
#X obj 744 508 + 1;
#X msg 744 534 \$1 20;
#X obj 744 560 vline~;
#X obj 701 588 *~;
#X obj 701 692 vcf~;
#X floatatom 744 668 5 0 0 0 - - -;
#X obj 744 719 + 1;
#X msg 744 745 \$1 20;
#X obj 744 771 vline~;
#X obj 701 799 *~;
#X obj 701 904 *~;
#X obj 720 879 vline~;
#X obj 820 480 vcf~;
#X floatatom 863 456 5 0 0 0 - - -;
#X obj 863 507 + 1;
#X msg 863 533 \$1 20;
#X obj 863 559 vline~;
#X obj 820 587 *~;
#X obj 820 691 vcf~;
#X floatatom 863 667 5 0 0 0 - - -;
#X obj 863 718 + 1;
#X msg 863 744 \$1 20;
#X obj 863 770 vline~;
#X obj 820 798 *~;
#X obj 820 903 *~;
#X obj 839 878 vline~;
#X obj 863 481 / 100;
#X obj 744 482 / 100;
#X obj 701 931 throw~ \$0-dacL;
#X obj 820 931 throw~ \$0-dacR;
#X obj 863 692 / 100;
#X obj 744 693 / 100;
#X obj 700 375 r~ \$0-adcL;
#X obj 820 372 r~ \$0-adcR;
#X obj 994 476 vcf~;
#X floatatom 1037 452 5 0 0 0 - - -;
#X obj 1037 503 + 1;
#X msg 1037 529 \$1 20;
#X obj 1037 555 vline~;
#X obj 994 583 *~;
#X obj 994 687 vcf~;
#X floatatom 1037 663 5 0 0 0 - - -;
#X obj 1037 714 + 1;
#X msg 1037 740 \$1 20;
#X obj 1037 766 vline~;
#X obj 994 794 *~;
#X obj 994 899 *~;
#X obj 1013 874 vline~;
#X obj 1113 475 vcf~;
#X floatatom 1156 451 5 0 0 0 - - -;
#X obj 1156 502 + 1;
#X msg 1156 528 \$1 20;
#X obj 1156 554 vline~;
#X obj 1113 582 *~;
#X obj 1113 686 vcf~;
#X floatatom 1156 662 5 0 0 0 - - -;
#X obj 1156 713 + 1;
#X msg 1156 739 \$1 20;
#X obj 1156 765 vline~;
#X obj 1113 793 *~;
#X obj 1113 898 *~;
#X obj 1132 873 vline~;
#X obj 1156 476 / 100;
#X obj 1037 477 / 100;
#X obj 994 926 throw~ \$0-dacL;
#X obj 1113 926 throw~ \$0-dacR;
#X obj 1156 687 / 100;
#X obj 1037 688 / 100;
#X obj 993 370 r~ \$0-adcL;
#X obj 1113 367 r~ \$0-adcR;
#X obj 410 407 r \$0-f2-freq;
#X obj 423 433 r \$0-f2-q;
#X obj 410 618 r \$0-f2-freq;
#X obj 423 644 r \$0-f2-q;
#X obj 417 831 r \$0-f2-gain;
#X obj 529 406 r \$0-f2-freq;
#X obj 542 432 r \$0-f2-q;
#X obj 529 617 r \$0-f2-freq;
#X obj 542 643 r \$0-f2-q;
#X obj 536 830 r \$0-f2-gain;
#X obj 720 827 r \$0-f3-gain;
#X obj 726 640 r \$0-f3-q;
#X obj 713 614 r \$0-f3-freq;
#X obj 726 429 r \$0-f3-q;
#X obj 713 403 r \$0-f3-freq;
#X obj 832 402 r \$0-f3-freq;
#X obj 845 428 r \$0-f3-q;
#X obj 832 613 r \$0-f3-freq;
#X obj 845 639 r \$0-f3-q;
#X obj 839 826 r \$0-f3-gain;
#X obj 1006 398 r \$0-f4-freq;
#X obj 1019 424 r \$0-f4-q;
#X obj 1006 609 r \$0-f4-freq;
#X obj 1019 635 r \$0-f4-q;
#X obj 1013 822 r \$0-f4-gain;
#X obj 1132 821 r \$0-f4-gain;
#X obj 1138 634 r \$0-f4-q;
#X obj 1125 608 r \$0-f4-freq;
#X obj 1138 423 r \$0-f4-q;
#X obj 1125 397 r \$0-f4-freq;
#X obj 1415 148 s~ \$0-adcL;
#X obj 1664 148 s~ \$0-adcR;
#X obj 1767 176 *~;
#X obj 1813 177 *~;
#X msg 1832 120 \$1 20;
#X obj 1832 146 vline~;
#X obj 703 279 hsl 128 15 0 1 0 0 \$0-feedback-s \$0-feedback-r empty
-2 -8 0 10 -33813 -208502 -1 0 1;
#X obj 838 279 nbx 4 15 -1e+037 1e+037 0 0 empty \$0-feedback empty
0 -8 0 10 -33813 -208502 -1 0 256;
#X obj 1352 578 r \$0-f1-q;
#X obj 1424 578 r \$0-f2-q;
#X obj 1495 578 r \$0-f3-q;
#X obj 1570 578 r \$0-f4-q;
#X obj 1352 628 max;
#X floatatom 1352 603 5 0 0 0 - - -;
#X obj 1495 627 max;
#X floatatom 1495 603 5 0 0 0 - - -;
#X obj 1352 678 max;
#X floatatom 1352 704 5 0 0 0 - - -;
#X floatatom 1352 653 5 0 0 0 - - -;
#X floatatom 1495 653 5 0 0 0 - - -;
#X obj 1495 678 t b;
#X floatatom 1570 604 5 0 0 0 - - -;
#X obj 1570 630 t b;
#X floatatom 1424 603 5 0 0 0 - - -;
#X obj 1423 627 t b;
#X floatatom 1398 780 5 0 0 0 - - -;
#X obj 1293 781 r \$0-feedback;
#X floatatom 1293 807 5 0 0 0 - - -;
#X obj 1398 806 t b;
#X obj 1310 894 /;
#X obj 1293 951 s \$0-feedback-adjusted;
#X obj 1832 88 r \$0-feedback-adjusted;
#X obj 1416 116 adc~ 1;
#X obj 1664 117 adc~ 2;
#X obj 1412 234 clip~ -1.5 1.5;
#X obj 1660 231 clip~ -1.5 1.5;
#X obj 1352 755 moses 1;
#X obj 1310 920 spigot;
#X obj 1349 869 r \$0-protec-bypass;
#X obj 1349 895 -1;
#X obj 1293 861 spigot;
#X obj 1332 837 r \$0-protec-bypass;
#X obj 1352 729 / 100;
#X obj 103 493 vcf~;
#X floatatom 146 469 5 0 0 0 - - -;
#X obj 146 520 + 1;
#X msg 146 546 \$1 20;
#X obj 146 572 vline~;
#X obj 103 600 *~;
#X obj 103 704 vcf~;
#X floatatom 146 680 5 0 0 0 - - -;
#X obj 146 731 + 1;
#X msg 146 757 \$1 20;
#X obj 146 783 vline~;
#X obj 103 811 *~;
#X obj 103 916 *~;
#X obj 122 891 vline~;
#X obj 222 492 vcf~;
#X floatatom 265 468 5 0 0 0 - - -;
#X obj 265 519 + 1;
#X msg 265 545 \$1 20;
#X obj 265 571 vline~;
#X obj 222 599 *~;
#X obj 222 703 vcf~;
#X floatatom 265 679 5 0 0 0 - - -;
#X obj 265 730 + 1;
#X msg 265 756 \$1 20;
#X obj 265 782 vline~;
#X obj 222 810 *~;
#X obj 222 915 *~;
#X obj 241 890 vline~;
#X obj 265 493 / 100;
#X obj 146 494 / 100;
#X obj 103 943 throw~ \$0-dacL;
#X obj 222 943 throw~ \$0-dacR;
#X obj 265 704 / 100;
#X obj 146 705 / 100;
#X obj 102 387 r~ \$0-adcL;
#X obj 222 384 r~ \$0-adcR;
#N canvas 568 141 1740 842 midi 0;
#X obj 393 89 notein;
#X obj 155 135 poly 4;
#X obj 155 165 pack f f f;
#X floatatom 126 458 5 0 0 0 - - -;
#X obj 84 331 route 1;
#X floatatom 84 513 5 0 0 0 - - -;
#X obj 84 539 +;
#X obj 124 485 t b;
#X obj 84 618 s \$0-f1-freq;
#X obj 127 382 r \$0-f1-tune;
#X obj 275 297 r \$0-midi-poly;
#X obj 275 323 route 1;
#X obj 575 321 route 2;
#X obj 1053 310 route 3;
#X obj 1542 296 route 4;
#X obj 342 491 r \$0-attack;
#X obj 428 492 r \$0-release;
#X obj 247 642 pack f f, f 14;
#X obj 342 375 / 127;
#X floatatom 342 401 5 0 0 0 - - -;
#X floatatom 428 518 5 0 0 0 - - -;
#X floatatom 342 517 5 0 0 0 - - -;
#X obj 342 430 > 0;
#X obj 401 430 <= 0;
#X obj 342 456 sel 1;
#X obj 401 456 sel 1;
#X obj 246 539 t b;
#X obj 247 668 s \$0-f1-gain;
#X obj 84 357 unpack f f;
#X obj 575 347 unpack f f;
#X obj 1053 336 unpack f f;
#X obj 1542 322 unpack f f;
#X obj 275 349 unpack f f;
#X obj 393 142 spigot;
#X obj 503 141 spigot;
#X obj 156 195 s \$0-midi-poly;
#X obj 84 305 r \$0-midi-poly;
#X obj 575 295 r \$0-midi-poly;
#X obj 1053 284 r \$0-midi-poly;
#X obj 1542 270 r \$0-midi-poly;
#X obj 393 196 s \$0-midi-mono;
#X obj 393 168 pack f f;
#X obj 155 110 spigot;
#X obj 231 110 spigot;
#X obj 542 116 r \$0-mono;
#X obj 432 117 r \$0-mono;
#X obj 270 58 r \$0-mono;
#X obj 270 84 - 1;
#X obj 194 58 r \$0-mono;
#X obj 194 84 - 1;
#X obj 155 32 notein;
#X obj 54 278 r \$0-midi-mono;
#X obj 262 272 r \$0-midi-mono;
#X obj 548 267 r \$0-midi-mono;
#X obj 1024 254 r \$0-midi-mono;
#X obj 1513 243 r \$0-midi-mono;
#X obj 127 407 ftom;
#X obj 127 433 - 15.48;
#X floatatom 617 450 5 0 0 0 - - -;
#X floatatom 575 505 5 0 0 0 - - -;
#X obj 575 531 +;
#X obj 615 477 t b;
#X obj 618 399 ftom;
#X obj 618 425 - 15.48;
#X floatatom 1095 438 5 0 0 0 - - -;
#X floatatom 1053 493 5 0 0 0 - - -;
#X obj 1053 519 +;
#X obj 1093 465 t b;
#X obj 1096 387 ftom;
#X obj 1096 413 - 15.48;
#X floatatom 1584 422 5 0 0 0 - - -;
#X floatatom 1542 477 5 0 0 0 - - -;
#X obj 1542 503 +;
#X obj 1582 449 t b;
#X obj 1585 371 ftom;
#X obj 1585 397 - 15.48;
#X obj 84 565 mtof;
#X obj 575 557 mtof;
#X obj 575 610 s \$0-f2-freq;
#X obj 1053 545 mtof;
#X obj 1542 529 mtof;
#X obj 1053 600 s \$0-f3-freq;
#X obj 1542 586 s \$0-f4-freq;
#X obj 619 372 r \$0-f2-tune;
#X obj 1096 362 r \$0-f3-tune;
#X obj 1585 346 r \$0-f4-tune;
#X obj 295 540 r \$0-f1-offset;
#X floatatom 295 566 5 0 0 0 - - -;
#X obj 246 590 +;
#X obj 295 590 t b;
#X floatatom 246 566 5 0 0 0 - - -;
#X obj 246 615 clip 0 1;
#X obj 748 288 r \$0-midi-poly;
#X obj 815 482 r \$0-attack;
#X obj 901 483 r \$0-release;
#X obj 720 633 pack f f, f 14;
#X obj 815 366 / 127;
#X floatatom 815 392 5 0 0 0 - - -;
#X floatatom 901 509 5 0 0 0 - - -;
#X floatatom 815 508 5 0 0 0 - - -;
#X obj 815 421 > 0;
#X obj 874 421 <= 0;
#X obj 815 447 sel 1;
#X obj 874 447 sel 1;
#X obj 719 530 t b;
#X obj 748 340 unpack f f;
#X obj 735 263 r \$0-midi-mono;
#X floatatom 768 557 5 0 0 0 - - -;
#X obj 719 581 +;
#X obj 768 581 t b;
#X floatatom 719 557 5 0 0 0 - - -;
#X obj 719 606 clip 0 1;
#X obj 1234 273 r \$0-midi-poly;
#X obj 1301 467 r \$0-attack;
#X obj 1387 468 r \$0-release;
#X obj 1206 618 pack f f, f 14;
#X obj 1301 351 / 127;
#X floatatom 1301 377 5 0 0 0 - - -;
#X floatatom 1387 494 5 0 0 0 - - -;
#X floatatom 1301 493 5 0 0 0 - - -;
#X obj 1301 406 > 0;
#X obj 1360 406 <= 0;
#X obj 1301 432 sel 1;
#X obj 1360 432 sel 1;
#X obj 1205 515 t b;
#X obj 1234 325 unpack f f;
#X obj 1221 248 r \$0-midi-mono;
#X floatatom 1254 542 5 0 0 0 - - -;
#X obj 1205 566 +;
#X obj 1254 566 t b;
#X floatatom 1205 542 5 0 0 0 - - -;
#X obj 1205 591 clip 0 1;
#X obj 1733 262 r \$0-midi-poly;
#X obj 1800 456 r \$0-attack;
#X obj 1903 455 r \$0-release;
#X obj 1705 607 pack f f, f 14;
#X obj 1800 340 / 127;
#X floatatom 1800 366 5 0 0 0 - - -;
#X floatatom 1903 481 5 0 0 0 - - -;
#X floatatom 1800 482 5 0 0 0 - - -;
#X obj 1800 395 > 0;
#X obj 1847 394 <= 0;
#X obj 1800 421 sel 1;
#X obj 1847 420 sel 1;
#X obj 1704 504 t b;
#X obj 1733 314 unpack f f;
#X obj 1720 237 r \$0-midi-mono;
#X floatatom 1753 531 5 0 0 0 - - -;
#X obj 1704 555 +;
#X obj 1753 555 t b;
#X floatatom 1704 531 5 0 0 0 - - -;
#X obj 1704 580 clip 0 1;
#X obj 748 314 route 2;
#X obj 768 531 r \$0-f2-offset;
#X obj 720 659 s \$0-f2-gain;
#X obj 1234 299 route 3;
#X obj 1254 516 r \$0-f3-offset;
#X obj 1206 644 s \$0-f3-gain;
#X obj 1733 288 route 4;
#X obj 1754 505 r \$0-f4-offset;
#X obj 1705 633 s \$0-f4-gain;
#X msg 428 543 1 \$1;
#X obj 428 569 line;
#X obj 428 594 sel 1;
#X msg 474 543 0 \$1;
#X obj 428 620 t b;
#X msg 428 646 0;
#X msg 900 541 1 \$1;
#X obj 900 567 line;
#X obj 900 592 sel 1;
#X msg 946 541 0 \$1;
#X obj 900 618 t b;
#X msg 900 644 0;
#X msg 1387 534 1 \$1;
#X obj 1387 560 line;
#X obj 1387 585 sel 1;
#X msg 1433 534 0 \$1;
#X obj 1387 611 t b;
#X msg 1387 637 0;
#X msg 1902 524 1 \$1;
#X obj 1902 550 line;
#X obj 1902 575 sel 1;
#X msg 1948 524 0 \$1;
#X obj 1902 601 t b;
#X msg 1902 627 0;
#X obj 428 727 spigot;
#X obj 467 675 r \$0-latch;
#X obj 467 701 - 1;
#X obj 900 721 spigot;
#X obj 939 669 r \$0-latch;
#X obj 939 695 - 1;
#X obj 1387 714 spigot;
#X obj 1426 662 r \$0-latch;
#X obj 1426 688 - 1;
#X obj 1902 705 spigot;
#X obj 1941 653 r \$0-latch;
#X obj 1941 679 - 1;
#X obj 84 592 clip 20 20000;
#X obj 575 583 clip 20 20000;
#X obj 1053 573 clip 20 20000;
#X obj 1542 558 clip 20 20000;
#X connect 0 0 33 0;
#X connect 0 1 34 0;
#X connect 1 0 2 0;
#X connect 1 1 2 1;
#X connect 1 2 2 2;
#X connect 2 0 35 0;
#X connect 3 0 6 1;
#X connect 3 0 7 0;
#X connect 4 0 28 0;
#X connect 5 0 6 0;
#X connect 6 0 76 0;
#X connect 7 0 5 0;
#X connect 9 0 56 0;
#X connect 10 0 11 0;
#X connect 11 0 32 0;
#X connect 12 0 29 0;
#X connect 13 0 30 0;
#X connect 14 0 31 0;
#X connect 15 0 21 0;
#X connect 16 0 20 0;
#X connect 17 0 27 0;
#X connect 18 0 19 0;
#X connect 19 0 22 0;
#X connect 19 0 23 0;
#X connect 19 0 90 0;
#X connect 20 0 17 1;
#X connect 20 0 161 0;
#X connect 21 0 17 1;
#X connect 21 0 164 0;
#X connect 22 0 24 0;
#X connect 23 0 25 0;
#X connect 24 0 21 0;
#X connect 24 0 26 0;
#X connect 25 0 20 0;
#X connect 25 0 26 0;
#X connect 26 0 90 0;
#X connect 28 0 5 0;
#X connect 29 0 59 0;
#X connect 30 0 65 0;
#X connect 31 0 71 0;
#X connect 32 1 18 0;
#X connect 33 0 41 0;
#X connect 34 0 41 1;
#X connect 36 0 4 0;
#X connect 37 0 12 0;
#X connect 38 0 13 0;
#X connect 39 0 14 0;
#X connect 41 0 40 0;
#X connect 42 0 1 0;
#X connect 43 0 1 1;
#X connect 44 0 34 1;
#X connect 45 0 33 1;
#X connect 46 0 47 0;
#X connect 47 0 43 1;
#X connect 48 0 49 0;
#X connect 49 0 42 1;
#X connect 50 0 42 0;
#X connect 50 1 43 0;
#X connect 51 0 28 0;
#X connect 52 0 32 0;
#X connect 53 0 29 0;
#X connect 54 0 30 0;
#X connect 55 0 31 0;
#X connect 56 0 57 0;
#X connect 57 0 3 0;
#X connect 58 0 60 1;
#X connect 58 0 61 0;
#X connect 59 0 60 0;
#X connect 60 0 77 0;
#X connect 61 0 59 0;
#X connect 62 0 63 0;
#X connect 63 0 58 0;
#X connect 64 0 66 1;
#X connect 64 0 67 0;
#X connect 65 0 66 0;
#X connect 66 0 79 0;
#X connect 67 0 65 0;
#X connect 68 0 69 0;
#X connect 69 0 64 0;
#X connect 70 0 72 1;
#X connect 70 0 73 0;
#X connect 71 0 72 0;
#X connect 72 0 80 0;
#X connect 73 0 71 0;
#X connect 74 0 75 0;
#X connect 75 0 70 0;
#X connect 76 0 197 0;
#X connect 77 0 198 0;
#X connect 79 0 199 0;
#X connect 80 0 200 0;
#X connect 83 0 62 0;
#X connect 84 0 68 0;
#X connect 85 0 74 0;
#X connect 86 0 87 0;
#X connect 87 0 88 1;
#X connect 87 0 89 0;
#X connect 88 0 91 0;
#X connect 89 0 90 0;
#X connect 90 0 88 0;
#X connect 91 0 17 0;
#X connect 92 0 152 0;
#X connect 93 0 99 0;
#X connect 94 0 98 0;
#X connect 95 0 154 0;
#X connect 96 0 97 0;
#X connect 97 0 100 0;
#X connect 97 0 101 0;
#X connect 97 0 110 0;
#X connect 98 0 95 1;
#X connect 98 0 167 0;
#X connect 99 0 95 1;
#X connect 99 0 170 0;
#X connect 100 0 102 0;
#X connect 101 0 103 0;
#X connect 102 0 99 0;
#X connect 102 0 104 0;
#X connect 103 0 98 0;
#X connect 103 0 104 0;
#X connect 104 0 110 0;
#X connect 105 1 96 0;
#X connect 106 0 105 0;
#X connect 107 0 108 1;
#X connect 107 0 109 0;
#X connect 108 0 111 0;
#X connect 109 0 110 0;
#X connect 110 0 108 0;
#X connect 111 0 95 0;
#X connect 112 0 155 0;
#X connect 113 0 119 0;
#X connect 114 0 118 0;
#X connect 115 0 157 0;
#X connect 116 0 117 0;
#X connect 117 0 120 0;
#X connect 117 0 121 0;
#X connect 117 0 130 0;
#X connect 118 0 115 1;
#X connect 118 0 173 0;
#X connect 119 0 115 1;
#X connect 119 0 176 0;
#X connect 120 0 122 0;
#X connect 121 0 123 0;
#X connect 122 0 119 0;
#X connect 122 0 124 0;
#X connect 123 0 118 0;
#X connect 123 0 124 0;
#X connect 124 0 130 0;
#X connect 125 1 116 0;
#X connect 126 0 125 0;
#X connect 127 0 128 1;
#X connect 127 0 129 0;
#X connect 128 0 131 0;
#X connect 129 0 130 0;
#X connect 130 0 128 0;
#X connect 131 0 115 0;
#X connect 132 0 158 0;
#X connect 133 0 139 0;
#X connect 134 0 138 0;
#X connect 135 0 160 0;
#X connect 136 0 137 0;
#X connect 137 0 140 0;
#X connect 137 0 141 0;
#X connect 137 0 150 0;
#X connect 138 0 135 1;
#X connect 138 0 179 0;
#X connect 139 0 135 1;
#X connect 139 0 182 0;
#X connect 140 0 142 0;
#X connect 141 0 143 0;
#X connect 142 0 139 0;
#X connect 142 0 144 0;
#X connect 143 0 138 0;
#X connect 143 0 144 0;
#X connect 144 0 150 0;
#X connect 145 1 136 0;
#X connect 146 0 145 0;
#X connect 147 0 148 1;
#X connect 147 0 149 0;
#X connect 148 0 151 0;
#X connect 149 0 150 0;
#X connect 150 0 148 0;
#X connect 151 0 135 0;
#X connect 152 0 105 0;
#X connect 153 0 107 0;
#X connect 155 0 125 0;
#X connect 156 0 127 0;
#X connect 158 0 145 0;
#X connect 159 0 147 0;
#X connect 161 0 162 0;
#X connect 162 0 163 0;
#X connect 163 0 165 0;
#X connect 164 0 162 0;
#X connect 165 0 166 0;
#X connect 166 0 185 0;
#X connect 167 0 168 0;
#X connect 168 0 169 0;
#X connect 169 0 171 0;
#X connect 170 0 168 0;
#X connect 171 0 172 0;
#X connect 172 0 188 0;
#X connect 173 0 174 0;
#X connect 174 0 175 0;
#X connect 175 0 177 0;
#X connect 176 0 174 0;
#X connect 177 0 178 0;
#X connect 178 0 191 0;
#X connect 179 0 180 0;
#X connect 180 0 181 0;
#X connect 181 0 183 0;
#X connect 182 0 180 0;
#X connect 183 0 184 0;
#X connect 184 0 194 0;
#X connect 185 0 5 0;
#X connect 186 0 187 0;
#X connect 187 0 185 1;
#X connect 188 0 59 0;
#X connect 189 0 190 0;
#X connect 190 0 188 1;
#X connect 191 0 65 0;
#X connect 192 0 193 0;
#X connect 193 0 191 1;
#X connect 194 0 71 0;
#X connect 195 0 196 0;
#X connect 196 0 194 1;
#X connect 197 0 8 0;
#X connect 198 0 78 0;
#X connect 199 0 81 0;
#X connect 200 0 82 0;
#X restore 1025 167 pd midi;
#X obj 115 415 r \$0-f1-freq;
#X obj 234 414 r \$0-f1-freq;
#X obj 247 440 r \$0-f1-q;
#X obj 128 441 r \$0-f1-q;
#X obj 115 626 r \$0-f1-freq;
#X obj 234 625 r \$0-f1-freq;
#X obj 247 651 r \$0-f1-q;
#X obj 128 652 r \$0-f1-q;
#X obj 122 839 r \$0-f1-gain;
#X obj 241 838 r \$0-f1-gain;
#X msg 122 865 \$1 \$2;
#X msg 241 864 \$1 \$2;
#X msg 417 857 \$1 \$2;
#X msg 536 856 \$1 \$2;
#X msg 720 853 \$1 \$2;
#X msg 839 852 \$1 \$2;
#X msg 1013 848 \$1 \$2;
#X msg 1132 847 \$1 \$2;
#N canvas 1031 138 1126 759 scales 0;
#X msg 50 110 20;
#X obj 50 57 r \$0-tune-radio;
#X obj 50 84 sel 0;
#X obj 50 137 s \$0-f1-tune-r;
#X obj 50 161 s \$0-f2-tune-r;
#X obj 50 187 s \$0-f3-tune-r;
#X obj 50 212 s \$0-f4-tune-r;
#X msg 172 110 20;
#X obj 172 57 r \$0-tune-radio;
#X obj 172 137 s \$0-f1-tune-r;
#X obj 172 189 s \$0-f2-tune-r;
#X obj 172 238 s \$0-f3-tune-r;
#X obj 172 287 s \$0-f4-tune-r;
#X obj 172 84 sel 1;
#X msg 350 106 20;
#X obj 350 53 r \$0-tune-radio;
#X obj 350 133 s \$0-f1-tune-r;
#X obj 350 185 s \$0-f2-tune-r;
#X obj 350 234 s \$0-f3-tune-r;
#X obj 350 283 s \$0-f4-tune-r;
#X obj 350 80 sel 2;
#X msg 550 103 20;
#X obj 550 50 r \$0-tune-radio;
#X obj 550 130 s \$0-f1-tune-r;
#X obj 550 182 s \$0-f2-tune-r;
#X obj 550 231 s \$0-f3-tune-r;
#X obj 550 280 s \$0-f4-tune-r;
#X obj 550 77 sel 3;
#X msg 760 100 20;
#X obj 760 47 r \$0-tune-radio;
#X obj 760 127 s \$0-f1-tune-r;
#X obj 760 179 s \$0-f2-tune-r;
#X obj 760 228 s \$0-f3-tune-r;
#X obj 760 277 s \$0-f4-tune-r;
#X msg 760 153 40;
#X msg 760 203 80;
#X msg 760 254 160;
#X obj 760 74 sel 4;
#X msg 172 163 40.601;
#X msg 172 213 61.203;
#X msg 172 263 81.805;
#X msg 350 209 81.805;
#X msg 350 159 40.601;
#X msg 350 260 123.008;
#X msg 550 156 61.203;
#X msg 550 206 102.407;
#X msg 550 257 143.61;
#X msg 888 99 20;
#X obj 888 46 r \$0-tune-radio;
#X obj 888 126 s \$0-f1-tune-r;
#X obj 888 178 s \$0-f2-tune-r;
#X obj 888 227 s \$0-f3-tune-r;
#X obj 888 276 s \$0-f4-tune-r;
#X obj 888 73 sel 5;
#X msg 888 152 30;
#X msg 888 202 45;
#X msg 888 253 67.5;
#X obj 50 262 s \$0-scale;
#X msg 50 237 label None;
#X obj 172 339 s \$0-scale;
#X msg 172 314 label Harmonic_Series;
#X obj 350 335 s \$0-scale;
#X msg 350 310 label Harmonic_Series_Odd;
#X obj 550 330 s \$0-scale;
#X msg 550 305 label Harmonic_Series_Even;
#X obj 760 329 s \$0-scale;
#X msg 760 304 label Octaves;
#X obj 888 327 s \$0-scale;
#X msg 888 302 label Tri-tones;
#X obj 50 338 s camomile;
#X msg 50 314 gui redraw;
#X obj 50 289 t b;
#X obj 172 414 s camomile;
#X msg 172 390 gui redraw;
#X obj 172 365 t b;
#X obj 350 411 s camomile;
#X msg 350 387 gui redraw;
#X obj 350 362 t b;
#X obj 551 412 s camomile;
#X msg 551 388 gui redraw;
#X obj 551 363 t b;
#X obj 760 407 s camomile;
#X msg 760 383 gui redraw;
#X obj 760 358 t b;
#X obj 888 404 s camomile;
#X msg 888 380 gui redraw;
#X obj 888 355 t b;
#X connect 0 0 3 0;
#X connect 0 0 4 0;
#X connect 0 0 5 0;
#X connect 0 0 6 0;
#X connect 1 0 2 0;
#X connect 2 0 0 0;
#X connect 2 0 58 0;
#X connect 7 0 9 0;
#X connect 8 0 13 0;
#X connect 13 0 7 0;
#X connect 13 0 38 0;
#X connect 13 0 39 0;
#X connect 13 0 40 0;
#X connect 13 0 60 0;
#X connect 14 0 16 0;
#X connect 15 0 20 0;
#X connect 20 0 14 0;
#X connect 20 0 42 0;
#X connect 20 0 41 0;
#X connect 20 0 43 0;
#X connect 20 0 62 0;
#X connect 21 0 23 0;
#X connect 22 0 27 0;
#X connect 27 0 21 0;
#X connect 27 0 44 0;
#X connect 27 0 45 0;
#X connect 27 0 46 0;
#X connect 27 0 64 0;
#X connect 28 0 30 0;
#X connect 29 0 37 0;
#X connect 34 0 31 0;
#X connect 35 0 32 0;
#X connect 36 0 33 0;
#X connect 37 0 28 0;
#X connect 37 0 34 0;
#X connect 37 0 35 0;
#X connect 37 0 36 0;
#X connect 37 0 66 0;
#X connect 38 0 10 0;
#X connect 39 0 11 0;
#X connect 40 0 12 0;
#X connect 41 0 18 0;
#X connect 42 0 17 0;
#X connect 43 0 19 0;
#X connect 44 0 24 0;
#X connect 45 0 25 0;
#X connect 46 0 26 0;
#X connect 47 0 49 0;
#X connect 48 0 53 0;
#X connect 53 0 47 0;
#X connect 53 0 54 0;
#X connect 53 0 55 0;
#X connect 53 0 56 0;
#X connect 53 0 68 0;
#X connect 54 0 50 0;
#X connect 55 0 51 0;
#X connect 56 0 52 0;
#X connect 58 0 57 0;
#X connect 58 0 71 0;
#X connect 60 0 59 0;
#X connect 60 0 74 0;
#X connect 62 0 61 0;
#X connect 62 0 77 0;
#X connect 64 0 63 0;
#X connect 64 0 80 0;
#X connect 66 0 65 0;
#X connect 66 0 83 0;
#X connect 68 0 67 0;
#X connect 68 0 86 0;
#X connect 70 0 69 0;
#X connect 71 0 70 0;
#X connect 73 0 72 0;
#X connect 74 0 73 0;
#X connect 76 0 75 0;
#X connect 77 0 76 0;
#X connect 79 0 78 0;
#X connect 80 0 79 0;
#X connect 82 0 81 0;
#X connect 83 0 82 0;
#X connect 85 0 84 0;
#X connect 86 0 85 0;
#X restore 1025 141 pd scales;
#X obj 703 312 hsl 128 15 -1 1 0 0 \$0-wetdry-s \$0-wetdry-r empty
-2 -8 0 10 -33813 -208502 -1 0 1;
#X obj 838 312 nbx 4 15 -1e+037 1e+037 0 0 empty \$0-wetdry empty 0
-8 0 10 -33813 -208502 -1 0 256;
#X obj 700 245 tgl 15 0 \$0-adv \$0-adv-r empty 17 7 0 10 -33813 -208502
-1 1 1;
#N canvas 919 395 1364 744 advgui 0;
#X obj 231 212 s camomile;
#X msg 231 188 gui redraw;
#X obj 337 124 s \$0-attack-r;
#X msg 433 95 pos 0 0;
#X obj 337 67 sel 1;
#X obj 337 42 r \$0-adv;
#X msg 606 94 pos 0 0;
#X obj 510 66 sel 1;
#X obj 510 41 r \$0-adv;
#X msg 433 208 pos 0 0;
#X obj 337 180 sel 1;
#X obj 337 155 r \$0-adv;
#X msg 606 207 pos 0 0;
#X obj 510 179 sel 1;
#X obj 510 154 r \$0-adv;
#X msg 434 334 pos 0 0;
#X obj 338 306 sel 1;
#X obj 339 281 r \$0-adv;
#X msg 607 333 pos 0 0;
#X obj 511 305 sel 1;
#X obj 511 280 r \$0-adv;
#X obj 510 123 s \$0-release-r;
#X obj 337 237 s \$0-mono-r;
#X obj 511 236 s \$0-latch-r;
#X obj 511 362 s \$0-tune-radio-r;
#X obj 338 363 s \$0-protec-bypass-r;
#X floatatom 422 54 5 0 0 0 - - -;
#X msg 510 94 pos 115 174;
#X msg 337 95 pos 115 138;
#X msg 804 96 pos 0 0;
#X obj 708 68 sel 1;
#X obj 708 43 r \$0-adv;
#X obj 708 125 s \$0-attack-num;
#X msg 708 96 pos 250 138;
#X msg 980 94 pos 0 0;
#X obj 884 66 sel 1;
#X obj 884 41 r \$0-adv;
#X obj 884 123 s \$0-release-num;
#X msg 884 94 pos 250 174;
#X msg 337 207 pos 307 138;
#X msg 511 333 pos 307 174;
#X msg 803 334 pos 0 0;
#X obj 707 306 sel 1;
#X obj 707 281 r \$0-adv;
#X obj 707 363 s \$0-scale;
#X msg 707 334 pos 432 174;
#X floatatom 420 293 5 0 0 0 - - -;
#X msg 338 335 pos 442 138;
#X msg 510 207 pos 372 138;
#X obj 231 163 t b;
#X connect 1 0 0 0;
#X connect 3 0 2 0;
#X connect 3 0 49 0;
#X connect 4 0 28 0;
#X connect 4 1 3 0;
#X connect 5 0 4 0;
#X connect 6 0 21 0;
#X connect 7 0 27 0;
#X connect 7 1 6 0;
#X connect 8 0 7 0;
#X connect 9 0 22 0;
#X connect 10 0 39 0;
#X connect 10 1 9 0;
#X connect 11 0 10 0;
#X connect 12 0 23 0;
#X connect 13 0 48 0;
#X connect 13 1 12 0;
#X connect 14 0 13 0;
#X connect 15 0 25 0;
#X connect 16 0 47 0;
#X connect 16 1 15 0;
#X connect 17 0 16 0;
#X connect 18 0 24 0;
#X connect 19 0 40 0;
#X connect 19 1 18 0;
#X connect 20 0 19 0;
#X connect 26 0 28 0;
#X connect 27 0 21 0;
#X connect 28 0 2 0;
#X connect 28 0 49 0;
#X connect 29 0 32 0;
#X connect 30 0 33 0;
#X connect 30 1 29 0;
#X connect 31 0 30 0;
#X connect 33 0 32 0;
#X connect 34 0 37 0;
#X connect 35 0 38 0;
#X connect 35 1 34 0;
#X connect 36 0 35 0;
#X connect 38 0 37 0;
#X connect 39 0 22 0;
#X connect 40 0 24 0;
#X connect 41 0 44 0;
#X connect 42 0 45 0;
#X connect 42 1 41 0;
#X connect 43 0 42 0;
#X connect 45 0 44 0;
#X connect 46 0 47 0;
#X connect 47 0 25 0;
#X connect 48 0 23 0;
#X connect 49 0 1 0;
#X restore 1025 194 pd advgui;
#X obj 442 138 tgl 15 0 \$0-protec-bypass-s \$0-protec-bypass-r Bypass_Safety
-80 -93 0 10 -137900 -59039 -59039 0 1;
#X obj 115 138 hsl 128 15 20 20000 0 0 \$0-attack-s \$0-attack-r Attack
-100 -110 0 10 -137900 -59039 -59039 0 1;
#X obj 115 174 hsl 128 15 20 20000 0 0 \$0-release-s \$0-release-r
Release -100 -110 0 10 -137900 -59039 -59039 0 1;
#X obj 307 138 tgl 15 0 \$0-mono-s \$0-mono-r Mono -80 -93 0 10 -137900
-59039 -59039 0 1;
#X obj 307 174 hradio 15 1 0 8 \$0-tune-radio \$0-tune-radio-r Tunings
-100 -110 0 10 -137900 -59039 -1 5;
#X obj 372 138 tgl 15 0 \$0-latch-s \$0-latch-r Latch -80 -93 0 10
-137900 -59039 -59039 0 1;
#X obj 935 143 loadbang;
#X obj 935 169 del 20;
#X msg 935 193 0;
#X obj 250 174 nbx 4 15 -1e+037 1e+037 0 0 empty \$0-release-num empty
0 -8 0 10 -137900 -33813 -1 20 256;
#X obj 250 138 nbx 4 15 -1e+037 1e+037 0 0 empty \$0-attack-num empty
0 -8 0 10 -137900 -33813 -1 20 256;
#X obj 432 174 cnv 15 1 1 empty \$0-scale None -100 -92 1 11 -233017
-59039 0;
#X obj 935 219 s \$0-adv-r;
#X obj 1414 473 dac~ 1;
#X obj 1658 470 dac~ 2;
#N canvas 1133 49 1115 898 dawcontrol 1;
#X obj 990 70 r gui;
#X obj 990 92 route mouse;
#X obj 937 326 s camomile;
#X obj 937 269 pack f f, f 22;
#X msg 937 302 param change \$1 \$2;
#X obj 1036 186 t b f, f 8;
#X obj 990 158 t b f, f 14;
#N canvas 3 116 156 140 one.time.1 0;
#X obj 15 62 spigot 1;
#X obj 15 84 t f b, f 8;
#X obj 78 84 f 0;
#X obj 15 19 inlet;
#X obj 68 19 inlet;
#X obj 15 106 outlet;
#X obj 68 41 f 1;
#X connect 0 0 1 0;
#X connect 1 0 5 0;
#X connect 1 1 2 0;
#X connect 2 0 0 1;
#X connect 3 0 0 0;
#X connect 4 0 6 0;
#X connect 6 0 0 1;
#X restore 937 186 pd one.time.1;
#N canvas 3 116 156 140 one.time.0 0;
#X obj 89 69 f 0;
#X obj 15 19 inlet;
#X obj 68 19 inlet;
#X obj 15 106 outlet;
#X obj 68 41 f 1;
#X obj 15 62 spigot 0;
#X obj 15 84 t b b, f 8;
#X connect 0 0 5 1;
#X connect 1 0 5 0;
#X connect 2 0 4 0;
#X connect 4 0 5 1;
#X connect 5 0 6 0;
#X connect 6 0 3 0;
#X connect 6 1 0 0;
#X restore 937 241 pd one.time.0;
#X obj 937 210 t b f;
#X msg 1036 138 0;
#X obj 937 45 r camo.param.change;
#X obj 990 114 sel 1, f 7;
#X msg 990 136 1;
#X obj 111 89 param.set 1;
#X obj 55 16 param.get 1;
#X obj 55 42 t f f;
#X msg 55 141 set \$1;
#X obj 264 42 t f f;
#X msg 264 141 set \$1;
#X obj 264 16 param.get 2;
#X obj 472 45 t f f;
#X msg 472 144 set \$1;
#X obj 695 45 t f f;
#X msg 695 144 set \$1;
#X obj 472 19 param.get 3;
#X obj 320 89 param.set 2;
#X obj 520 95 param.set 3;
#X obj 695 19 param.get 4;
#X obj 751 92 param.set 4;
#X obj 53 236 t f f;
#X msg 53 335 set \$1;
#X obj 262 236 t f f;
#X msg 262 335 set \$1;
#X obj 470 239 t f f;
#X msg 470 338 set \$1;
#X obj 53 210 param.get 5;
#X obj 109 283 param.set 5;
#X obj 262 210 param.get 6;
#X obj 318 283 param.set 6;
#X obj 470 213 param.get 7;
#X obj 526 286 param.set 7;
#X obj 684 236 t f f;
#X msg 684 335 set \$1;
#X obj 54 420 t f f;
#X msg 54 519 set \$1;
#X obj 263 420 t f f;
#X msg 263 519 set \$1;
#X obj 471 423 t f f;
#X msg 471 522 set \$1;
#X obj 685 420 t f f;
#X msg 685 519 set \$1;
#X obj 684 210 param.get 8;
#X obj 740 283 param.set 8;
#X obj 54 394 param.get 9;
#X obj 110 467 param.set 9;
#X obj 263 394 param.get 10;
#X obj 319 467 param.set 10;
#X obj 471 397 param.get 11;
#X obj 527 470 param.set 11;
#X obj 685 394 param.get 12;
#X obj 741 467 param.set 12;
#X obj 52 600 t f f;
#X msg 52 699 set \$1;
#X obj 52 574 param.get 13;
#X obj 108 647 param.set 13;
#X obj 262 602 t f f;
#X msg 262 701 set \$1;
#X obj 470 605 t f f;
#X msg 470 704 set \$1;
#X obj 684 602 t f f;
#X msg 684 701 set \$1;
#X obj 49 783 t f f;
#X msg 49 882 set \$1;
#X obj 259 785 t f f;
#X msg 259 884 set \$1;
#X obj 467 788 t f f;
#X msg 467 887 set \$1;
#X obj 262 576 param.get 14;
#X obj 318 649 param.set 14;
#X obj 470 579 param.get 15;
#X obj 526 652 param.set 15;
#X obj 684 576 param.get 16;
#X obj 740 649 param.set 16;
#X obj 49 757 param.get 17;
#X obj 105 832 param.set 17;
#X obj 259 759 param.get 18;
#X obj 315 832 param.set 18;
#X obj 467 762 param.get 19;
#X obj 523 835 param.set 19;
#X obj 101 66 r \$0-f1-tune-s;
#X obj 101 115 s \$0-f1-tune;
#X obj 55 164 s \$0-f1-tune-r;
#X obj 743 69 r \$0-f2-tune-s;
#X obj 741 118 s \$0-f2-tune;
#X obj 695 167 s \$0-f2-tune-r;
#X obj 516 263 r \$0-f3-tune-s;
#X obj 516 312 s \$0-f3-tune;
#X obj 471 361 s \$0-f3-tune-r;
#X obj 309 444 r \$0-f4-tune-s;
#X obj 309 493 s \$0-f4-tune;
#X obj 263 543 s \$0-f4-tune-r;
#X obj 310 65 r \$0-f1-q-s;
#X obj 310 115 s \$0-f1-q;
#X obj 264 164 s \$0-f1-q-r;
#X obj 99 260 r \$0-f2-q-s;
#X obj 99 309 s \$0-f2-q;
#X obj 53 358 s \$0-f2-q-r;
#X obj 730 260 r \$0-f3-q-s;
#X obj 730 309 s \$0-f3-q;
#X obj 684 358 s \$0-f3-q-r;
#X obj 517 447 r \$0-f4-q-s;
#X obj 517 496 s \$0-f4-q;
#X obj 471 545 s \$0-f4-q-r;
#X obj 510 72 r \$0-f1-offset-s;
#X obj 510 121 s \$0-f1-offset;
#X obj 473 167 s \$0-f1-offset-r;
#X obj 308 260 r \$0-f2-offset-s;
#X obj 308 309 s \$0-f2-offset;
#X obj 262 358 s \$0-f2-offset-r;
#X obj 100 444 r \$0-f3-offset-s;
#X obj 100 493 s \$0-f3-offset;
#X obj 731 444 r \$0-f4-offset-s;
#X obj 685 542 s \$0-f4-offset-r;
#X obj 98 624 r \$0-feedback-s;
#X obj 98 673 s \$0-feedback;
#X obj 52 722 s \$0-feedback-r;
#X obj 307 626 r \$0-attack-s;
#X obj 308 675 s \$0-attack;
#X obj 262 725 s \$0-attack-r;
#X obj 516 629 r \$0-release-s;
#X obj 516 678 s \$0-release;
#X obj 470 727 s \$0-release-r;
#X obj 730 625 r \$0-mono-s;
#X obj 730 675 s \$0-mono;
#X obj 684 724 s \$0-mono-r;
#X obj 95 807 r \$0-latch-s;
#X obj 95 856 s \$0-latch;
#X obj 49 905 s \$0-latch-r;
#X obj 305 809 r \$0-protec-bypass-s;
#X obj 305 858 s \$0-protec-bypass;
#X obj 259 908 s \$0-protec-bypass-r;
#X obj 513 812 r \$0-wetdry-s;
#X obj 513 861 s \$0-wetdry;
#X obj 467 910 s \$0-wetdry-r;
#X obj 54 542 s \$0-f3-offset-r;
#X obj 731 493 s \$0-f4-offset;
#X connect 0 0 1 0;
#X connect 1 0 12 0;
#X connect 3 0 4 0;
#X connect 4 0 2 0;
#X connect 5 0 8 0;
#X connect 5 1 3 1;
#X connect 6 0 7 1;
#X connect 6 1 3 1;
#X connect 7 0 9 0;
#X connect 8 0 3 0;
#X connect 9 0 8 1;
#X connect 9 1 3 0;
#X connect 10 0 5 0;
#X connect 11 0 7 0;
#X connect 12 0 13 0;
#X connect 12 1 10 0;
#X connect 13 0 6 0;
#X connect 15 0 16 0;
#X connect 16 0 17 0;
#X connect 16 1 91 0;
#X connect 17 0 92 0;
#X connect 18 0 19 0;
#X connect 18 1 103 0;
#X connect 19 0 104 0;
#X connect 20 0 18 0;
#X connect 21 0 22 0;
#X connect 21 1 115 0;
#X connect 22 0 116 0;
#X connect 23 0 24 0;
#X connect 23 1 94 0;
#X connect 24 0 95 0;
#X connect 25 0 21 0;
#X connect 28 0 23 0;
#X connect 30 0 31 0;
#X connect 30 1 106 0;
#X connect 31 0 107 0;
#X connect 32 0 33 0;
#X connect 32 1 118 0;
#X connect 33 0 119 0;
#X connect 34 0 35 0;
#X connect 34 1 97 0;
#X connect 35 0 98 0;
#X connect 36 0 30 0;
#X connect 38 0 32 0;
#X connect 40 0 34 0;
#X connect 42 0 43 0;
#X connect 42 1 109 0;
#X connect 43 0 110 0;
#X connect 44 0 45 0;
#X connect 44 1 121 0;
#X connect 45 0 145 0;
#X connect 46 0 47 0;
#X connect 46 1 100 0;
#X connect 47 0 101 0;
#X connect 48 0 49 0;
#X connect 48 1 112 0;
#X connect 49 0 113 0;
#X connect 50 0 51 0;
#X connect 50 1 146 0;
#X connect 51 0 123 0;
#X connect 52 0 42 0;
#X connect 54 0 44 0;
#X connect 56 0 46 0;
#X connect 58 0 48 0;
#X connect 60 0 50 0;
#X connect 62 0 63 0;
#X connect 62 1 125 0;
#X connect 63 0 126 0;
#X connect 64 0 62 0;
#X connect 66 0 67 0;
#X connect 66 1 128 0;
#X connect 67 0 129 0;
#X connect 68 0 69 0;
#X connect 68 1 131 0;
#X connect 69 0 132 0;
#X connect 70 0 71 0;
#X connect 70 1 134 0;
#X connect 71 0 135 0;
#X connect 72 0 73 0;
#X connect 72 1 137 0;
#X connect 73 0 138 0;
#X connect 74 0 75 0;
#X connect 74 1 140 0;
#X connect 75 0 141 0;
#X connect 76 0 77 0;
#X connect 76 1 143 0;
#X connect 77 0 144 0;
#X connect 78 0 66 0;
#X connect 80 0 68 0;
#X connect 82 0 70 0;
#X connect 84 0 72 0;
#X connect 86 0 74 0;
#X connect 88 0 76 0;
#X connect 90 0 14 0;
#X connect 90 0 91 0;
#X connect 93 0 29 0;
#X connect 93 0 94 0;
#X connect 96 0 41 0;
#X connect 96 0 97 0;
#X connect 99 0 57 0;
#X connect 99 0 100 0;
#X connect 102 0 26 0;
#X connect 102 0 103 0;
#X connect 105 0 37 0;
#X connect 105 0 106 0;
#X connect 108 0 53 0;
#X connect 108 0 109 0;
#X connect 111 0 59 0;
#X connect 111 0 112 0;
#X connect 114 0 27 0;
#X connect 114 0 115 0;
#X connect 117 0 39 0;
#X connect 117 0 118 0;
#X connect 120 0 55 0;
#X connect 120 0 121 0;
#X connect 122 0 61 0;
#X connect 122 0 146 0;
#X connect 124 0 65 0;
#X connect 124 0 125 0;
#X connect 127 0 79 0;
#X connect 127 0 128 0;
#X connect 130 0 81 0;
#X connect 130 0 131 0;
#X connect 133 0 83 0;
#X connect 133 0 134 0;
#X connect 136 0 85 0;
#X connect 136 0 137 0;
#X connect 139 0 87 0;
#X connect 139 0 140 0;
#X connect 142 0 89 0;
#X connect 142 0 143 0;
#X restore 1025 219 pd dawcontrol;
#X obj 1674 259 r \$0-wetdry;
#X obj 1674 282 + 1;
#X obj 1674 305 / 2;
#X msg 1674 328 \$1 20;
#X obj 1674 351 vline~;
#X obj 1776 281 r \$0-wetdry;
#X obj 1776 304 * -1;
#X obj 1776 327 + 1;
#X obj 1776 350 / 2;
#X msg 1776 373 \$1 20;
#X obj 1776 396 vline~;
#X obj 1659 373 *~;
#X obj 1758 421 *~;
#X obj 1428 263 r \$0-wetdry;
#X obj 1428 286 + 1;
#X obj 1428 309 / 2;
#X msg 1428 332 \$1 20;
#X obj 1428 355 vline~;
#X obj 1529 286 r \$0-wetdry;
#X obj 1529 309 * -1;
#X obj 1529 332 + 1;
#X obj 1529 355 / 2;
#X msg 1529 378 \$1 20;
#X obj 1529 401 vline~;
#X obj 1413 377 *~;
#X obj 1512 425 *~;
#X obj 1377 176 throw~ \$0-dryL;
#X obj 1632 176 throw~ \$0-dryR;
#X obj 1513 263 catch~ \$0-dryL;
#X obj 1759 259 catch~ \$0-dryR;
#X obj 932 295 s \$0-attack-num;
#X obj 932 265 r \$0-attack;
#X obj 1049 263 r \$0-release;
#X obj 1049 293 s \$0-release-num;
#X connect 6 0 166 0;
#X connect 6 0 198 0;
#X connect 7 0 167 0;
#X connect 7 0 199 0;
#X connect 26 0 31 0;
#X connect 27 0 55 0;
#X connect 28 0 29 0;
#X connect 29 0 30 0;
#X connect 30 0 31 1;
#X connect 31 0 32 0;
#X connect 32 0 37 0;
#X connect 33 0 59 0;
#X connect 34 0 35 0;
#X connect 35 0 36 0;
#X connect 36 0 37 1;
#X connect 37 0 38 0;
#X connect 38 0 56 0;
#X connect 39 0 38 1;
#X connect 40 0 45 0;
#X connect 41 0 54 0;
#X connect 42 0 43 0;
#X connect 43 0 44 0;
#X connect 44 0 45 1;
#X connect 45 0 46 0;
#X connect 46 0 51 0;
#X connect 47 0 58 0;
#X connect 48 0 49 0;
#X connect 49 0 50 0;
#X connect 50 0 51 1;
#X connect 51 0 52 0;
#X connect 52 0 57 0;
#X connect 53 0 52 1;
#X connect 54 0 42 0;
#X connect 55 0 28 0;
#X connect 58 0 48 0;
#X connect 59 0 34 0;
#X connect 60 0 26 0;
#X connect 61 0 40 0;
#X connect 62 0 67 0;
#X connect 63 0 91 0;
#X connect 64 0 65 0;
#X connect 65 0 66 0;
#X connect 66 0 67 1;
#X connect 67 0 68 0;
#X connect 68 0 73 0;
#X connect 69 0 95 0;
#X connect 70 0 71 0;
#X connect 71 0 72 0;
#X connect 72 0 73 1;
#X connect 73 0 74 0;
#X connect 74 0 92 0;
#X connect 75 0 74 1;
#X connect 76 0 81 0;
#X connect 77 0 90 0;
#X connect 78 0 79 0;
#X connect 79 0 80 0;
#X connect 80 0 81 1;
#X connect 81 0 82 0;
#X connect 82 0 87 0;
#X connect 83 0 94 0;
#X connect 84 0 85 0;
#X connect 85 0 86 0;
#X connect 86 0 87 1;
#X connect 87 0 88 0;
#X connect 88 0 93 0;
#X connect 89 0 88 1;
#X connect 90 0 78 0;
#X connect 91 0 64 0;
#X connect 94 0 84 0;
#X connect 95 0 70 0;
#X connect 96 0 62 0;
#X connect 97 0 76 0;
#X connect 98 0 103 0;
#X connect 99 0 127 0;
#X connect 100 0 101 0;
#X connect 101 0 102 0;
#X connect 102 0 103 1;
#X connect 103 0 104 0;
#X connect 104 0 109 0;
#X connect 105 0 131 0;
#X connect 106 0 107 0;
#X connect 107 0 108 0;
#X connect 108 0 109 1;
#X connect 109 0 110 0;
#X connect 110 0 128 0;
#X connect 111 0 110 1;
#X connect 112 0 117 0;
#X connect 113 0 126 0;
#X connect 114 0 115 0;
#X connect 115 0 116 0;
#X connect 116 0 117 1;
#X connect 117 0 118 0;
#X connect 118 0 123 0;
#X connect 119 0 130 0;
#X connect 120 0 121 0;
#X connect 121 0 122 0;
#X connect 122 0 123 1;
#X connect 123 0 124 0;
#X connect 124 0 129 0;
#X connect 125 0 124 1;
#X connect 126 0 114 0;
#X connect 127 0 100 0;
#X connect 130 0 120 0;
#X connect 131 0 106 0;
#X connect 132 0 98 0;
#X connect 133 0 112 0;
#X connect 134 0 26 1;
#X connect 135 0 27 0;
#X connect 135 0 26 2;
#X connect 136 0 32 1;
#X connect 137 0 33 0;
#X connect 137 0 32 2;
#X connect 138 0 256 0;
#X connect 139 0 40 1;
#X connect 140 0 41 0;
#X connect 140 0 40 2;
#X connect 141 0 46 1;
#X connect 142 0 47 0;
#X connect 142 0 46 2;
#X connect 143 0 257 0;
#X connect 144 0 258 0;
#X connect 145 0 69 0;
#X connect 145 0 68 2;
#X connect 146 0 68 1;
#X connect 147 0 63 0;
#X connect 147 0 62 2;
#X connect 148 0 62 1;
#X connect 149 0 76 1;
#X connect 150 0 77 0;
#X connect 150 0 76 2;
#X connect 151 0 82 1;
#X connect 152 0 83 0;
#X connect 152 0 82 2;
#X connect 153 0 259 0;
#X connect 154 0 98 1;
#X connect 155 0 99 0;
#X connect 155 0 98 2;
#X connect 156 0 104 1;
#X connect 157 0 105 0;
#X connect 157 0 104 2;
#X connect 158 0 260 0;
#X connect 159 0 261 0;
#X connect 160 0 119 0;
#X connect 160 0 118 2;
#X connect 161 0 118 1;
#X connect 162 0 113 0;
#X connect 162 0 112 2;
#X connect 163 0 112 1;
#X connect 166 0 164 0;
#X connect 167 0 165 0;
#X connect 168 0 169 0;
#X connect 169 0 167 1;
#X connect 169 0 166 1;
#X connect 172 0 177 0;
#X connect 173 0 187 0;
#X connect 174 0 179 0;
#X connect 175 0 185 0;
#X connect 176 0 182 0;
#X connect 177 0 176 0;
#X connect 178 0 183 0;
#X connect 179 0 178 0;
#X connect 180 0 181 0;
#X connect 181 0 206 0;
#X connect 182 0 180 0;
#X connect 183 0 180 1;
#X connect 183 0 184 0;
#X connect 184 0 182 0;
#X connect 185 0 178 1;
#X connect 185 0 186 0;
#X connect 186 0 179 0;
#X connect 187 0 176 1;
#X connect 187 0 188 0;
#X connect 188 0 177 0;
#X connect 189 0 192 0;
#X connect 189 0 193 1;
#X connect 190 0 191 0;
#X connect 191 0 193 0;
#X connect 191 0 204 0;
#X connect 192 0 191 0;
#X connect 193 0 201 0;
#X connect 195 0 168 0;
#X connect 196 0 164 0;
#X connect 196 0 309 0;
#X connect 197 0 165 0;
#X connect 197 0 310 0;
#X connect 198 0 307 0;
#X connect 199 0 294 0;
#X connect 200 1 189 0;
#X connect 201 0 194 0;
#X connect 202 0 203 0;
#X connect 203 0 201 1;
#X connect 204 0 194 0;
#X connect 205 0 204 1;
#X connect 206 0 200 0;
#X connect 207 0 212 0;
#X connect 208 0 236 0;
#X connect 209 0 210 0;
#X connect 210 0 211 0;
#X connect 211 0 212 1;
#X connect 212 0 213 0;
#X connect 213 0 218 0;
#X connect 214 0 240 0;
#X connect 215 0 216 0;
#X connect 216 0 217 0;
#X connect 217 0 218 1;
#X connect 218 0 219 0;
#X connect 219 0 237 0;
#X connect 220 0 219 1;
#X connect 221 0 226 0;
#X connect 222 0 235 0;
#X connect 223 0 224 0;
#X connect 224 0 225 0;
#X connect 225 0 226 1;
#X connect 226 0 227 0;
#X connect 227 0 232 0;
#X connect 228 0 239 0;
#X connect 229 0 230 0;
#X connect 230 0 231 0;
#X connect 231 0 232 1;
#X connect 232 0 233 0;
#X connect 233 0 238 0;
#X connect 234 0 233 1;
#X connect 235 0 223 0;
#X connect 236 0 209 0;
#X connect 239 0 229 0;
#X connect 240 0 215 0;
#X connect 241 0 207 0;
#X connect 242 0 221 0;
#X connect 244 0 207 1;
#X connect 245 0 221 1;
#X connect 246 0 222 0;
#X connect 246 0 221 2;
#X connect 247 0 208 0;
#X connect 247 0 207 2;
#X connect 248 0 213 1;
#X connect 249 0 227 1;
#X connect 250 0 228 0;
#X connect 250 0 227 2;
#X connect 251 0 214 0;
#X connect 251 0 213 2;
#X connect 252 0 254 0;
#X connect 253 0 255 0;
#X connect 254 0 220 0;
#X connect 255 0 234 0;
#X connect 256 0 39 0;
#X connect 257 0 53 0;
#X connect 258 0 75 0;
#X connect 259 0 89 0;
#X connect 260 0 111 0;
#X connect 261 0 125 0;
#X connect 273 0 274 0;
#X connect 274 0 275 0;
#X connect 275 0 279 0;
#X connect 283 0 284 0;
#X connect 284 0 285 0;
#X connect 285 0 286 0;
#X connect 286 0 287 0;
#X connect 287 0 294 1;
#X connect 288 0 289 0;
#X connect 289 0 290 0;
#X connect 290 0 291 0;
#X connect 291 0 292 0;
#X connect 292 0 293 0;
#X connect 293 0 295 1;
#X connect 294 0 281 0;
#X connect 295 0 281 0;
#X connect 296 0 297 0;
#X connect 297 0 298 0;
#X connect 298 0 299 0;
#X connect 299 0 300 0;
#X connect 300 0 307 1;
#X connect 301 0 302 0;
#X connect 302 0 303 0;
#X connect 303 0 304 0;
#X connect 304 0 305 0;
#X connect 305 0 306 0;
#X connect 306 0 308 1;
#X connect 307 0 280 0;
#X connect 308 0 280 0;
#X connect 311 0 308 0;
#X connect 312 0 295 0;
#X connect 314 0 313 0;
#X connect 315 0 316 0;
#X coords 0 -1 1 1 800 240 1 100 100;
