#N canvas -8 -8 2560 997 12;
#X obj 440 876 delwrite~ \$0-left 260;
#X obj 54 966 metro 1500;
#X obj 54 994 random 73;
#X obj 54 1052 vline~;
#X msg 54 1024 \$1 750 \, 0 750 750;
#X obj 53 1080 +~ 47;
#X obj 53 1851 dac~;
#X obj 222 471 s~ \$0-dryleft;
#X obj 51 1517 r~ \$0-dryleft;
#X obj 52 1695 *~;
#X obj 70 1667 vline~;
#X msg 70 1639 \$1 20;
#X obj 54 939 loadbang;
#X obj 208 967 metro 1500;
#X obj 208 1053 vline~;
#X msg 208 1025 \$1 750 \, 0 750 750;
#X obj 208 940 loadbang;
#X obj 208 995 random 14;
#X obj 207 1081 +~ 120;
#X obj 362 1054 vline~;
#X obj 362 941 loadbang;
#X obj 362 968 metro 1600;
#X obj 362 996 random 12;
#X msg 362 1026 \$1 800 \, 0 800 800;
#X obj 361 1082 +~ 134;
#X obj 512 1054 vline~;
#X obj 512 941 loadbang;
#X obj 512 968 metro 1600;
#X obj 512 996 random 12;
#X msg 512 1026 \$1 800 \, 0 800 800;
#X obj 511 1082 +~ 146;
#X obj 659 1054 vline~;
#X obj 659 941 loadbang;
#X obj 659 968 metro 1800;
#X obj 659 996 random 11;
#X msg 659 1026 \$1 900 \, 0 900 900;
#X obj 658 1082 +~ 158;
#X obj 808 1052 vline~;
#X obj 808 939 loadbang;
#X obj 808 966 metro 1800;
#X obj 808 994 random 11;
#X msg 808 1024 \$1 900 \, 0 900 900;
#X obj 807 1080 +~ 169;
#X obj 957 1049 vline~;
#X obj 957 936 loadbang;
#X obj 957 963 metro 2100;
#X obj 957 991 random 10;
#X msg 957 1021 \$1 1050 \, 0 1050 1050;
#X obj 956 1077 +~ 180;
#X obj 1121 1049 vline~;
#X obj 1121 936 loadbang;
#X obj 1121 963 metro 2100;
#X obj 1121 991 random 10;
#X msg 1121 1021 \$1 1050 \, 0 1050 1050;
#X obj 1120 1077 +~ 190;
#X obj 53 1321 vline~;
#X obj 52 1349 +~ 47;
#X obj 53 1208 loadbang;
#X obj 207 1322 vline~;
#X obj 207 1209 loadbang;
#X obj 206 1350 +~ 120;
#X obj 361 1323 vline~;
#X obj 361 1210 loadbang;
#X obj 360 1351 +~ 134;
#X obj 511 1323 vline~;
#X obj 511 1210 loadbang;
#X obj 510 1351 +~ 146;
#X obj 658 1323 vline~;
#X obj 658 1210 loadbang;
#X obj 657 1351 +~ 158;
#X obj 815 1323 vline~;
#X obj 815 1210 loadbang;
#X obj 814 1351 +~ 169;
#X obj 969 1322 vline~;
#X obj 969 1209 loadbang;
#X obj 968 1350 +~ 180;
#X obj 1133 1322 vline~;
#X obj 1133 1209 loadbang;
#X obj 1132 1350 +~ 190;
#X obj 53 1235 metro 2300;
#X obj 207 1236 metro 2300;
#X obj 361 1237 metro 3300;
#X obj 511 1237 metro 3300;
#X obj 658 1237 metro 5500;
#X obj 815 1237 metro 5500;
#X obj 969 1236 metro 8200;
#X obj 1133 1236 metro 8200;
#X obj 53 1263 random 9;
#X obj 207 1264 random 9;
#X obj 361 1265 random 8;
#X obj 511 1265 random 8;
#X obj 658 1265 random 7;
#X obj 815 1265 random 7;
#X obj 969 1264 random 4;
#X obj 1133 1264 random 3;
#X msg 53 1293 \$1 1150 \, 0 1150 1150;
#X msg 207 1294 \$1 1150 \, 0 1150 1150;
#X msg 361 1295 \$1 1650 \, 0 1650 1650;
#X msg 511 1295 \$1 1650 \, 0 1650 1650;
#X msg 658 1295 \$1 2750 \, 0 2750 2750;
#X msg 815 1295 \$1 2750 \, 0 2750 2750;
#X msg 969 1294 \$1 4100 \, 0 4100 4100;
#X msg 1133 1294 \$1 4100 \, 0 4100 4100;
#X obj 52 1439 throw~ \$0-feedbackL;
#X obj 206 1438 throw~ \$0-feedbackL;
#X obj 360 1438 throw~ \$0-feedbackL;
#X obj 510 1438 throw~ \$0-feedbackL;
#X obj 657 1439 throw~ \$0-feedbackL;
#X obj 814 1436 throw~ \$0-feedbackL;
#X obj 968 1435 throw~ \$0-feedbackL;
#X obj 1132 1435 throw~ \$0-feedbackL;
#X obj 305 1617 *~;
#X obj 323 1589 vline~;
#X msg 323 1561 \$1 20;
#X obj 460 751 *~;
#X obj 478 723 vline~;
#X msg 478 695 \$1 20;
#X obj 53 1169 throw~ \$0-feedbackL;
#X obj 207 1168 throw~ \$0-feedbackL;
#X obj 361 1168 throw~ \$0-feedbackL;
#X obj 511 1168 throw~ \$0-feedbackL;
#X obj 658 1169 throw~ \$0-feedbackL;
#X obj 807 1166 throw~ \$0-feedbackL;
#X obj 955 1164 throw~ \$0-feedbackL;
#X obj 1119 1164 throw~ \$0-feedbackL;
#X obj 460 644 catch~ \$0-feedbackL;
#X obj 53 1140 *~ 0.2;
#X obj 207 1139 *~ 0.2;
#X obj 361 1138 *~ 0.2;
#X obj 511 1139 *~ 0.2;
#X obj 658 1139 *~ 0.2;
#X obj 807 1137 *~ 0.2;
#X obj 955 1135 *~ 0.2;
#X obj 1119 1135 *~ 0.2;
#X obj 52 1410 *~ 0.2;
#X obj 206 1410 *~ 0.2;
#X obj 360 1409 *~ 0.2;
#X obj 510 1409 *~ 0.2;
#X obj 656 1409 *~ 0.2;
#X obj 814 1407 *~ 0.2;
#X obj 968 1405 *~ 0.2;
#X obj 1132 1406 *~ 0.2;
#X obj 307 1512 delread~ \$0-left 60;
#X obj 482 1617 *~;
#X obj 500 1589 vline~;
#X msg 500 1561 \$1 20;
#X obj 645 1615 *~;
#X obj 663 1587 vline~;
#X msg 663 1559 \$1 20;
#X obj 813 1613 *~;
#X obj 831 1585 vline~;
#X msg 831 1557 \$1 20;
#X obj 978 1610 *~;
#X obj 996 1582 vline~;
#X msg 996 1554 \$1 20;
#X obj 1146 1608 *~;
#X obj 1164 1580 vline~;
#X msg 1164 1552 \$1 20;
#X obj 1308 1605 *~;
#X obj 1326 1577 vline~;
#X msg 1326 1549 \$1 20;
#X obj 1476 1603 *~;
#X obj 1494 1575 vline~;
#X msg 1494 1547 \$1 20;
#X obj 483 1512 delread~ \$0-left 77;
#X obj 646 1510 delread~ \$0-left 137;
#X obj 814 1508 delread~ \$0-left 112;
#X obj 979 1505 delread~ \$0-left 175;
#X obj 1147 1503 delread~ \$0-left 160;
#X obj 1309 1500 delread~ \$0-left 190;
#X obj 1477 1498 delread~ \$0-left 212;
#X obj 459 793 lop~ 8000;
#X obj 460 839 hip~ 20;
#X obj 696 233 hsl 128 15 20 20000 1 0 \$0-fblop-s \$0-fblop-r Feedback_Low_Pass
-2 -8 1 10 -262144 -1 -1 0 1;
#X obj 305 1650 *~ 0.5;
#X obj 440 606 hip~ 20;
#X obj 440 556 lop~ 20000;
#X obj 1428 957 metro 1500;
#X obj 1428 985 random 73;
#X obj 1428 1043 vline~;
#X msg 1428 1015 \$1 750 \, 0 750 750;
#X obj 1427 1071 +~ 47;
#X obj 1428 930 loadbang;
#X obj 1582 958 metro 1500;
#X obj 1582 1044 vline~;
#X msg 1582 1016 \$1 750 \, 0 750 750;
#X obj 1582 931 loadbang;
#X obj 1582 986 random 14;
#X obj 1581 1072 +~ 120;
#X obj 1736 1045 vline~;
#X obj 1736 932 loadbang;
#X obj 1736 959 metro 1600;
#X obj 1736 987 random 12;
#X msg 1736 1017 \$1 800 \, 0 800 800;
#X obj 1735 1073 +~ 134;
#X obj 1886 1045 vline~;
#X obj 1886 932 loadbang;
#X obj 1886 959 metro 1600;
#X obj 1886 987 random 12;
#X msg 1886 1017 \$1 800 \, 0 800 800;
#X obj 1885 1073 +~ 146;
#X obj 2033 1045 vline~;
#X obj 2033 932 loadbang;
#X obj 2033 959 metro 1800;
#X obj 2033 987 random 11;
#X msg 2033 1017 \$1 900 \, 0 900 900;
#X obj 2032 1073 +~ 158;
#X obj 2182 1043 vline~;
#X obj 2182 930 loadbang;
#X obj 2182 957 metro 1800;
#X obj 2182 985 random 11;
#X msg 2182 1015 \$1 900 \, 0 900 900;
#X obj 2181 1071 +~ 169;
#X obj 2331 1040 vline~;
#X obj 2331 927 loadbang;
#X obj 2331 954 metro 2100;
#X obj 2331 982 random 10;
#X msg 2331 1012 \$1 1050 \, 0 1050 1050;
#X obj 2330 1068 +~ 180;
#X obj 2495 1040 vline~;
#X obj 2495 927 loadbang;
#X obj 2495 954 metro 2100;
#X obj 2495 982 random 10;
#X msg 2495 1012 \$1 1050 \, 0 1050 1050;
#X obj 2494 1068 +~ 190;
#X obj 1427 1312 vline~;
#X obj 1426 1340 +~ 47;
#X obj 1427 1199 loadbang;
#X obj 1581 1313 vline~;
#X obj 1581 1200 loadbang;
#X obj 1580 1341 +~ 120;
#X obj 1735 1314 vline~;
#X obj 1735 1201 loadbang;
#X obj 1734 1342 +~ 134;
#X obj 1885 1314 vline~;
#X obj 1885 1201 loadbang;
#X obj 1884 1342 +~ 146;
#X obj 2032 1314 vline~;
#X obj 2032 1201 loadbang;
#X obj 2031 1342 +~ 158;
#X obj 2189 1314 vline~;
#X obj 2189 1201 loadbang;
#X obj 2188 1342 +~ 169;
#X obj 2343 1313 vline~;
#X obj 2343 1200 loadbang;
#X obj 2342 1341 +~ 180;
#X obj 2507 1313 vline~;
#X obj 2507 1200 loadbang;
#X obj 2506 1341 +~ 190;
#X obj 1427 1226 metro 2300;
#X obj 1581 1227 metro 2300;
#X obj 1735 1228 metro 3300;
#X obj 1885 1228 metro 3300;
#X obj 2032 1228 metro 5500;
#X obj 2189 1228 metro 5500;
#X obj 2343 1227 metro 8200;
#X obj 2507 1227 metro 8200;
#X obj 1427 1254 random 9;
#X obj 1581 1255 random 9;
#X obj 1735 1256 random 8;
#X obj 1885 1256 random 8;
#X obj 2032 1256 random 7;
#X obj 2189 1256 random 7;
#X obj 2343 1255 random 4;
#X obj 2507 1255 random 3;
#X msg 1427 1284 \$1 1150 \, 0 1150 1150;
#X msg 1581 1285 \$1 1150 \, 0 1150 1150;
#X msg 1735 1286 \$1 1650 \, 0 1650 1650;
#X msg 1885 1286 \$1 1650 \, 0 1650 1650;
#X msg 2032 1286 \$1 2750 \, 0 2750 2750;
#X msg 2189 1286 \$1 2750 \, 0 2750 2750;
#X msg 2343 1285 \$1 4100 \, 0 4100 4100;
#X msg 2507 1285 \$1 4100 \, 0 4100 4100;
#X obj 1427 1131 *~ 0.2;
#X obj 1581 1130 *~ 0.2;
#X obj 1735 1129 *~ 0.2;
#X obj 1885 1130 *~ 0.2;
#X obj 2032 1130 *~ 0.2;
#X obj 2181 1128 *~ 0.2;
#X obj 2329 1126 *~ 0.2;
#X obj 2493 1126 *~ 0.2;
#X obj 1426 1401 *~ 0.2;
#X obj 1580 1401 *~ 0.2;
#X obj 1734 1400 *~ 0.2;
#X obj 1884 1400 *~ 0.2;
#X obj 2030 1400 *~ 0.2;
#X obj 2188 1398 *~ 0.2;
#X obj 2342 1396 *~ 0.2;
#X obj 2506 1397 *~ 0.2;
#X obj 53 1109 vd~ \$0-left;
#X obj 207 1109 vd~ \$0-left;
#X obj 361 1110 vd~ \$0-left;
#X obj 511 1112 vd~ \$0-left;
#X obj 658 1110 vd~ \$0-left;
#X obj 807 1108 vd~ \$0-left;
#X obj 955 1105 vd~ \$0-left;
#X obj 1120 1105 vd~ \$0-left;
#X obj 1132 1378 vd~ \$0-left;
#X obj 968 1378 vd~ \$0-left;
#X obj 814 1379 vd~ \$0-left;
#X obj 657 1381 vd~ \$0-left;
#X obj 510 1379 vd~ \$0-left;
#X obj 360 1379 vd~ \$0-left;
#X obj 206 1378 vd~ \$0-left;
#X obj 52 1377 vd~ \$0-left;
#X obj 1427 1099 vd~ \$0-right;
#X obj 1581 1100 vd~ \$0-right;
#X obj 1735 1101 vd~ \$0-right;
#X obj 1885 1101 vd~ \$0-right;
#X obj 2032 1101 vd~ \$0-right;
#X obj 2181 1099 vd~ \$0-right;
#X obj 2330 1096 vd~ \$0-right;
#X obj 2494 1096 vd~ \$0-right;
#X obj 2506 1369 vd~ \$0-right;
#X obj 2342 1369 vd~ \$0-right;
#X obj 2188 1370 vd~ \$0-right;
#X obj 2031 1369 vd~ \$0-right;
#X obj 1884 1370 vd~ \$0-right;
#X obj 1734 1370 vd~ \$0-right;
#X obj 1580 1369 vd~ \$0-right;
#X obj 1426 1367 vd~ \$0-right;
#X obj 1427 1160 throw~ \$0-feedbackR;
#X obj 1581 1159 throw~ \$0-feedbackR;
#X obj 1735 1159 throw~ \$0-feedbackR;
#X obj 1885 1160 throw~ \$0-feedbackR;
#X obj 2032 1160 throw~ \$0-feedbackR;
#X obj 2181 1157 throw~ \$0-feedbackR;
#X obj 2329 1155 throw~ \$0-feedbackR;
#X obj 2493 1155 throw~ \$0-feedbackR;
#X obj 2506 1426 throw~ \$0-feedbackR;
#X obj 2342 1426 throw~ \$0-feedbackR;
#X obj 2188 1427 throw~ \$0-feedbackR;
#X obj 2031 1430 throw~ \$0-feedbackR;
#X obj 1884 1429 throw~ \$0-feedbackR;
#X obj 1734 1429 throw~ \$0-feedbackR;
#X obj 1580 1431 throw~ \$0-feedbackR;
#X obj 1426 1430 throw~ \$0-feedbackR;
#X obj 727 874 delwrite~ \$0-right 260;
#X obj 726 605 hip~ 20;
#X obj 726 554 lop~ 20000;
#X obj 753 749 *~;
#X obj 752 791 lop~ 8000;
#X obj 753 837 hip~ 20;
#X obj 753 642 catch~ \$0-feedbackR;
#X obj 314 198 hsl 128 15 0 1 0 0 \$0-tap1-s \$0-tap1-r 1 -2 -8 1 10
-262144 -1 -1 0 1;
#X obj 323 1536 r \$0-tap1;
#X obj 499 1536 r \$0-tap2;
#X obj 663 1535 r \$0-tap3;
#X obj 830 1531 r \$0-tap4;
#X obj 995 1529 r \$0-tap5;
#X obj 1163 1524 r \$0-tap6;
#X obj 1325 1521 r \$0-tap7;
#X obj 1493 1522 r \$0-tap8;
#X obj 314 233 hsl 128 15 0 1 0 0 \$0-tap2-s \$0-tap2-r 2 -2 -8 1 10
-262144 -1 -1 0 1;
#X obj 314 268 hsl 128 15 0 1 0 0 \$0-tap3-s \$0-tap3-r 3 -2 -8 1 10
-262144 -1 -1 0 1;
#X obj 314 303 hsl 128 15 0 1 0 0 \$0-tap4-s \$0-tap4-r 4 -2 -8 1 10
-262144 -1 -1 0 1;
#X obj 505 198 hsl 128 15 0 1 0 0 \$0-tap5-s \$0-tap5-r 5 -2 -8 1 10
-262144 -1 -1 0 1;
#X obj 505 233 hsl 128 15 0 1 0 0 \$0-tap6-s \$0-tap6-r 6 -2 -8 1 10
-262144 -1 -1 0 1;
#X obj 505 268 hsl 128 15 0 1 0 0 \$0-tap7-s \$0-tap7-r 7 -2 -8 1 10
-262144 -1 -1 0 1;
#X obj 505 303 hsl 128 15 0 1 0 0 \$0-tap8-s \$0-tap8-r 8 -2 -8 1 10
-262144 -1 -1 0 1;
#X obj 696 268 hsl 128 15 20 20000 1 0 \$0-fbhip-s \$0-fbhip-r Feedback_High_Pass
-2 -8 1 10 -262144 -1 -1 0 1;
#X obj 520 764 r \$0-fblop;
#X obj 812 764 r \$0-fblop;
#X obj 505 816 r \$0-fbhip;
#X obj 797 813 r \$0-fbhip;
#X obj 123 268 hsl 128 15 20 20000 1 0 \$0-inlop-s \$0-inlop-r Input_Low_Pass
-2 -8 1 10 -262144 -1 -1 0 1;
#X obj 123 303 hsl 128 15 20 20000 1 0 \$0-inhip-s \$0-inhip-r Input_High_Pass
-2 -8 1 10 -262144 -1 -1 0 1;
#X obj 507 531 r \$0-inlop;
#X obj 486 580 r \$0-inhip;
#X obj 793 528 r \$0-inlop;
#X obj 772 580 r \$0-inhip;
#X obj 771 721 vline~;
#X msg 771 693 \$1 20;
#X obj 440 358 r~ \$0-dryleft;
#X obj 275 445 s~ \$0-dryright;
#X obj 696 198 hsl 128 15 0 2 0 0 \$0-decaytime-s \$0-decaytime-r Feedback
-2 -8 1 10 -262144 -1 -1 0 1;
#X obj 770 667 r \$0-decaytime;
#X obj 477 668 r \$0-decaytime;
#X obj 1708 1600 *~;
#X obj 1726 1572 vline~;
#X msg 1726 1544 \$1 20;
#X obj 1885 1600 *~;
#X obj 1903 1572 vline~;
#X msg 1903 1544 \$1 20;
#X obj 2048 1598 *~;
#X obj 2066 1570 vline~;
#X msg 2066 1542 \$1 20;
#X obj 2216 1596 *~;
#X obj 2234 1568 vline~;
#X msg 2234 1540 \$1 20;
#X obj 2381 1593 *~;
#X obj 2399 1565 vline~;
#X msg 2399 1537 \$1 20;
#X obj 2549 1591 *~;
#X obj 2567 1563 vline~;
#X msg 2567 1535 \$1 20;
#X obj 2711 1588 *~;
#X obj 2729 1560 vline~;
#X msg 2729 1532 \$1 20;
#X obj 2879 1586 *~;
#X obj 2897 1558 vline~;
#X msg 2897 1530 \$1 20;
#X obj 1708 1633 *~ 0.5;
#X obj 1726 1519 r \$0-tap1;
#X obj 1902 1519 r \$0-tap2;
#X obj 2066 1518 r \$0-tap3;
#X obj 2233 1514 r \$0-tap4;
#X obj 2398 1512 r \$0-tap5;
#X obj 2566 1507 r \$0-tap6;
#X obj 2728 1504 r \$0-tap7;
#X obj 2896 1505 r \$0-tap8;
#X obj 1710 1495 delread~ \$0-right 60;
#X obj 1886 1495 delread~ \$0-right 77;
#X obj 2049 1493 delread~ \$0-right 137;
#X obj 2217 1491 delread~ \$0-right 112;
#X obj 2382 1488 delread~ \$0-right 175;
#X obj 2550 1486 delread~ \$0-right 160;
#X obj 2712 1483 delread~ \$0-right 190;
#X obj 2880 1480 delread~ \$0-right 212;
#X obj 306 1813 *~;
#X obj 324 1785 vline~;
#X msg 324 1757 \$1 20;
#X obj 1708 1799 *~;
#X obj 1726 1771 vline~;
#X msg 1726 1743 \$1 20;
#X obj 696 303 hsl 128 15 -1 1 0 0 \$0-wetdry-s \$0-wetdry-r Dry/Wet
-2 -8 1 10 -262144 -1 -1 0 1;
#X obj 160 1697 *~;
#X obj 178 1669 vline~;
#X msg 178 1641 \$1 20;
#X obj 54 1798 catch~ \$0-dacL;
#X obj 53 1725 throw~ \$0-dacL;
#X obj 160 1725 throw~ \$0-dacR;
#X obj 78 1824 catch~ \$0-dacR;
#X obj 306 1842 throw~ \$0-dacL;
#X obj 1708 1828 throw~ \$0-dacR;
#X obj 323 1676 r \$0-wetdry;
#X obj 1726 1662 r \$0-wetdry;
#X obj 70 1541 r \$0-wetdry;
#X obj 178 1543 r \$0-wetdry;
#X obj 449 387 r~ \$0-dryright;
#X obj 450 414 *~ 0.1;
#X obj 631 876 *~ 0.25;
#X obj 630 845 *~ 0.25;
#X obj 223 417 adc~ 1 2;
#X obj 159 1519 r~ \$0-dryright;
#X obj 123 233 hsl 128 15 0 1.5 0 0 \$0-inputgain-s \$0-inputgain-r
Input_Gain -2 -8 1 10 -262144 -1 -1 0 1;
#X obj 257 234 nbx 4 14 -1e+037 1e+037 0 0 empty \$0-inputgain empty
0 -8 0 10 -262144 -1 -1 0 256;
#X obj 257 269 nbx 4 14 -1e+037 1e+037 0 0 empty \$0-inlop empty 0
-8 0 10 -262144 -1 -1 0 256;
#X obj 257 304 nbx 4 14 -1e+037 1e+037 0 0 empty \$0-inhip empty 0
-8 0 10 -262144 -1 -1 0 256;
#X obj 830 234 nbx 4 14 -1e+037 1e+037 0 0 empty \$0-fblop empty 0
-8 0 10 -262144 -1 -1 0 256;
#X obj 830 269 nbx 4 14 -1e+037 1e+037 0 0 empty \$0-fbhip empty 0
-8 0 10 -262144 -1 -1 0 256;
#X obj 323 1702 + 1;
#X obj 323 1725 / 2;
#X obj 178 1569 * -1;
#X obj 178 1592 + 1;
#X obj 178 1615 / 2;
#X obj 70 1567 * -1;
#X obj 70 1590 + 1;
#X obj 70 1613 / 2;
#X obj 1726 1689 + 1;
#X obj 1726 1712 / 2;
#X obj 830 304 nbx 4 14 -1e+037 1e+037 0 0 empty \$0-wetdry empty 0
-8 0 10 -262144 -1 -1 0 256;
#X obj 830 199 nbx 4 14 -1e+037 1e+037 0 0 empty \$0-decaytime empty
0 -8 0 10 -262144 -1 -1 0 256;
#X obj 448 199 nbx 4 14 -1e+037 1e+037 0 0 empty \$0-tap1 empty 0 -8
0 10 -262144 -1 -1 0 256;
#X obj 448 234 nbx 4 14 -1e+037 1e+037 0 0 empty \$0-tap2 empty 0 -8
0 10 -262144 -1 -1 0 256;
#X obj 448 269 nbx 4 14 -1e+037 1e+037 0 0 empty \$0-tap3 empty 0 -8
0 10 -262144 -1 -1 0 256;
#X obj 448 304 nbx 4 14 -1e+037 1e+037 0 0 empty \$0-tap4 empty 0 -8
0 10 -262144 -1 -1 0 256;
#X obj 639 199 nbx 4 14 -1e+037 1e+037 0 0 empty \$0-tap5 empty 0 -8
0 10 -262144 -1 -1 0 256;
#X obj 639 234 nbx 4 14 -1e+037 1e+037 0 0 empty \$0-tap6 empty 0 -8
0 10 -262144 -1 -1 0 256;
#X obj 639 269 nbx 4 14 -1e+037 1e+037 0 0 empty \$0-tap7 empty 0 -8
0 10 -262144 -1 -1 0 256;
#X obj 639 304 nbx 4 14 -1e+037 1e+037 0 0 empty \$0-tap8 empty 0 -8
0 10 -262144 -1 -1 0 256;
#X obj 1034 150 param.get 1;
#X msg 1055 189 set \$1;
#X obj 1034 260 s \$0-inputgain;
#X obj 1025 89 param.change;
#X obj 1034 292 param.set 1 \$0-inputgain-s;
#X msg 1051 364 set \$1;
#X obj 1030 325 param.get 2;
#X obj 1030 435 s \$0-inlop;
#X obj 1029 469 param.set 2 \$0-inlop-s;
#X msg 1045 552 set \$1;
#X msg 1392 187 set \$1;
#X obj 1024 513 param.get 3;
#X obj 1024 623 s \$0-inhip;
#X obj 1024 655 param.set 3 \$0-inhip-s;
#X obj 1371 148 param.get 4;
#X obj 1371 258 s \$0-tap1;
#X obj 1370 292 param.set 4 \$0-tap1-s;
#X msg 1386 372 set \$1;
#X msg 1389 550 set \$1;
#X msg 1384 727 set \$1;
#X msg 1658 190 set \$1;
#X msg 1652 375 set \$1;
#X msg 1655 553 set \$1;
#X msg 1650 730 set \$1;
#X obj 1365 333 param.get 5;
#X obj 1366 443 s \$0-tap2;
#X obj 1364 477 param.set 5 \$0-tap2-s;
#X obj 1368 511 param.get 6;
#X obj 1368 621 s \$0-tap3;
#X obj 1367 655 param.set 6 \$0-tap3-s;
#X obj 1363 688 param.get 7;
#X obj 1363 798 s \$0-tap4;
#X obj 1362 832 param.set 7 \$0-tap4-s;
#X obj 1637 151 param.get 8;
#X obj 1637 261 s \$0-tap5;
#X obj 1636 295 param.set 8 \$0-tap5-s;
#X obj 1631 336 param.get 9;
#X obj 1634 514 param.get 10;
#X obj 1631 446 s \$0-tap6;
#X obj 1630 480 param.set 9 \$0-tap6-s;
#X obj 1636 624 s \$0-tap7;
#X obj 1633 658 param.set 10 \$0-tap7-s;
#X obj 1629 801 s \$0-tap8;
#X msg 1956 193 set \$1;
#X msg 1950 378 set \$1;
#X msg 1953 556 set \$1;
#X msg 1948 733 set \$1;
#X obj 1055 216 s \$0-inputgain-r;
#X obj 1051 391 s \$0-inlop-r;
#X obj 1045 579 s \$0-inhip-r;
#X obj 1392 214 s \$0-tap1-r;
#X obj 1386 399 s \$0-tap2-r;
#X obj 1389 577 s \$0-tap3-r;
#X obj 1384 754 s \$0-tap4-r;
#X obj 1658 217 s \$0-tap5-r;
#X obj 1652 402 s \$0-tap6-r;
#X obj 1655 580 s \$0-tap7-r;
#X obj 1650 757 s \$0-tap8-r;
#X obj 1956 220 s \$0-decaytime-r;
#X obj 1935 263 s \$0-decaytime;
#X obj 1950 405 s \$0-fblop-r;
#X obj 1929 449 s \$0-fblop;
#X obj 1953 583 s \$0-fbhip-r;
#X obj 1934 627 s \$0-fbhip;
#X obj 1948 760 s \$0-wetdry-r;
#X obj 1927 804 s \$0-wetdry;
#X obj 1628 691 param.get 11;
#X obj 1935 154 param.get 12;
#X obj 1929 339 param.get 13;
#X obj 1932 517 param.get 14;
#X obj 1926 694 param.get 15;
#X obj 1628 835 param.set 11 \$0-tap8-s;
#X obj 1934 298 param.set 12 \$0-decaytime-s;
#X obj 1928 483 param.set 13 \$0-fblop-s;
#X obj 1931 661 param.set 14 \$0-fbhip-s;
#X obj 1927 838 param.set 15 \$0-wetdry-s;
#X obj 441 526 *~;
#X obj 459 498 vline~;
#X msg 459 470 \$1 20;
#X obj 458 445 r \$0-inputgain;
#X obj 735 414 *~ 0.1;
#X obj 726 526 *~;
#X obj 744 498 vline~;
#X msg 744 470 \$1 20;
#X obj 743 445 r \$0-inputgain;
#X obj 725 358 r~ \$0-dryright;
#X obj 734 387 r~ \$0-dryleft;
#X connect 1 0 2 0;
#X connect 2 0 4 0;
#X connect 3 0 5 0;
#X connect 4 0 3 0;
#X connect 5 0 289 0;
#X connect 8 0 9 0;
#X connect 9 0 430 0;
#X connect 10 0 9 1;
#X connect 11 0 10 0;
#X connect 12 0 1 0;
#X connect 13 0 17 0;
#X connect 14 0 18 0;
#X connect 15 0 14 0;
#X connect 16 0 13 0;
#X connect 17 0 15 0;
#X connect 18 0 290 0;
#X connect 19 0 24 0;
#X connect 20 0 21 0;
#X connect 21 0 22 0;
#X connect 22 0 23 0;
#X connect 23 0 19 0;
#X connect 24 0 291 0;
#X connect 25 0 30 0;
#X connect 26 0 27 0;
#X connect 27 0 28 0;
#X connect 28 0 29 0;
#X connect 29 0 25 0;
#X connect 30 0 292 0;
#X connect 31 0 36 0;
#X connect 32 0 33 0;
#X connect 33 0 34 0;
#X connect 34 0 35 0;
#X connect 35 0 31 0;
#X connect 36 0 293 0;
#X connect 37 0 42 0;
#X connect 38 0 39 0;
#X connect 39 0 40 0;
#X connect 40 0 41 0;
#X connect 41 0 37 0;
#X connect 42 0 294 0;
#X connect 43 0 48 0;
#X connect 44 0 45 0;
#X connect 45 0 46 0;
#X connect 46 0 47 0;
#X connect 47 0 43 0;
#X connect 48 0 295 0;
#X connect 49 0 54 0;
#X connect 50 0 51 0;
#X connect 51 0 52 0;
#X connect 52 0 53 0;
#X connect 53 0 49 0;
#X connect 54 0 296 0;
#X connect 55 0 56 0;
#X connect 56 0 304 0;
#X connect 57 0 79 0;
#X connect 58 0 60 0;
#X connect 59 0 80 0;
#X connect 60 0 303 0;
#X connect 61 0 63 0;
#X connect 62 0 81 0;
#X connect 63 0 302 0;
#X connect 64 0 66 0;
#X connect 65 0 82 0;
#X connect 66 0 301 0;
#X connect 67 0 69 0;
#X connect 68 0 83 0;
#X connect 69 0 300 0;
#X connect 70 0 72 0;
#X connect 71 0 84 0;
#X connect 72 0 299 0;
#X connect 73 0 75 0;
#X connect 74 0 85 0;
#X connect 75 0 298 0;
#X connect 76 0 78 0;
#X connect 77 0 86 0;
#X connect 78 0 297 0;
#X connect 79 0 87 0;
#X connect 80 0 88 0;
#X connect 81 0 89 0;
#X connect 82 0 90 0;
#X connect 83 0 91 0;
#X connect 84 0 92 0;
#X connect 85 0 93 0;
#X connect 86 0 94 0;
#X connect 87 0 95 0;
#X connect 88 0 96 0;
#X connect 89 0 97 0;
#X connect 90 0 98 0;
#X connect 91 0 99 0;
#X connect 92 0 100 0;
#X connect 93 0 101 0;
#X connect 94 0 102 0;
#X connect 95 0 55 0;
#X connect 96 0 58 0;
#X connect 97 0 61 0;
#X connect 98 0 64 0;
#X connect 99 0 67 0;
#X connect 100 0 70 0;
#X connect 101 0 73 0;
#X connect 102 0 76 0;
#X connect 111 0 174 0;
#X connect 112 0 111 1;
#X connect 113 0 112 0;
#X connect 114 0 171 0;
#X connect 115 0 114 1;
#X connect 116 0 115 0;
#X connect 125 0 114 0;
#X connect 126 0 117 0;
#X connect 127 0 118 0;
#X connect 128 0 119 0;
#X connect 129 0 120 0;
#X connect 130 0 121 0;
#X connect 131 0 122 0;
#X connect 132 0 123 0;
#X connect 133 0 124 0;
#X connect 134 0 103 0;
#X connect 135 0 104 0;
#X connect 136 0 105 0;
#X connect 137 0 106 0;
#X connect 138 0 107 0;
#X connect 139 0 108 0;
#X connect 140 0 109 0;
#X connect 141 0 110 0;
#X connect 142 0 111 0;
#X connect 143 0 174 0;
#X connect 144 0 143 1;
#X connect 145 0 144 0;
#X connect 146 0 174 0;
#X connect 147 0 146 1;
#X connect 148 0 147 0;
#X connect 149 0 174 0;
#X connect 150 0 149 1;
#X connect 151 0 150 0;
#X connect 152 0 174 0;
#X connect 153 0 152 1;
#X connect 154 0 153 0;
#X connect 155 0 174 0;
#X connect 156 0 155 1;
#X connect 157 0 156 0;
#X connect 158 0 174 0;
#X connect 159 0 158 1;
#X connect 160 0 159 0;
#X connect 161 0 174 0;
#X connect 162 0 161 1;
#X connect 163 0 162 0;
#X connect 164 0 143 0;
#X connect 165 0 146 0;
#X connect 166 0 149 0;
#X connect 167 0 152 0;
#X connect 168 0 155 0;
#X connect 169 0 158 0;
#X connect 170 0 161 0;
#X connect 171 0 172 0;
#X connect 172 0 0 0;
#X connect 172 0 441 0;
#X connect 174 0 419 0;
#X connect 175 0 0 0;
#X connect 176 0 175 0;
#X connect 177 0 178 0;
#X connect 178 0 180 0;
#X connect 179 0 181 0;
#X connect 180 0 179 0;
#X connect 181 0 305 0;
#X connect 182 0 177 0;
#X connect 183 0 187 0;
#X connect 184 0 188 0;
#X connect 185 0 184 0;
#X connect 186 0 183 0;
#X connect 187 0 185 0;
#X connect 188 0 306 0;
#X connect 189 0 194 0;
#X connect 190 0 191 0;
#X connect 191 0 192 0;
#X connect 192 0 193 0;
#X connect 193 0 189 0;
#X connect 194 0 307 0;
#X connect 195 0 200 0;
#X connect 196 0 197 0;
#X connect 197 0 198 0;
#X connect 198 0 199 0;
#X connect 199 0 195 0;
#X connect 200 0 308 0;
#X connect 201 0 206 0;
#X connect 202 0 203 0;
#X connect 203 0 204 0;
#X connect 204 0 205 0;
#X connect 205 0 201 0;
#X connect 206 0 309 0;
#X connect 207 0 212 0;
#X connect 208 0 209 0;
#X connect 209 0 210 0;
#X connect 210 0 211 0;
#X connect 211 0 207 0;
#X connect 212 0 310 0;
#X connect 213 0 218 0;
#X connect 214 0 215 0;
#X connect 215 0 216 0;
#X connect 216 0 217 0;
#X connect 217 0 213 0;
#X connect 218 0 311 0;
#X connect 219 0 224 0;
#X connect 220 0 221 0;
#X connect 221 0 222 0;
#X connect 222 0 223 0;
#X connect 223 0 219 0;
#X connect 224 0 312 0;
#X connect 225 0 226 0;
#X connect 226 0 320 0;
#X connect 227 0 249 0;
#X connect 228 0 230 0;
#X connect 229 0 250 0;
#X connect 230 0 319 0;
#X connect 231 0 233 0;
#X connect 232 0 251 0;
#X connect 233 0 318 0;
#X connect 234 0 236 0;
#X connect 235 0 252 0;
#X connect 236 0 317 0;
#X connect 237 0 239 0;
#X connect 238 0 253 0;
#X connect 239 0 316 0;
#X connect 240 0 242 0;
#X connect 241 0 254 0;
#X connect 242 0 315 0;
#X connect 243 0 245 0;
#X connect 244 0 255 0;
#X connect 245 0 314 0;
#X connect 246 0 248 0;
#X connect 247 0 256 0;
#X connect 248 0 313 0;
#X connect 249 0 257 0;
#X connect 250 0 258 0;
#X connect 251 0 259 0;
#X connect 252 0 260 0;
#X connect 253 0 261 0;
#X connect 254 0 262 0;
#X connect 255 0 263 0;
#X connect 256 0 264 0;
#X connect 257 0 265 0;
#X connect 258 0 266 0;
#X connect 259 0 267 0;
#X connect 260 0 268 0;
#X connect 261 0 269 0;
#X connect 262 0 270 0;
#X connect 263 0 271 0;
#X connect 264 0 272 0;
#X connect 265 0 225 0;
#X connect 266 0 228 0;
#X connect 267 0 231 0;
#X connect 268 0 234 0;
#X connect 269 0 237 0;
#X connect 270 0 240 0;
#X connect 271 0 243 0;
#X connect 272 0 246 0;
#X connect 273 0 321 0;
#X connect 274 0 322 0;
#X connect 275 0 323 0;
#X connect 276 0 324 0;
#X connect 277 0 325 0;
#X connect 278 0 326 0;
#X connect 279 0 327 0;
#X connect 280 0 328 0;
#X connect 281 0 336 0;
#X connect 282 0 335 0;
#X connect 283 0 334 0;
#X connect 284 0 333 0;
#X connect 285 0 332 0;
#X connect 286 0 331 0;
#X connect 287 0 330 0;
#X connect 288 0 329 0;
#X connect 289 0 126 0;
#X connect 290 0 127 0;
#X connect 291 0 128 0;
#X connect 292 0 129 0;
#X connect 293 0 130 0;
#X connect 294 0 131 0;
#X connect 295 0 132 0;
#X connect 296 0 133 0;
#X connect 297 0 141 0;
#X connect 298 0 140 0;
#X connect 299 0 139 0;
#X connect 300 0 138 0;
#X connect 301 0 137 0;
#X connect 302 0 136 0;
#X connect 303 0 135 0;
#X connect 304 0 134 0;
#X connect 305 0 273 0;
#X connect 306 0 274 0;
#X connect 307 0 275 0;
#X connect 308 0 276 0;
#X connect 309 0 277 0;
#X connect 310 0 278 0;
#X connect 311 0 279 0;
#X connect 312 0 280 0;
#X connect 313 0 288 0;
#X connect 314 0 287 0;
#X connect 315 0 286 0;
#X connect 316 0 285 0;
#X connect 317 0 284 0;
#X connect 318 0 283 0;
#X connect 319 0 282 0;
#X connect 320 0 281 0;
#X connect 338 0 337 0;
#X connect 339 0 338 0;
#X connect 340 0 341 0;
#X connect 341 0 342 0;
#X connect 342 0 337 0;
#X connect 342 0 442 0;
#X connect 343 0 340 0;
#X connect 345 0 113 0;
#X connect 346 0 145 0;
#X connect 347 0 148 0;
#X connect 348 0 151 0;
#X connect 349 0 154 0;
#X connect 350 0 157 0;
#X connect 351 0 160 0;
#X connect 352 0 163 0;
#X connect 361 0 171 1;
#X connect 362 0 341 1;
#X connect 363 0 172 1;
#X connect 364 0 342 1;
#X connect 367 0 176 1;
#X connect 368 0 175 1;
#X connect 369 0 339 1;
#X connect 370 0 338 1;
#X connect 371 0 340 1;
#X connect 372 0 371 0;
#X connect 373 0 547 0;
#X connect 376 0 372 0;
#X connect 377 0 116 0;
#X connect 378 0 402 0;
#X connect 379 0 378 1;
#X connect 380 0 379 0;
#X connect 381 0 402 0;
#X connect 382 0 381 1;
#X connect 383 0 382 0;
#X connect 384 0 402 0;
#X connect 385 0 384 1;
#X connect 386 0 385 0;
#X connect 387 0 402 0;
#X connect 388 0 387 1;
#X connect 389 0 388 0;
#X connect 390 0 402 0;
#X connect 391 0 390 1;
#X connect 392 0 391 0;
#X connect 393 0 402 0;
#X connect 394 0 393 1;
#X connect 395 0 394 0;
#X connect 396 0 402 0;
#X connect 397 0 396 1;
#X connect 398 0 397 0;
#X connect 399 0 402 0;
#X connect 400 0 399 1;
#X connect 401 0 400 0;
#X connect 402 0 422 0;
#X connect 403 0 380 0;
#X connect 404 0 383 0;
#X connect 405 0 386 0;
#X connect 406 0 389 0;
#X connect 407 0 392 0;
#X connect 408 0 395 0;
#X connect 409 0 398 0;
#X connect 410 0 401 0;
#X connect 411 0 378 0;
#X connect 412 0 381 0;
#X connect 413 0 384 0;
#X connect 414 0 387 0;
#X connect 415 0 390 0;
#X connect 416 0 393 0;
#X connect 417 0 396 0;
#X connect 418 0 399 0;
#X connect 419 0 433 0;
#X connect 420 0 419 1;
#X connect 421 0 420 0;
#X connect 422 0 434 0;
#X connect 423 0 422 1;
#X connect 424 0 423 0;
#X connect 426 0 431 0;
#X connect 427 0 426 1;
#X connect 428 0 427 0;
#X connect 429 0 6 0;
#X connect 432 0 6 1;
#X connect 435 0 451 0;
#X connect 436 0 459 0;
#X connect 437 0 456 0;
#X connect 438 0 453 0;
#X connect 439 0 440 0;
#X connect 440 0 547 0;
#X connect 441 0 337 0;
#X connect 442 0 0 0;
#X connect 443 0 7 0;
#X connect 443 1 374 0;
#X connect 444 0 426 0;
#X connect 451 0 452 0;
#X connect 452 0 421 0;
#X connect 453 0 454 0;
#X connect 454 0 455 0;
#X connect 455 0 428 0;
#X connect 456 0 457 0;
#X connect 457 0 458 0;
#X connect 458 0 11 0;
#X connect 459 0 460 0;
#X connect 460 0 424 0;
#X connect 471 0 472 0;
#X connect 471 0 473 0;
#X connect 472 0 518 0;
#X connect 476 0 519 0;
#X connect 477 0 476 0;
#X connect 477 0 478 0;
#X connect 480 0 520 0;
#X connect 481 0 521 0;
#X connect 482 0 480 0;
#X connect 482 0 483 0;
#X connect 485 0 481 0;
#X connect 485 0 486 0;
#X connect 488 0 522 0;
#X connect 489 0 523 0;
#X connect 490 0 524 0;
#X connect 491 0 525 0;
#X connect 492 0 526 0;
#X connect 493 0 527 0;
#X connect 494 0 528 0;
#X connect 495 0 488 0;
#X connect 495 0 496 0;
#X connect 498 0 489 0;
#X connect 498 0 499 0;
#X connect 501 0 490 0;
#X connect 501 0 502 0;
#X connect 504 0 491 0;
#X connect 504 0 505 0;
#X connect 507 0 492 0;
#X connect 507 0 509 0;
#X connect 508 0 493 0;
#X connect 508 0 511 0;
#X connect 514 0 529 0;
#X connect 515 0 531 0;
#X connect 516 0 533 0;
#X connect 517 0 535 0;
#X connect 537 0 494 0;
#X connect 537 0 513 0;
#X connect 538 0 514 0;
#X connect 538 0 530 0;
#X connect 539 0 515 0;
#X connect 539 0 532 0;
#X connect 540 0 516 0;
#X connect 540 0 534 0;
#X connect 541 0 517 0;
#X connect 541 0 536 0;
#X connect 547 0 176 0;
#X connect 548 0 547 1;
#X connect 549 0 548 0;
#X connect 550 0 549 0;
#X connect 551 0 552 0;
#X connect 552 0 339 0;
#X connect 553 0 552 1;
#X connect 554 0 553 0;
#X connect 555 0 554 0;
#X connect 556 0 552 0;
#X connect 557 0 551 0;
#X coords 0 -1 1 1 800 240 1 100 100;
