#N canvas 17 50 876 628 12;
#X obj 194 234 *~;
#X obj 209 211 vline~;
#X obj 17 186 *~;
#X msg 39 118 0;
#X obj 32 33 loadbang;
#X msg 32 74 0.9;
#X obj 32 161 vline~;
#X msg 209 189 \$1 50;
#X msg 31 138 \$1 50 50;
#X obj 18 8 inlet~;
#X obj 17 527 outlet~;
#X obj 465 28 inlet;
#X msg 409 172 1;
#X msg 513 171 0;
#X obj 409 203 s \$0-freezeon;
#X obj 553 215 s \$0-freezeoff;
#X obj 32 53 r \$0-freezeoff;
#X obj 39 98 r \$0-freezeon;
#X obj 18 321 delread~ \$0-freeze 100;
#X obj 209 146 r \$0-freezeon;
#X obj 221 167 r \$0-freezeoff;
#X obj 17 210 delwrite~ \$0-freeze 400;
#X obj 18 269 \$1;
#X floatatom 18 295 5 0 0 0 - - -;
#X obj 18 244 loadbang;
#X obj 17 457 *~;
#X obj 32 434 vline~;
#X obj 350 38 loadbang;
#X floatatom 495 252 5 0 0 0 - - -;
#X obj 447 92 del 20;
#X obj 558 29 bng 15 250 50 0 empty empty empty 17 7 0 10 -262144 -1
-1;
#X obj 32 350 r \$0-inlet;
#X obj 328 88 s \$0-inlet;
#X msg 32 409 0 400;
#X msg 81 410 1 400;
#X obj 465 54 del 400;
#X obj 81 385 del 430;
#X obj 17 483 *~ 0.2;
#X connect 0 0 21 0;
#X connect 1 0 0 1;
#X connect 2 0 21 0;
#X connect 3 0 8 0;
#X connect 4 0 5 0;
#X connect 5 0 8 0;
#X connect 6 0 2 1;
#X connect 7 0 1 0;
#X connect 8 0 6 0;
#X connect 9 0 2 0;
#X connect 11 0 32 0;
#X connect 11 0 35 0;
#X connect 12 0 14 0;
#X connect 12 0 28 0;
#X connect 13 0 15 0;
#X connect 13 0 28 0;
#X connect 16 0 5 0;
#X connect 17 0 3 0;
#X connect 18 0 0 0;
#X connect 18 0 25 0;
#X connect 19 0 7 0;
#X connect 20 0 7 0;
#X connect 22 0 23 0;
#X connect 23 0 18 0;
#X connect 24 0 22 0;
#X connect 25 0 37 0;
#X connect 26 0 25 1;
#X connect 27 0 35 0;
#X connect 29 0 12 0;
#X connect 30 0 35 0;
#X connect 31 0 33 0;
#X connect 31 0 36 0;
#X connect 33 0 26 0;
#X connect 34 0 26 0;
#X connect 35 0 13 0;
#X connect 35 0 29 0;
#X connect 36 0 34 0;
#X connect 37 0 10 0;
