#N canvas 542 51 1713 920 12;
#X obj 957 58 adc~ 1;
#X obj 1055 57 adc~ 2;
#X obj 957 84 s~ \$0-inL;
#X obj 1055 83 s~ \$0-inR;
#X obj 126 200 hsl 128 15 80 4000 0 0 \$0-b1-rate empty B1_Rate -2
-8 0 10 -262144 -1 -1 0 1;
#X obj 127 232 hsl 128 15 80 4000 0 0 \$0-b2-rate empty B2_Rate -2
-8 0 10 -262144 -1 -1 0 1;
#X obj 128 265 hsl 128 15 80 4000 0 0 \$0-b3-rate empty B3_Rate -2
-8 0 10 -262144 -1 -1 0 1;
#X obj 129 296 hsl 128 15 80 4000 0 0 \$0-b4-rate empty B4_Rate -2
-8 0 10 -262144 -1 -1 0 1;
#X obj 1244 100 dac~;
#X obj 58 530 lop~ 20000;
#X obj 57 583 hip~ 20;
#X obj 125 503 r \$0-b1-lop;
#X obj 103 558 r \$0-b1-hip;
#N canvas 823 353 1236 703 bank1L 0;
#X obj 30 285 freeze 40;
#X obj 105 285 freeze 45;
#X obj 182 285 freeze 50;
#X obj 255 285 freeze 55;
#X obj 327 285 freeze 60;
#X obj 399 285 freeze 65;
#X obj 29 16 inlet~;
#X obj 438 17 inlet;
#X obj 30 354 outlet~;
#X obj 371 98 f;
#X obj 405 98 + 1;
#X floatatom 371 124 5 0 0 0 - - -;
#X floatatom 371 175 5 0 0 0 - - -;
#X obj 371 70 metro 200;
#X obj 371 149 % 6;
#X obj 371 200 sel 1 2 3 4 5;
#X obj 459 260 t b;
#X obj 371 17 loadbang;
#X msg 371 43 bang;
#X connect 0 0 8 0;
#X connect 1 0 8 0;
#X connect 2 0 8 0;
#X connect 3 0 8 0;
#X connect 4 0 8 0;
#X connect 5 0 8 0;
#X connect 6 0 0 0;
#X connect 6 0 1 0;
#X connect 6 0 2 0;
#X connect 6 0 3 0;
#X connect 6 0 4 0;
#X connect 6 0 5 0;
#X connect 7 0 13 1;
#X connect 9 0 10 0;
#X connect 9 0 11 0;
#X connect 10 0 9 1;
#X connect 11 0 14 0;
#X connect 12 0 15 0;
#X connect 13 0 9 0;
#X connect 14 0 12 0;
#X connect 15 0 0 1;
#X connect 15 1 1 1;
#X connect 15 2 2 1;
#X connect 15 3 3 1;
#X connect 15 4 4 1;
#X connect 15 5 16 0;
#X connect 16 0 5 1;
#X connect 17 0 18 0;
#X connect 18 0 13 0;
#X restore 58 472 pd bank1L;
#X obj 58 447 r~ \$0-inL;
#X obj 131 447 r \$0-b1-rate;
#N canvas 823 353 1236 703 bank1R 0;
#X obj 30 285 freeze 40;
#X obj 105 285 freeze 45;
#X obj 182 285 freeze 50;
#X obj 255 285 freeze 55;
#X obj 327 285 freeze 60;
#X obj 399 285 freeze 65;
#X obj 29 16 inlet~;
#X obj 438 17 inlet;
#X obj 30 354 outlet~;
#X obj 371 98 f;
#X obj 405 98 + 1;
#X floatatom 371 124 5 0 0 0 - - -;
#X floatatom 371 175 5 0 0 0 - - -;
#X obj 371 70 metro 200;
#X obj 371 149 % 6;
#X obj 371 200 sel 1 2 3 4 5;
#X obj 459 260 t b;
#X obj 371 17 loadbang;
#X msg 371 43 bang;
#X connect 0 0 8 0;
#X connect 1 0 8 0;
#X connect 2 0 8 0;
#X connect 3 0 8 0;
#X connect 4 0 8 0;
#X connect 5 0 8 0;
#X connect 6 0 0 0;
#X connect 6 0 1 0;
#X connect 6 0 2 0;
#X connect 6 0 3 0;
#X connect 6 0 4 0;
#X connect 6 0 5 0;
#X connect 7 0 13 1;
#X connect 9 0 10 0;
#X connect 9 0 11 0;
#X connect 10 0 9 1;
#X connect 11 0 14 0;
#X connect 12 0 15 0;
#X connect 13 0 9 0;
#X connect 14 0 12 0;
#X connect 15 0 0 1;
#X connect 15 1 1 1;
#X connect 15 2 2 1;
#X connect 15 3 3 1;
#X connect 15 4 4 1;
#X connect 15 5 16 0;
#X connect 16 0 5 1;
#X connect 17 0 18 0;
#X connect 18 0 13 0;
#X restore 243 473 pd bank1R;
#X obj 243 448 r~ \$0-inR;
#X obj 317 448 r \$0-b1-rate;
#X obj 242 528 lop~ 20000;
#X obj 241 581 hip~ 20;
#X obj 309 501 r \$0-b1-lop;
#X obj 287 556 r \$0-b1-hip;
#X obj 259 611 r \$0-b1-gain;
#X msg 259 637 \$1 20;
#X obj 241 690 *~;
#X obj 74 610 r \$0-b1-gain;
#X msg 74 636 \$1 20;
#X obj 56 689 *~;
#X obj 56 715 throw~ \$0-dacL;
#X obj 241 717 throw~ \$0-dacR;
#X obj 494 534 lop~ 20000;
#X obj 493 587 hip~ 20;
#X obj 494 451 r~ \$0-inL;
#X obj 679 452 r~ \$0-inR;
#X obj 678 532 lop~ 20000;
#X obj 677 585 hip~ 20;
#X msg 695 641 \$1 20;
#X obj 677 694 *~;
#X msg 510 640 \$1 20;
#X obj 492 693 *~;
#X obj 492 719 throw~ \$0-dacL;
#X obj 677 721 throw~ \$0-dacR;
#X obj 879 537 lop~ 20000;
#X obj 878 590 hip~ 20;
#X obj 879 454 r~ \$0-inL;
#X obj 1064 455 r~ \$0-inR;
#X obj 1063 535 lop~ 20000;
#X obj 1062 588 hip~ 20;
#X msg 1080 644 \$1 20;
#X obj 1062 697 *~;
#X msg 895 643 \$1 20;
#X obj 877 696 *~;
#X obj 877 722 throw~ \$0-dacL;
#X obj 1062 724 throw~ \$0-dacR;
#X obj 1315 541 lop~ 20000;
#X obj 1314 594 hip~ 20;
#X obj 1315 458 r~ \$0-inL;
#X obj 1500 459 r~ \$0-inR;
#X obj 1499 539 lop~ 20000;
#X obj 1498 592 hip~ 20;
#X msg 1516 648 \$1 20;
#X obj 1498 701 *~;
#X msg 1331 647 \$1 20;
#X obj 1313 700 *~;
#X obj 1313 726 throw~ \$0-dacL;
#X obj 1498 728 throw~ \$0-dacR;
#X obj 567 451 r \$0-b2-rate;
#X obj 753 452 r \$0-b2-rate;
#N canvas 823 353 1236 703 bank2L 0;
#X obj 30 285 freeze 40;
#X obj 105 285 freeze 45;
#X obj 182 285 freeze 50;
#X obj 255 285 freeze 55;
#X obj 327 285 freeze 60;
#X obj 399 285 freeze 65;
#X obj 29 16 inlet~;
#X obj 438 17 inlet;
#X obj 30 354 outlet~;
#X obj 371 98 f;
#X obj 405 98 + 1;
#X floatatom 371 124 5 0 0 0 - - -;
#X floatatom 371 175 5 0 0 0 - - -;
#X obj 371 70 metro 200;
#X obj 371 149 % 6;
#X obj 371 200 sel 1 2 3 4 5;
#X obj 459 260 t b;
#X obj 371 17 loadbang;
#X msg 371 43 bang;
#X connect 0 0 8 0;
#X connect 1 0 8 0;
#X connect 2 0 8 0;
#X connect 3 0 8 0;
#X connect 4 0 8 0;
#X connect 5 0 8 0;
#X connect 6 0 0 0;
#X connect 6 0 1 0;
#X connect 6 0 2 0;
#X connect 6 0 3 0;
#X connect 6 0 4 0;
#X connect 6 0 5 0;
#X connect 7 0 13 1;
#X connect 9 0 10 0;
#X connect 9 0 11 0;
#X connect 10 0 9 1;
#X connect 11 0 14 0;
#X connect 12 0 15 0;
#X connect 13 0 9 0;
#X connect 14 0 12 0;
#X connect 15 0 0 1;
#X connect 15 1 1 1;
#X connect 15 2 2 1;
#X connect 15 3 3 1;
#X connect 15 4 4 1;
#X connect 15 5 16 0;
#X connect 16 0 5 1;
#X connect 17 0 18 0;
#X connect 18 0 13 0;
#X restore 494 476 pd bank2L;
#N canvas 823 353 1236 703 bank2R 0;
#X obj 30 285 freeze 40;
#X obj 105 285 freeze 45;
#X obj 182 285 freeze 50;
#X obj 255 285 freeze 55;
#X obj 327 285 freeze 60;
#X obj 399 285 freeze 65;
#X obj 29 16 inlet~;
#X obj 438 17 inlet;
#X obj 30 354 outlet~;
#X obj 371 98 f;
#X obj 405 98 + 1;
#X floatatom 371 124 5 0 0 0 - - -;
#X floatatom 371 175 5 0 0 0 - - -;
#X obj 371 70 metro 200;
#X obj 371 149 % 6;
#X obj 371 200 sel 1 2 3 4 5;
#X obj 459 260 t b;
#X obj 371 17 loadbang;
#X msg 371 43 bang;
#X connect 0 0 8 0;
#X connect 1 0 8 0;
#X connect 2 0 8 0;
#X connect 3 0 8 0;
#X connect 4 0 8 0;
#X connect 5 0 8 0;
#X connect 6 0 0 0;
#X connect 6 0 1 0;
#X connect 6 0 2 0;
#X connect 6 0 3 0;
#X connect 6 0 4 0;
#X connect 6 0 5 0;
#X connect 7 0 13 1;
#X connect 9 0 10 0;
#X connect 9 0 11 0;
#X connect 10 0 9 1;
#X connect 11 0 14 0;
#X connect 12 0 15 0;
#X connect 13 0 9 0;
#X connect 14 0 12 0;
#X connect 15 0 0 1;
#X connect 15 1 1 1;
#X connect 15 2 2 1;
#X connect 15 3 3 1;
#X connect 15 4 4 1;
#X connect 15 5 16 0;
#X connect 16 0 5 1;
#X connect 17 0 18 0;
#X connect 18 0 13 0;
#X restore 679 477 pd bank2R;
#X obj 561 507 r \$0-b2-lop;
#X obj 745 505 r \$0-b2-lop;
#X obj 539 562 r \$0-b2-hip;
#X obj 723 560 r \$0-b2-hip;
#X obj 510 614 r \$0-b2-gain;
#X obj 695 615 r \$0-b2-gain;
#X obj 952 454 r \$0-b3-rate;
#N canvas 823 353 1236 703 bank3L 0;
#X obj 30 285 freeze 40;
#X obj 105 285 freeze 45;
#X obj 182 285 freeze 50;
#X obj 255 285 freeze 55;
#X obj 327 285 freeze 60;
#X obj 399 285 freeze 65;
#X obj 29 16 inlet~;
#X obj 438 17 inlet;
#X obj 30 354 outlet~;
#X obj 371 98 f;
#X obj 405 98 + 1;
#X floatatom 371 124 5 0 0 0 - - -;
#X floatatom 371 175 5 0 0 0 - - -;
#X obj 371 70 metro 200;
#X obj 371 149 % 6;
#X obj 371 200 sel 1 2 3 4 5;
#X obj 459 260 t b;
#X obj 371 17 loadbang;
#X msg 371 43 bang;
#X connect 0 0 8 0;
#X connect 1 0 8 0;
#X connect 2 0 8 0;
#X connect 3 0 8 0;
#X connect 4 0 8 0;
#X connect 5 0 8 0;
#X connect 6 0 0 0;
#X connect 6 0 1 0;
#X connect 6 0 2 0;
#X connect 6 0 3 0;
#X connect 6 0 4 0;
#X connect 6 0 5 0;
#X connect 7 0 13 1;
#X connect 9 0 10 0;
#X connect 9 0 11 0;
#X connect 10 0 9 1;
#X connect 11 0 14 0;
#X connect 12 0 15 0;
#X connect 13 0 9 0;
#X connect 14 0 12 0;
#X connect 15 0 0 1;
#X connect 15 1 1 1;
#X connect 15 2 2 1;
#X connect 15 3 3 1;
#X connect 15 4 4 1;
#X connect 15 5 16 0;
#X connect 16 0 5 1;
#X connect 17 0 18 0;
#X connect 18 0 13 0;
#X restore 879 479 pd bank3L;
#X obj 1138 455 r \$0-b3-rate;
#N canvas 823 353 1236 703 bank3R 0;
#X obj 30 285 freeze 40;
#X obj 105 285 freeze 45;
#X obj 182 285 freeze 50;
#X obj 255 285 freeze 55;
#X obj 327 285 freeze 60;
#X obj 399 285 freeze 65;
#X obj 29 16 inlet~;
#X obj 438 17 inlet;
#X obj 30 354 outlet~;
#X obj 371 98 f;
#X obj 405 98 + 1;
#X floatatom 371 124 5 0 0 0 - - -;
#X floatatom 371 175 5 0 0 0 - - -;
#X obj 371 70 metro 200;
#X obj 371 149 % 6;
#X obj 371 200 sel 1 2 3 4 5;
#X obj 459 260 t b;
#X obj 371 17 loadbang;
#X msg 371 43 bang;
#X connect 0 0 8 0;
#X connect 1 0 8 0;
#X connect 2 0 8 0;
#X connect 3 0 8 0;
#X connect 4 0 8 0;
#X connect 5 0 8 0;
#X connect 6 0 0 0;
#X connect 6 0 1 0;
#X connect 6 0 2 0;
#X connect 6 0 3 0;
#X connect 6 0 4 0;
#X connect 6 0 5 0;
#X connect 7 0 13 1;
#X connect 9 0 10 0;
#X connect 9 0 11 0;
#X connect 10 0 9 1;
#X connect 11 0 14 0;
#X connect 12 0 15 0;
#X connect 13 0 9 0;
#X connect 14 0 12 0;
#X connect 15 0 0 1;
#X connect 15 1 1 1;
#X connect 15 2 2 1;
#X connect 15 3 3 1;
#X connect 15 4 4 1;
#X connect 15 5 16 0;
#X connect 16 0 5 1;
#X connect 17 0 18 0;
#X connect 18 0 13 0;
#X restore 1064 480 pd bank3R;
#X obj 946 510 r \$0-b3-lop;
#X obj 1130 508 r \$0-b3-lop;
#X obj 924 565 r \$0-b3-hip;
#X obj 1108 563 r \$0-b3-hip;
#X obj 895 617 r \$0-b3-gain;
#X obj 1080 618 r \$0-b3-gain;
#X obj 1388 458 r \$0-b4-rate;
#N canvas 823 353 1236 703 bank4L 0;
#X obj 30 285 freeze 40;
#X obj 105 285 freeze 45;
#X obj 182 285 freeze 50;
#X obj 255 285 freeze 55;
#X obj 327 285 freeze 60;
#X obj 399 285 freeze 65;
#X obj 29 16 inlet~;
#X obj 438 17 inlet;
#X obj 30 354 outlet~;
#X obj 371 98 f;
#X obj 405 98 + 1;
#X floatatom 371 124 5 0 0 0 - - -;
#X floatatom 371 175 5 0 0 0 - - -;
#X obj 371 70 metro 200;
#X obj 371 149 % 6;
#X obj 371 200 sel 1 2 3 4 5;
#X obj 459 260 t b;
#X obj 371 17 loadbang;
#X msg 371 43 bang;
#X connect 0 0 8 0;
#X connect 1 0 8 0;
#X connect 2 0 8 0;
#X connect 3 0 8 0;
#X connect 4 0 8 0;
#X connect 5 0 8 0;
#X connect 6 0 0 0;
#X connect 6 0 1 0;
#X connect 6 0 2 0;
#X connect 6 0 3 0;
#X connect 6 0 4 0;
#X connect 6 0 5 0;
#X connect 7 0 13 1;
#X connect 9 0 10 0;
#X connect 9 0 11 0;
#X connect 10 0 9 1;
#X connect 11 0 14 0;
#X connect 12 0 15 0;
#X connect 13 0 9 0;
#X connect 14 0 12 0;
#X connect 15 0 0 1;
#X connect 15 1 1 1;
#X connect 15 2 2 1;
#X connect 15 3 3 1;
#X connect 15 4 4 1;
#X connect 15 5 16 0;
#X connect 16 0 5 1;
#X connect 17 0 18 0;
#X connect 18 0 13 0;
#X restore 1315 483 pd bank4L;
#X obj 1382 514 r \$0-b4-lop;
#X obj 1360 569 r \$0-b4-hip;
#X obj 1331 621 r \$0-b4-gain;
#X obj 1574 459 r \$0-b4-rate;
#N canvas 823 353 1236 703 bank4R 0;
#X obj 30 285 freeze 40;
#X obj 105 285 freeze 45;
#X obj 182 285 freeze 50;
#X obj 255 285 freeze 55;
#X obj 327 285 freeze 60;
#X obj 399 285 freeze 65;
#X obj 29 16 inlet~;
#X obj 438 17 inlet;
#X obj 30 354 outlet~;
#X obj 371 98 f;
#X obj 405 98 + 1;
#X floatatom 371 124 5 0 0 0 - - -;
#X floatatom 371 175 5 0 0 0 - - -;
#X obj 371 70 metro 200;
#X obj 371 149 % 6;
#X obj 371 200 sel 1 2 3 4 5;
#X obj 459 260 t b;
#X obj 371 17 loadbang;
#X msg 371 43 bang;
#X connect 0 0 8 0;
#X connect 1 0 8 0;
#X connect 2 0 8 0;
#X connect 3 0 8 0;
#X connect 4 0 8 0;
#X connect 5 0 8 0;
#X connect 6 0 0 0;
#X connect 6 0 1 0;
#X connect 6 0 2 0;
#X connect 6 0 3 0;
#X connect 6 0 4 0;
#X connect 6 0 5 0;
#X connect 7 0 13 1;
#X connect 9 0 10 0;
#X connect 9 0 11 0;
#X connect 10 0 9 1;
#X connect 11 0 14 0;
#X connect 12 0 15 0;
#X connect 13 0 9 0;
#X connect 14 0 12 0;
#X connect 15 0 0 1;
#X connect 15 1 1 1;
#X connect 15 2 2 1;
#X connect 15 3 3 1;
#X connect 15 4 4 1;
#X connect 15 5 16 0;
#X connect 16 0 5 1;
#X connect 17 0 18 0;
#X connect 18 0 13 0;
#X restore 1500 484 pd bank4R;
#X obj 1566 513 r \$0-b4-lop;
#X obj 1544 567 r \$0-b4-hip;
#X obj 1516 622 r \$0-b4-gain;
#X obj 271 201 hsl 128 15 20 20000 1 0 \$0-b1-lop empty B1_Low_Pass
-2 -8 0 10 -262144 -1 -1 0 1;
#X obj 271 232 hsl 128 15 20 20000 1 0 \$0-b2-lop empty B2_Low_Pass
-2 -8 0 10 -262144 -1 -1 0 1;
#X obj 271 263 hsl 128 15 20 20000 1 0 \$0-b3-lop empty B3_Low_Pass
-2 -8 0 10 -262144 -1 -1 0 1;
#X obj 271 294 hsl 128 15 20 20000 1 0 \$0-b4-lop empty B4_Low_Pass
-2 -8 0 10 -262144 -1 -1 0 1;
#X obj 417 202 hsl 128 15 20 20000 1 0 \$0-b1-hip empty B1_High_Pass
-2 -8 0 10 -262144 -1 -1 0 1;
#X obj 417 233 hsl 128 15 20 20000 1 0 \$0-b2-hip empty B2_High_Pass
-2 -8 0 10 -262144 -1 -1 0 1;
#X obj 416 265 hsl 128 15 20 20000 1 0 \$0-b3-hip empty B3_High_Pass
-2 -8 0 10 -262144 -1 -1 0 1;
#X obj 416 296 hsl 128 15 20 20000 1 0 \$0-b4-hip empty B4_High_Pass
-2 -8 0 10 -262144 -1 -1 0 1;
#X obj 571 203 hsl 128 15 0 1 0 0 \$0-b1-gain empty B1_Gain -2 -8 0
10 -262144 -1 -1 0 1;
#X obj 571 237 hsl 128 15 0 1 0 0 \$0-b2-gain empty B2_Gain -2 -8 0
10 -262144 -1 -1 0 1;
#X obj 569 269 hsl 128 15 0 1 0 0 \$0-b3-gain empty B3_Gain -2 -8 0
10 -262144 -1 -1 0 1;
#X obj 569 303 hsl 128 15 0 1 0 0 \$0-b4-gain empty B4_Gain -2 -8 0
10 -262144 -1 -1 0 1;
#X obj 1229 55 catch~ \$0-dacL;
#X obj 1336 55 catch~ \$0-dacR;
#X obj 74 662 vline~;
#X obj 259 664 vline~;
#X obj 510 666 vline~;
#X obj 695 668 vline~;
#X obj 895 670 vline~;
#X obj 1080 672 vline~;
#X obj 1331 674 vline~;
#X obj 1516 676 vline~;
#X connect 0 0 2 0;
#X connect 1 0 3 0;
#X connect 9 0 10 0;
#X connect 10 0 28 0;
#X connect 11 0 9 1;
#X connect 12 0 10 1;
#X connect 13 0 9 0;
#X connect 14 0 13 0;
#X connect 15 0 13 1;
#X connect 16 0 19 0;
#X connect 17 0 16 0;
#X connect 18 0 16 1;
#X connect 19 0 20 0;
#X connect 20 0 25 0;
#X connect 21 0 19 1;
#X connect 22 0 20 1;
#X connect 23 0 24 0;
#X connect 24 0 112 0;
#X connect 25 0 30 0;
#X connect 26 0 27 0;
#X connect 27 0 111 0;
#X connect 28 0 29 0;
#X connect 31 0 32 0;
#X connect 32 0 40 0;
#X connect 33 0 69 0;
#X connect 34 0 70 0;
#X connect 35 0 36 0;
#X connect 36 0 38 0;
#X connect 37 0 114 0;
#X connect 38 0 42 0;
#X connect 39 0 113 0;
#X connect 40 0 41 0;
#X connect 43 0 44 0;
#X connect 44 0 52 0;
#X connect 45 0 78 0;
#X connect 46 0 80 0;
#X connect 47 0 48 0;
#X connect 48 0 50 0;
#X connect 49 0 116 0;
#X connect 50 0 54 0;
#X connect 51 0 115 0;
#X connect 52 0 53 0;
#X connect 55 0 56 0;
#X connect 56 0 64 0;
#X connect 57 0 88 0;
#X connect 58 0 93 0;
#X connect 59 0 60 0;
#X connect 60 0 62 0;
#X connect 61 0 118 0;
#X connect 62 0 66 0;
#X connect 63 0 117 0;
#X connect 64 0 65 0;
#X connect 67 0 69 1;
#X connect 68 0 70 1;
#X connect 69 0 31 0;
#X connect 70 0 35 0;
#X connect 71 0 31 1;
#X connect 72 0 35 1;
#X connect 73 0 32 1;
#X connect 74 0 36 1;
#X connect 75 0 39 0;
#X connect 76 0 37 0;
#X connect 77 0 78 1;
#X connect 78 0 43 0;
#X connect 79 0 80 1;
#X connect 80 0 47 0;
#X connect 81 0 43 1;
#X connect 82 0 47 1;
#X connect 83 0 44 1;
#X connect 84 0 48 1;
#X connect 85 0 51 0;
#X connect 86 0 49 0;
#X connect 87 0 88 1;
#X connect 88 0 55 0;
#X connect 89 0 55 1;
#X connect 90 0 56 1;
#X connect 91 0 63 0;
#X connect 92 0 93 1;
#X connect 93 0 59 0;
#X connect 94 0 59 1;
#X connect 95 0 60 1;
#X connect 96 0 61 0;
#X connect 109 0 8 0;
#X connect 110 0 8 1;
#X connect 111 0 28 1;
#X connect 112 0 25 1;
#X connect 113 0 40 1;
#X connect 114 0 38 1;
#X connect 115 0 52 1;
#X connect 116 0 50 1;
#X connect 117 0 64 1;
#X connect 118 0 62 1;
#X coords 0 -1 1 1 800 240 1 100 100;
