#N canvas 538 17 1622 902 10;
#X obj 180 549 *~;
#X msg 73 324 1;
#X obj 73 297 sel 1;
#X msg 171 324 0;
#X obj 74 191 *~;
#X msg 101 167 0;
#X obj 89 76 loadbang;
#X obj 306 654 *~;
#X msg 321 634 0;
#X obj 71 559 *~;
#X msg 86 537 0;
#X obj 213 191 *~;
#X msg 228 165 0;
#X obj 228 76 loadbang;
#X obj 86 450 loadbang;
#X msg 86 494 0.9;
#X msg 89 122 0.9;
#X msg 228 122 0.9;
#X obj 306 435 loadbang;
#X text 73 31 Audio Through;
#X text 70 405 Delay;
#X obj 545 556 *~;
#X obj 671 663 *~;
#X msg 686 643 0;
#X msg 686 602 0.5;
#X obj 436 568 *~;
#X msg 451 546 0;
#X obj 451 459 loadbang;
#X msg 451 503 0.9;
#X obj 671 450 loadbang;
#X obj 671 515 pack 0 50;
#X obj 671 536 line;
#X msg 671 471 200;
#X msg 306 456 200;
#X obj 306 503 pack 0 50;
#X obj 306 524 line;
#X text 72 256 Recieve Freeze;
#X msg 279 324 1;
#X obj 279 297 sel 1;
#X msg 378 324 0;
#X msg 321 593 0.9;
#X obj 188 882 *~;
#X obj 203 815 osc~;
#X obj 203 859 clip~ -1 1;
#X obj 203 837 *~ 1.5;
#X obj 1187 1160 +~;
#X obj 454 879 *~;
#X obj 469 812 osc~;
#X obj 469 856 clip~ -1 1;
#X obj 469 834 *~ 1.5;
#X text 43 695 tremolo;
#X obj 44 1111 spigot;
#X obj 77 1018 loadbang;
#X msg 77 1040 0;
#X floatatom 77 1085 5 0 0 0 - - -;
#X obj 246 1115 spigot;
#X obj 279 1022 loadbang;
#X msg 279 1044 0;
#X floatatom 279 1089 5 0 0 0 - - -;
#X text 44 967 link sliders;
#X obj 451 60 loadbang;
#X msg 451 83 200;
#X msg 451 157 5;
#X obj 1076 446 hsl 128 15 20 2000 1 0 \$0-grainlengthLslider-s \$0-grainlengthLslider-r
empty -2 -8 0 10 -84532 -241536 -1 12700 1;
#X obj 1073 509 tgl 15 0 \$0-freezeStoggle-s \$0-freezeStoggle-r empty
19 7 0 10 -84532 -241536 -1 0 1;
#X obj 1076 484 hsl 128 15 20 2000 1 0 \$0-grainlengthRslider-s \$0-grainlengthRslider-r
empty -2 -8 0 10 -84532 -241536 -1 12700 1;
#X obj 1073 531 tgl 15 0 \$0-freezeLtoggle-s \$0-freezeLtoggle-r empty
19 7 0 10 -84532 -241536 -1 1 1;
#X obj 1073 553 tgl 15 0 \$0-freezeRtoggle-s \$0-freezeRtoggle-r empty
19 7 0 10 -84532 -241536 -1 0 1;
#X obj 1327 514 hsl 128 15 0.1 20 1 0 \$0-tremLslider-s \$0-tremLslider-r
empty -2 -8 0 10 -84532 -241536 -1 8100 1;
#X obj 1327 553 hsl 128 15 0.1 20 1 0 \$0-tremRslider-s \$0-tremRslider-r
empty -2 -8 0 10 -84532 -241536 -1 8100 1;
#X obj 1324 480 tgl 15 0 \$0-tremtoggle-s \$0-tremtoggle-r empty 19
7 0 10 -84532 -241536 -1 0 1;
#X obj 1261 466 tgl 15 0 \$0-grainlinktoggle-s \$0-grainlinktoggle-r
empty 19 7 0 10 -84532 -241536 -1 1 1;
#X obj 1512 533 tgl 15 0 \$0-tremlinktoggle-s \$0-tremlinktoggle-r
empty 19 7 0 10 -84532 -241536 -1 0 1;
#X obj 586 1036 spigot;
#X floatatom 619 1015 5 0 0 0 - - -;
#X msg 619 969 0;
#X obj 619 947 loadbang;
#X msg 586 1063 1;
#X obj 586 924 spigot;
#X floatatom 619 903 5 0 0 0 - - -;
#X msg 619 857 0;
#X obj 619 835 loadbang;
#X obj 587 790 loadbang;
#X obj 587 813 metro 20;
#X obj 715 1074 spigot;
#X floatatom 748 1053 5 0 0 0 - - -;
#X msg 735 987 0;
#X obj 735 965 loadbang;
#X obj 715 941 spigot;
#X floatatom 748 920 5 0 0 0 - - -;
#X obj 748 830 loadbang;
#X obj 748 897 - 1;
#X msg 748 852 -1;
#X obj 748 1031 - 1;
#X msg 715 1097 0;
#X text 577 761 Freeze toggle sync;
#X obj 940 803 random 5;
#X obj 940 826 sel 4;
#X obj 1179 509 tgl 15 0 \$0-randomtoggle-s \$0-randomtoggle-r empty
19 7 0 10 -84532 -241536 -1 0 1;
#X obj 940 756 tgl 15 0 empty empty empty 17 7 0 10 -262144 -1 -1 0
1;
#X obj 940 780 metro 600;
#X obj 1122 805 random 5;
#X obj 1122 827 sel 4;
#X obj 1122 783 metro 600;
#X obj 940 849 tgl 15 0 empty empty empty 17 7 0 10 -262144 -1 -1 1
1;
#X obj 1122 850 tgl 15 0 empty empty empty 17 7 0 10 -262144 -1 -1
0 1;
#X obj 1182 553 hsl 70 15 20 1000 0 0 \$0-randomslider-s \$0-randomslider-r
empty -2 -8 0 10 -84532 -241536 -1 500 1;
#X msg 451 229 600;
#X obj 302 815 *~;
#X msg 318 770 \$1 20;
#X obj 318 793 vline~;
#X obj 418 745 * -1;
#X obj 418 768 + 1;
#X msg 418 791 \$1 20;
#X obj 418 814 vline~;
#X obj 403 837 *~;
#X obj 22 816 *~;
#X msg 38 771 \$1 20;
#X obj 38 794 vline~;
#X obj 154 747 * -1;
#X obj 154 770 + 1;
#X msg 154 793 \$1 20;
#X obj 154 816 vline~;
#X obj 104 839 *~;
#X obj 789 144 adc~ 1;
#X obj 1133 137 adc~ 2;
#X obj 973 1471 dac~ 1;
#X obj 1189 1473 dac~ 2;
#X obj 1216 1161 r playhead;
#X obj 1216 1184 route playing;
#X msg 1216 1207 \$1 20;
#X obj 1216 1230 vline~;
#X obj 1188 1255 *~;
#X obj 1001 1185 route playing;
#X msg 1001 1208 \$1 20;
#X obj 1001 1231 vline~;
#X obj 973 1256 *~;
#X obj 2000 277 r gui;
#X obj 2000 299 route mouse;
#X obj 1947 533 s camomile;
#X obj 1947 476 pack f f, f 22;
#X msg 1947 509 param change \$1 \$2;
#X obj 2046 393 t b f, f 8;
#X obj 2000 365 t b f, f 14;
#N canvas 3 116 156 140 one.time.1 0;
#X obj 15 62 spigot 1;
#X obj 15 84 t f b, f 8;
#X obj 78 84 f 0;
#X obj 15 19 inlet;
#X obj 68 19 inlet;
#X obj 15 106 outlet;
#X obj 68 41 f 1;
#X connect 0 0 1 0;
#X connect 1 0 5 0;
#X connect 1 1 2 0;
#X connect 2 0 0 1;
#X connect 3 0 0 0;
#X connect 4 0 6 0;
#X connect 6 0 0 1;
#X restore 1947 393 pd one.time.1;
#N canvas 3 116 156 140 one.time.0 0;
#X obj 89 69 f 0;
#X obj 15 19 inlet;
#X obj 68 19 inlet;
#X obj 15 106 outlet;
#X obj 68 41 f 1;
#X obj 15 62 spigot 0;
#X obj 15 84 t b b, f 8;
#X connect 0 0 5 1;
#X connect 1 0 5 0;
#X connect 2 0 4 0;
#X connect 4 0 5 1;
#X connect 5 0 6 0;
#X connect 6 0 3 0;
#X connect 6 1 0 0;
#X restore 1947 448 pd one.time.0;
#X obj 1947 417 t b f;
#X msg 2046 345 0;
#X obj 1947 252 r camo.param.change;
#X obj 2000 321 sel 1, f 7;
#X msg 2000 343 1;
#X obj 1503 736 param.set 1;
#X obj 1447 663 param.get 1;
#X obj 1447 689 t f f;
#X msg 1447 788 set \$1;
#X obj 1656 689 t f f;
#X msg 1656 788 set \$1;
#X obj 1656 663 param.get 2;
#X obj 1864 692 t f f;
#X msg 1864 791 set \$1;
#X obj 2087 692 t f f;
#X msg 2087 791 set \$1;
#X obj 1864 666 param.get 3;
#X obj 1712 736 param.set 2;
#X obj 1912 742 param.set 3;
#X obj 2087 666 param.get 4;
#X obj 2143 739 param.set 4;
#X obj 1445 883 t f f;
#X msg 1445 982 set \$1;
#X obj 1654 883 t f f;
#X msg 1654 982 set \$1;
#X obj 1862 886 t f f;
#X msg 1862 985 set \$1;
#X obj 1445 857 param.get 5;
#X obj 1501 930 param.set 5;
#X obj 1654 857 param.get 6;
#X obj 1710 930 param.set 6;
#X obj 1862 860 param.get 7;
#X obj 1918 933 param.set 7;
#X obj 2076 883 t f f;
#X msg 2076 982 set \$1;
#X obj 1446 1067 t f f;
#X msg 1446 1166 set \$1;
#X obj 1655 1067 t f f;
#X msg 1655 1166 set \$1;
#X obj 1863 1070 t f f;
#X msg 1863 1169 set \$1;
#X obj 2077 1067 t f f;
#X msg 2077 1166 set \$1;
#X obj 2076 857 param.get 8;
#X obj 2132 930 param.set 8;
#X obj 1446 1041 param.get 9;
#X obj 1502 1114 param.set 9;
#X obj 1655 1041 param.get 10;
#X obj 1711 1114 param.set 10;
#X obj 1863 1044 param.get 11;
#X obj 1919 1117 param.set 11;
#X obj 2077 1041 param.get 12;
#X obj 2133 1114 param.set 12;
#X obj 1493 713 r \$0-grainlengthLslider-s;
#X obj 1447 811 s \$0-grainlengthLslider-r;
#X obj 71 428 r~ \$0-audioin_l;
#X obj 86 473 r \$0-freezeoff_l;
#X obj 86 515 r \$0-freezeon_l;
#X obj 71 581 delwrite~ \$0-dleft 2000;
#X obj 195 504 r \$0-freezeon_l;
#X obj 195 526 r \$0-freezeoff_l;
#X obj 306 481 r \$0-sgrainlength_l;
#X obj 306 548 vd~ \$0-dleft;
#X obj 321 571 r \$0-freezeon_l;
#X obj 321 614 r \$0-freezeoff_l;
#X obj 306 677 s~ \$0-audiodelay_l;
#X obj 435 438 r~ \$0-audioin_r;
#X obj 451 482 r \$0-freezeoff_r;
#X obj 451 524 r \$0-freezeon_r;
#X obj 436 590 delwrite~ \$0-dright 2000;
#X obj 560 511 r \$0-freezeon_r;
#X obj 560 533 r \$0-freezeoff_r;
#X obj 671 493 r \$0-sgrainlength_r;
#X obj 671 557 vd~ \$0-dright;
#X obj 686 580 r \$0-freezeon_r;
#X obj 686 623 r \$0-freezeoff_r;
#X obj 671 688 s~ \$0-audiodelay_r;
#X obj 21 724 r~ \$0-audiodelay_l;
#X obj 74 52 r~ \$0-audioin_l;
#X obj 213 52 r~ \$0-audioin_r;
#X obj 89 98 r \$0-freezeoff_l;
#X obj 228 98 r \$0-freezeoff_r;
#X obj 102 145 r \$0-freezeon_l;
#X obj 228 143 r \$0-freezeon_r;
#X obj 74 214 s~ \$0-audiothrough_l;
#X obj 213 213 s~ \$0-audiothrough_r;
#X obj 451 104 s \$0-rgrainlength_load;
#X obj 452 126 s \$0-rgrainlength_link_r;
#X obj 451 180 s \$0-rtremrate_load;
#X obj 451 203 s \$0-rtremrate_link_r;
#X obj 451 251 s \$0-rrandomspeed;
#X obj 789 205 s~ \$0-audioin_l;
#X obj 1133 203 s~ \$0-audioin_r;
#X obj 73 275 r \$0-sfreeze_l;
#X obj 279 275 r \$0-sfreeze_r;
#X obj 73 353 s \$0-freezeon_l;
#X obj 173 353 s \$0-freezeoff_l;
#X obj 279 353 s \$0-freezeon_r;
#X obj 378 353 s \$0-freezeoff_r;
#X obj 38 748 r \$0-stremonoff;
#X obj 21 904 s~ \$0-audionotrem_l;
#X obj 154 724 r \$0-stremonoff;
#X obj 203 793 r \$0-stremrate_l;
#X obj 189 905 s~ \$0-audiotrem_l;
#X obj 302 722 r~ \$0-audiodelay_r;
#X obj 418 722 r \$0-stremonoff;
#X obj 318 747 r \$0-stremonoff;
#X obj 305 904 s~ \$0-audionotrem_r;
#X obj 469 790 r \$0-stremrate_r;
#X obj 454 902 s~ \$0-audiotrem_r;
#X obj 44 994 r \$0-sgrainlength_l;
#X obj 77 1064 r \$0-sgrainlength_link_toggle;
#X obj 279 1068 r \$0-stremrate_link_toggle;
#X obj 246 998 r \$0-stremrate_l;
#X obj 619 880 r \$0-sfreeze_l;
#X obj 619 992 r \$0-sfreeze_r;
#X obj 748 875 r \$0-sfreeze_l;
#X obj 748 1009 r \$0-sfreeze_r;
#X obj 940 733 r \$0-sfreeze_random;
#X obj 1172 762 r \$0-srandomspeed;
#X obj 987 1093 r~ \$0-audionotrem_l;
#X obj 988 1139 r~ \$0-audiotrem_l;
#X obj 1001 1162 r playhead;
#X obj 1202 1087 r~ \$0-audionotrem_r;
#X obj 1202 1138 r~ \$0-audiotrem_r;
#X obj 1493 762 s \$0-sgrainlength_l;
#X obj 1702 713 r \$0-grainlengthRslider-s;
#X obj 1656 811 s \$0-grainlengthRslider-r;
#X obj 1702 762 s \$0-sgrainlength_r;
#X obj 1902 719 r \$0-grainlinktoggle-s;
#X obj 1865 814 s \$0-grainlinktoggle-r;
#X obj 1902 768 s \$0-sgrainlength_link_toggle;
#X obj 2133 765 s \$0-sfreeze;
#X obj 2133 716 r \$0-freezeStoggle-s;
#X obj 2087 814 s \$0-freezeStoggle-r;
#X obj 1491 907 r \$0-freezeLtoggle-s;
#X obj 1491 956 s \$0-sfreeze_l;
#X obj 1700 907 r \$0-freezeRtoggle-s;
#X obj 1700 956 s \$0-sfreeze_r;
#X obj 1654 1005 s \$0-freezeRtoggle-r;
#X obj 1445 1005 s \$0-freezeLtoggle-r;
#X obj 1908 959 s \$0-sfreeze_random;
#X obj 1908 910 r \$0-randomtoggle-s;
#X obj 1863 1008 s \$0-randomtoggle-r;
#X obj 2122 956 s \$0-srandomspeed;
#X obj 2122 907 r \$0-randomslider-s;
#X obj 2076 1005 s \$0-randomslider-r;
#X obj 1492 1091 r \$0-tremtoggle-s;
#X obj 1446 1189 s \$0-tremtoggle-r;
#X obj 1492 1140 s \$0-stremonoff;
#X obj 1701 1140 s \$0-stremrate_l;
#X obj 1701 1091 r \$0-tremLslider-s;
#X obj 1655 1189 s \$0-tremLslider-r;
#X obj 1909 1094 r \$0-tremRslider-s;
#X obj 1909 1143 s \$0-stremrate_r;
#X obj 1863 1192 s \$0-tremRslider-r;
#X obj 2123 1091 r \$0-tremlinktoggle-s;
#X obj 2077 1189 s \$0-tremlinktoggle-r;
#X obj 2123 1140 s \$0-stremrate_link_toggle;
#X obj 586 1132 s \$0-freezeStoggle-r;
#X obj 597 1173 r \$0-freezeStoggle-s;
#X obj 597 1223 s \$0-freezeLtoggle-r;
#X obj 609 1199 s \$0-freezeRtoggle-r;
#X obj 44 1135 s \$0-grainlengthRslider-r;
#X obj 246 1139 s \$0-tremRslider-r;
#X obj 940 868 s \$0-freezeLtoggle-r;
#X obj 1122 869 s \$0-freezeRtoggle-r;
#X obj 1444 1247 t f f;
#X msg 1444 1346 set \$1;
#X obj 1444 1221 param.get 13;
#X obj 1500 1294 param.set 13;
#X obj 1573 553 hsl 128 15 -1 1 0 0 \$0-wetdryslider-s \$0-wetdryslider-r
empty -2 -8 0 10 -84532 -241536 -1 6900 1;
#X obj 1709 553 nbx 4 15 -1e+037 1e+037 0 0 empty \$0-wetdry empty
0 -8 0 10 -84532 -241536 -228856 0.0866142 256;
#X obj 1204 1278 r \$0-wetdry;
#X obj 1204 1301 + 1;
#X obj 1204 1324 / 2;
#X msg 1204 1347 \$1 20;
#X obj 1204 1370 vline~;
#X obj 1302 1300 r \$0-wetdry;
#X obj 1302 1323 * -1;
#X obj 1302 1346 + 1;
#X obj 1302 1369 / 2;
#X msg 1302 1392 \$1 20;
#X obj 1302 1415 vline~;
#X obj 1189 1392 *~;
#X obj 1288 1440 *~;
#X obj 988 1282 r \$0-wetdry;
#X obj 988 1305 + 1;
#X obj 988 1328 / 2;
#X msg 988 1351 \$1 20;
#X obj 988 1374 vline~;
#X obj 1086 1304 r \$0-wetdry;
#X obj 1086 1327 * -1;
#X obj 1086 1350 + 1;
#X obj 1086 1373 / 2;
#X msg 1086 1396 \$1 20;
#X obj 1086 1419 vline~;
#X obj 973 1396 *~;
#X obj 1072 1444 *~;
#X obj 1073 1282 catch~ \$0-dryL;
#X obj 1288 1276 catch~ \$0-dryR;
#X obj 836 177 throw~ \$0-dryL;
#X obj 1174 168 throw~ \$0-dryR;
#X text 969 907 output;
#X text 939 709 random;
#X obj 991 757 r \$0-srandomspeed;
#X obj 1122 760 tgl 15 0 empty empty empty 17 7 0 10 -262144 -1 -1
0 1;
#X obj 1122 737 r \$0-sfreeze_random;
#X obj 973 1161 +~;
#X obj 972 1116 +~;
#X obj 1187 1113 +~;
#X obj 972 928 r~ \$0-audiothrough_l;
#X obj 1186 925 r~ \$0-audiothrough_r;
#X obj 972 1071 *~;
#X obj 987 957 r \$0-mutethru;
#X obj 987 980 * -1;
#X obj 987 1003 + 1;
#X msg 987 1026 \$1 20;
#X obj 987 1049 vline~;
#X obj 1187 1064 *~;
#X obj 1202 950 r \$0-mutethru;
#X obj 1202 973 * -1;
#X obj 1202 996 + 1;
#X msg 1202 1019 \$1 20;
#X obj 1202 1042 vline~;
#X obj 1655 1247 t f f;
#X msg 1655 1346 set \$1;
#X obj 1701 1271 r \$0-wetdryslider-s;
#X obj 1701 1320 s \$0-wetdry;
#X obj 1655 1369 s \$0-wetdryslider-r;
#X obj 1655 1221 param.get 14;
#X obj 1711 1294 param.set 14;
#X obj 1490 1271 r \$0-mutethrutoggle-s;
#X obj 1490 1320 s \$0-mutethru;
#X obj 1444 1369 s \$0-mutethrutoggle-r;
#X obj 1570 514 tgl 15 0 \$0-mutethrutoggle-s \$0-mutethrutoggle-r
empty 17 7 0 10 -84532 -241536 -1 0 1;
#X obj 1462 553 nbx 4 15 -1e+037 1e+037 0 0 empty \$0-stremrate_r empty
0 -8 0 10 -84532 -241536 -228856 0 256;
#X obj 1463 514 nbx 4 15 -1e+037 1e+037 0 0 empty \$0-stremrate_l empty
0 -8 0 10 -84532 -241536 -228856 0 256;
#X obj 1212 484 nbx 4 15 -1e+037 1e+037 0 0 empty \$0-sgrainlength_r
empty 0 -8 0 10 -84532 -241536 -228856 0 256;
#X obj 1212 446 nbx 4 15 -1e+037 1e+037 0 0 empty \$0-sgrainlength_l
empty 0 -8 0 10 -84532 -241536 -228856 0 256;
#X obj 1260 553 nbx 4 15 -1e+037 1e+037 0 0 empty \$0-srandomspeed
empty 0 -8 0 10 -84532 -241536 -228856 0 256;
#X connect 0 0 204 0;
#X connect 1 0 241 0;
#X connect 2 0 1 0;
#X connect 2 1 3 0;
#X connect 3 0 242 0;
#X connect 4 0 230 0;
#X connect 5 0 4 1;
#X connect 6 0 16 0;
#X connect 7 0 211 0;
#X connect 8 0 7 1;
#X connect 9 0 204 0;
#X connect 10 0 9 1;
#X connect 11 0 231 0;
#X connect 12 0 11 1;
#X connect 13 0 17 0;
#X connect 14 0 15 0;
#X connect 15 0 9 1;
#X connect 16 0 4 1;
#X connect 17 0 11 1;
#X connect 18 0 33 0;
#X connect 21 0 215 0;
#X connect 22 0 222 0;
#X connect 23 0 22 1;
#X connect 24 0 22 1;
#X connect 25 0 215 0;
#X connect 26 0 25 1;
#X connect 27 0 28 0;
#X connect 28 0 25 1;
#X connect 29 0 32 0;
#X connect 30 0 31 0;
#X connect 31 0 219 0;
#X connect 32 0 219 0;
#X connect 33 0 208 0;
#X connect 34 0 35 0;
#X connect 35 0 208 0;
#X connect 37 0 243 0;
#X connect 38 0 37 0;
#X connect 38 1 39 0;
#X connect 39 0 244 0;
#X connect 40 0 7 1;
#X connect 41 0 249 0;
#X connect 42 0 44 0;
#X connect 43 0 41 1;
#X connect 44 0 43 0;
#X connect 45 0 132 0;
#X connect 46 0 255 0;
#X connect 47 0 49 0;
#X connect 48 0 46 1;
#X connect 49 0 48 0;
#X connect 51 0 309 0;
#X connect 52 0 53 0;
#X connect 53 0 54 0;
#X connect 54 0 51 1;
#X connect 55 0 310 0;
#X connect 56 0 57 0;
#X connect 57 0 58 0;
#X connect 58 0 55 1;
#X connect 60 0 61 0;
#X connect 60 0 62 0;
#X connect 60 0 107 0;
#X connect 61 0 232 0;
#X connect 61 0 233 0;
#X connect 62 0 234 0;
#X connect 62 0 235 0;
#X connect 73 0 77 0;
#X connect 74 0 73 1;
#X connect 75 0 74 0;
#X connect 76 0 75 0;
#X connect 77 0 305 0;
#X connect 78 0 73 0;
#X connect 79 0 78 1;
#X connect 80 0 79 0;
#X connect 81 0 80 0;
#X connect 82 0 83 0;
#X connect 83 0 78 0;
#X connect 83 0 88 0;
#X connect 84 0 94 0;
#X connect 85 0 84 1;
#X connect 86 0 85 0;
#X connect 87 0 86 0;
#X connect 88 0 84 0;
#X connect 89 0 88 1;
#X connect 90 0 92 0;
#X connect 91 0 89 0;
#X connect 92 0 89 0;
#X connect 93 0 85 0;
#X connect 94 0 305 0;
#X connect 96 0 97 0;
#X connect 97 0 104 0;
#X connect 99 0 100 0;
#X connect 100 0 96 0;
#X connect 101 0 102 0;
#X connect 102 0 105 0;
#X connect 103 0 101 0;
#X connect 104 0 311 0;
#X connect 105 0 312 0;
#X connect 107 0 236 0;
#X connect 108 0 46 0;
#X connect 109 0 110 0;
#X connect 110 0 108 1;
#X connect 111 0 112 0;
#X connect 112 0 113 0;
#X connect 113 0 114 0;
#X connect 114 0 115 1;
#X connect 115 0 253 0;
#X connect 116 0 41 0;
#X connect 117 0 118 0;
#X connect 118 0 116 1;
#X connect 119 0 120 0;
#X connect 120 0 121 0;
#X connect 121 0 122 0;
#X connect 122 0 123 1;
#X connect 123 0 246 0;
#X connect 124 0 237 0;
#X connect 124 0 347 0;
#X connect 125 0 238 0;
#X connect 125 0 348 0;
#X connect 128 0 129 0;
#X connect 129 0 130 0;
#X connect 130 0 131 0;
#X connect 131 0 132 1;
#X connect 132 0 330 0;
#X connect 133 0 134 0;
#X connect 134 0 135 0;
#X connect 135 0 136 1;
#X connect 136 0 343 0;
#X connect 137 0 138 0;
#X connect 138 0 149 0;
#X connect 140 0 141 0;
#X connect 141 0 139 0;
#X connect 142 0 145 0;
#X connect 142 1 140 1;
#X connect 143 0 144 1;
#X connect 143 1 140 1;
#X connect 144 0 146 0;
#X connect 145 0 140 0;
#X connect 146 0 145 1;
#X connect 146 1 140 0;
#X connect 147 0 142 0;
#X connect 148 0 144 0;
#X connect 149 0 150 0;
#X connect 149 1 147 0;
#X connect 150 0 143 0;
#X connect 152 0 153 0;
#X connect 153 0 154 0;
#X connect 153 1 271 0;
#X connect 154 0 200 0;
#X connect 155 0 156 0;
#X connect 155 1 274 0;
#X connect 156 0 273 0;
#X connect 157 0 155 0;
#X connect 158 0 159 0;
#X connect 158 1 277 0;
#X connect 159 0 276 0;
#X connect 160 0 161 0;
#X connect 160 1 278 0;
#X connect 161 0 280 0;
#X connect 162 0 158 0;
#X connect 165 0 160 0;
#X connect 167 0 168 0;
#X connect 167 1 282 0;
#X connect 168 0 286 0;
#X connect 169 0 170 0;
#X connect 169 1 284 0;
#X connect 170 0 285 0;
#X connect 171 0 172 0;
#X connect 171 1 287 0;
#X connect 172 0 289 0;
#X connect 173 0 167 0;
#X connect 175 0 169 0;
#X connect 177 0 171 0;
#X connect 179 0 180 0;
#X connect 179 1 290 0;
#X connect 180 0 292 0;
#X connect 181 0 182 0;
#X connect 181 1 295 0;
#X connect 182 0 294 0;
#X connect 183 0 184 0;
#X connect 183 1 296 0;
#X connect 184 0 298 0;
#X connect 185 0 186 0;
#X connect 185 1 300 0;
#X connect 186 0 301 0;
#X connect 187 0 188 0;
#X connect 187 1 304 0;
#X connect 188 0 303 0;
#X connect 189 0 179 0;
#X connect 191 0 181 0;
#X connect 193 0 183 0;
#X connect 195 0 185 0;
#X connect 197 0 187 0;
#X connect 199 0 151 0;
#X connect 199 0 271 0;
#X connect 201 0 9 0;
#X connect 202 0 15 0;
#X connect 203 0 10 0;
#X connect 205 0 0 1;
#X connect 206 0 0 1;
#X connect 207 0 34 0;
#X connect 208 0 0 0;
#X connect 208 0 7 0;
#X connect 209 0 40 0;
#X connect 210 0 8 0;
#X connect 212 0 25 0;
#X connect 213 0 28 0;
#X connect 214 0 26 0;
#X connect 216 0 21 1;
#X connect 217 0 21 1;
#X connect 218 0 30 0;
#X connect 219 0 21 0;
#X connect 219 0 22 0;
#X connect 220 0 24 0;
#X connect 221 0 23 0;
#X connect 223 0 116 0;
#X connect 223 0 123 0;
#X connect 224 0 4 0;
#X connect 225 0 11 0;
#X connect 226 0 16 0;
#X connect 227 0 17 0;
#X connect 228 0 5 0;
#X connect 229 0 12 0;
#X connect 239 0 2 0;
#X connect 240 0 38 0;
#X connect 245 0 117 0;
#X connect 247 0 119 0;
#X connect 248 0 42 0;
#X connect 250 0 108 0;
#X connect 250 0 115 0;
#X connect 251 0 111 0;
#X connect 252 0 109 0;
#X connect 254 0 47 0;
#X connect 256 0 51 0;
#X connect 257 0 54 0;
#X connect 258 0 58 0;
#X connect 259 0 55 0;
#X connect 260 0 79 0;
#X connect 261 0 74 0;
#X connect 262 0 91 0;
#X connect 263 0 93 0;
#X connect 264 0 99 0;
#X connect 265 0 103 1;
#X connect 266 0 355 1;
#X connect 267 0 354 1;
#X connect 268 0 133 0;
#X connect 269 0 356 1;
#X connect 270 0 45 1;
#X connect 272 0 163 0;
#X connect 272 0 274 0;
#X connect 275 0 164 0;
#X connect 275 0 277 0;
#X connect 279 0 166 0;
#X connect 279 0 278 0;
#X connect 281 0 174 0;
#X connect 281 0 282 0;
#X connect 283 0 176 0;
#X connect 283 0 284 0;
#X connect 288 0 178 0;
#X connect 288 0 287 0;
#X connect 291 0 190 0;
#X connect 291 0 290 0;
#X connect 293 0 192 0;
#X connect 293 0 295 0;
#X connect 297 0 194 0;
#X connect 297 0 296 0;
#X connect 299 0 196 0;
#X connect 299 0 300 0;
#X connect 302 0 198 0;
#X connect 302 0 304 0;
#X connect 306 0 307 0;
#X connect 306 0 308 0;
#X connect 313 0 314 0;
#X connect 313 1 379 0;
#X connect 314 0 380 0;
#X connect 315 0 313 0;
#X connect 319 0 320 0;
#X connect 320 0 321 0;
#X connect 321 0 322 0;
#X connect 322 0 323 0;
#X connect 323 0 330 1;
#X connect 324 0 325 0;
#X connect 325 0 326 0;
#X connect 326 0 327 0;
#X connect 327 0 328 0;
#X connect 328 0 329 0;
#X connect 329 0 331 1;
#X connect 330 0 127 0;
#X connect 331 0 127 0;
#X connect 332 0 333 0;
#X connect 333 0 334 0;
#X connect 334 0 335 0;
#X connect 335 0 336 0;
#X connect 336 0 343 1;
#X connect 337 0 338 0;
#X connect 338 0 339 0;
#X connect 339 0 340 0;
#X connect 340 0 341 0;
#X connect 341 0 342 0;
#X connect 342 0 344 1;
#X connect 343 0 126 0;
#X connect 344 0 126 0;
#X connect 345 0 344 0;
#X connect 346 0 331 0;
#X connect 351 0 100 1;
#X connect 352 0 103 0;
#X connect 353 0 352 0;
#X connect 354 0 136 0;
#X connect 355 0 354 0;
#X connect 356 0 45 0;
#X connect 357 0 359 0;
#X connect 358 0 365 0;
#X connect 359 0 355 0;
#X connect 360 0 361 0;
#X connect 361 0 362 0;
#X connect 362 0 363 0;
#X connect 363 0 364 0;
#X connect 364 0 359 1;
#X connect 365 0 356 0;
#X connect 366 0 367 0;
#X connect 367 0 368 0;
#X connect 368 0 369 0;
#X connect 369 0 370 0;
#X connect 370 0 365 1;
#X connect 371 0 372 0;
#X connect 371 1 374 0;
#X connect 372 0 375 0;
#X connect 373 0 374 0;
#X connect 373 0 377 0;
#X connect 376 0 371 0;
#X connect 378 0 316 0;
#X connect 378 0 379 0;
#X coords 0 -1 1 1 800 240 1 1000 370;
